<svg width="1440" height="994" viewBox="0 0 1440 994" fill="none" xmlns="http://www.w3.org/2000/svg">
<g opacity="0.4" clip-path="url(#clip0_755_42)">
<path d="M294.967 970.873L317.199 970.871L327.775 890.85L294.963 890.852L294.967 970.873Z" fill="#9E616A"/>
<path d="M289.298 964.098L295.555 964.098L319.985 954.826L333.078 964.096C340.478 964.097 347.576 966.84 352.808 971.723C358.04 976.606 360.98 983.228 360.981 990.134V990.98L289.299 990.982L289.298 964.098Z" fill="#211D28"/>
<path d="M398.249 970.873L420.481 970.871L431.057 890.85L398.245 890.852L398.249 970.873Z" fill="#9E616A"/>
<path d="M392.578 964.098L398.835 964.098L423.265 954.826L436.359 964.096C443.758 964.097 450.856 966.84 456.088 971.723C461.321 976.606 464.26 983.228 464.261 990.134V990.98L392.579 990.982L392.578 964.098Z" fill="#211D28"/>
<path d="M416.019 532.949L241.354 537.201L244.391 616.577C244.391 616.577 241.354 637.839 247.429 643.508C253.504 649.178 256.542 649.178 253.504 659.1C250.466 669.022 266.516 685.227 264.567 687.046C262.617 688.866 258.061 698.788 258.061 698.788L273.249 779.581C273.249 779.581 283.881 919.906 286.918 922.741C289.956 925.575 292.994 922.74 289.956 929.828C286.918 936.915 283.881 934.08 286.918 936.915C289.609 939.622 292.144 942.461 294.513 945.419H331.233C331.233 945.419 334.002 931.245 334.002 929.828C334.002 928.41 337.04 919.906 337.04 918.488C337.04 917.071 334.355 914.565 334.355 914.565C333.427 911.684 332.8 908.725 332.483 905.731C332.483 902.896 323.37 793.755 323.37 793.755L341.596 652.013L385.642 790.92C385.642 790.92 385.642 912.819 388.68 915.653C391.718 918.488 391.718 917.071 390.199 922.74C388.68 928.41 382.605 926.993 387.161 931.245C391.718 935.497 393.237 928.41 391.718 935.497L390.199 942.584L435.764 943.193C435.764 943.193 441.839 931.245 438.801 926.993C435.764 922.741 435.946 923.901 439.652 916.942C443.358 909.984 444.877 908.566 443.358 907.149C441.839 905.731 441.839 898.192 441.839 898.192L434.245 762.572C434.245 762.572 432.726 619.412 432.726 615.16C432.612 612.972 433.044 610.789 433.988 608.783V603.011L428.169 582.559L416.019 532.949Z" fill="#211D28"/>
<path d="M613.685 223.806C612.846 225.983 611.505 227.962 609.757 229.604C608.01 231.245 605.898 232.509 603.57 233.306C601.242 234.104 598.756 234.415 596.285 234.219C593.815 234.022 591.42 233.322 589.271 232.169L513.452 291.447L509.332 262.472L583.489 209.494C585.805 206.252 589.314 203.916 593.352 202.928C597.39 201.94 601.677 202.369 605.399 204.133C609.12 205.897 612.02 208.874 613.547 212.5C615.074 216.126 615.123 220.148 613.685 223.806Z" fill="#9E616A"/>
<path d="M279.368 248.27C305.371 248.27 326.452 228.597 326.452 204.33C326.452 180.062 305.371 160.39 279.368 160.39C253.364 160.39 232.284 180.062 232.284 204.33C232.284 228.597 253.364 248.27 279.368 248.27Z" fill="#9E616A"/>
<path d="M317.539 160.6C313.156 150.85 294.371 145.061 264.645 145.933C234.919 146.805 229.714 179.886 229.714 179.886C213.341 194.128 239.775 238.593 244.361 232.463C248.947 226.332 256.646 232.127 256.646 232.127L249.309 193.609C257.057 196.391 265.391 198.259 272.68 195.018L260.604 188.992C270.612 190.154 280.621 191.317 290.629 192.479L278.247 183.589C278.547 183.496 278.847 183.4 279.147 183.306C284.113 185.304 289.431 186.431 294.835 186.63C301.148 186.586 307.857 183.825 310.502 178.475C311.206 177.006 311.587 175.421 311.623 173.812C320.327 176.45 324.898 185.966 324.898 185.966C323.245 177.326 320.783 168.838 317.539 160.6Z" fill="#211D28"/>
<path d="M317.056 250.236C306.542 250.236 299.77 251.591 283.41 254.161C253.212 258.911 271.297 285.688 271.297 285.688C271.297 285.688 272.664 285.041 268.963 285.688C265.261 286.336 252.644 296.521 252.644 296.521L230.08 315.224C196.076 340.128 203.688 378.986 203.688 378.986L253.275 425.556L231.552 518.992C231.552 518.992 240.783 532.867 236.01 539.088C231.236 545.309 278.068 543.523 278.068 543.523C310.39 556.966 424.263 545.603 424.263 545.603C422.686 541.757 407.44 511.946 407.44 511.946C414.064 501.27 407.755 485.845 407.755 485.845C407.755 485.845 401.173 412.879 396.967 402.791C392.761 392.704 407.734 338.048 417.576 338.637C427.417 339.226 490.988 308.964 490.988 308.964C490.988 308.964 489.39 306.589 510.377 298.582C522.432 294.162 533.484 287.656 542.951 279.408L551.573 263.335C547.431 264.827 533.446 240.217 533.446 240.217L527.348 242.386L523.815 241.434C523.815 241.434 496.246 248.754 490.61 254.092C484.974 259.43 483.081 257.938 477.992 259.135C472.903 260.333 472.272 263.669 470.674 263.296C469.076 262.923 466.237 267.437 464.008 266.848C461.779 266.259 457.005 268.634 453.83 269.223C450.654 269.811 428.09 278.721 428.09 278.721C414.127 272.127 376.274 274.796 376.274 274.796C376.274 274.796 363.888 267.986 360.376 274.796C359.431 276.731 357.914 278.374 356.003 279.532C354.092 280.689 351.866 281.314 349.588 281.331L334.489 275.307C333.612 278.296 317.143 247.138 317.056 250.236Z" fill="#FFA7FF"/>
<path d="M244.969 615.918C243.32 614.19 242.097 612.145 241.386 609.928C240.675 607.711 240.494 605.376 240.855 603.087C241.215 600.797 242.11 598.61 243.475 596.678C244.839 594.746 246.642 593.117 248.754 591.906L227.362 513.428L256.609 523.886L272.863 597.993C274.809 601.44 275.332 605.433 274.334 609.216C273.336 612.999 270.885 616.309 267.447 618.518C264.008 620.727 259.821 621.683 255.678 621.204C251.535 620.724 247.725 618.844 244.969 615.918Z" fill="#9E616A"/>
<path d="M205.602 364.062L202.96 395.401C202.96 395.401 199.676 429.83 200.536 436.196C201.396 442.563 202.997 481.442 202.997 481.442L230.837 532.839L262.381 524.989L260.493 500.878L262.381 523.026L266.586 503.401L256.072 470.038L262.381 458.263L259.199 418.736L205.602 364.062Z" fill="#FFA7FF"/>
<path d="M952.434 290.819L962.848 292.901C962.916 288.836 963.459 284.79 964.467 280.835C965.414 285.679 967.409 290.291 970.33 294.392L1030.06 306.295L1087.4 249.82C1087.49 221.583 1070.69 200.124 1040.56 200.124C1038.74 200.124 1036.86 200.205 1034.96 200.369C1018.68 197.826 1001.98 201.277 988.378 209.994C974.772 218.712 965.322 232.015 962.016 247.105C940.663 266.726 948.408 278.262 952.434 290.819Z" fill="#211D28"/>
<path d="M923.068 951.273H901.404L891.098 873.287H923.073L923.068 951.273Z" fill="#FFB6B6"/>
<path d="M932.76 989.667H917.387L914.643 976.122L907.615 989.667H866.841C864.886 989.667 862.983 989.084 861.409 988.003C859.835 986.922 858.672 985.4 858.09 983.659C857.508 981.918 857.538 980.048 858.176 978.324C858.813 976.6 860.024 975.111 861.633 974.075L894.194 953.088V939.395L928.442 941.302L932.76 989.667Z" fill="#211D28"/>
<path d="M1176.89 929.266L1158.05 939.243L1107.84 876.16L1135.65 861.436L1176.89 929.266Z" fill="#FFB6B6"/>
<path d="M1205.62 958.194L1192.25 965.274L1182.7 954.757L1183.75 969.774L1148.29 988.553C1146.59 989.453 1144.62 989.822 1142.68 989.607C1140.74 989.392 1138.92 988.604 1137.5 987.357C1136.07 986.111 1135.11 984.471 1134.75 982.678C1134.39 980.885 1134.66 979.032 1135.51 977.39L1152.73 944.141L1145.49 932.231L1176.29 918.117L1205.62 958.194Z" fill="#211D28"/>
<path d="M842.987 304.482C845.763 304.857 848.418 305.795 850.763 307.231C853.109 308.666 855.089 310.564 856.563 312.791C858.038 315.018 858.971 317.52 859.297 320.12C859.624 322.72 859.335 325.355 858.453 327.84L891.605 354.619L879.081 377.39L832.832 338.959C828.458 337.298 824.888 334.197 822.799 330.244C820.711 326.291 820.249 321.761 821.501 317.511C822.752 313.261 825.631 309.588 829.591 307.186C833.551 304.785 838.318 303.823 842.987 304.482Z" fill="#FFB6B6"/>
<path d="M871.645 387.829L849.472 354.908L874.127 331.384L891.637 351.268L913.327 360.299L943.096 377.226C949.015 370.724 994.628 321.823 1014.98 335.903C1017.42 337.458 1019.48 339.488 1021 341.853C1022.52 344.219 1023.48 346.864 1023.8 349.607C1025.24 362.698 1012.67 376.014 1012.19 376.507L985.307 410.354C984.471 412.48 975.575 434.398 961.693 440.293C959.722 441.174 957.576 441.664 955.391 441.73C953.207 441.797 951.031 441.439 949.002 440.68C912.217 427.298 887.432 412.202 876.373 396.571C874.417 393.85 872.829 390.914 871.645 387.829Z" fill="#211D28"/>
<path d="M953.694 456.54C953.694 456.54 889.991 551.236 901.532 562.006C913.073 572.776 931.032 575.605 931.032 575.605L970.778 527.54L953.694 456.54Z" fill="#211D28"/>
<path d="M1010.02 327.21L979.993 346.164C966.038 354.974 955.543 367.79 950.098 382.669C944.652 397.549 944.555 413.679 949.821 428.615L958.273 452.591L1010.02 327.21Z" fill="#211D28"/>
<path d="M1063.11 585.701L1067.12 598.748L1080.82 756.084L1149.25 875.099L1116.59 896.869L1023.27 783.662L986.367 671.253L928.404 920.092L884.859 917.189L915.101 572.177L972.492 475.066L1063.11 585.701Z" fill="#211D28"/>
<path d="M1015.12 331.976L973.337 363.846C964.166 370.84 957.562 380.331 954.445 390.995C953.03 395.837 952.358 400.842 952.448 405.86L953.693 475.065L915.381 570.622C915.381 570.622 1019.25 607.242 1033.1 574.931C1046.95 542.619 1015.12 331.976 1015.12 331.976Z" fill="#FFA7FF"/>
<path d="M956.929 542.621L950.004 516.771L951.695 452.454C951.829 448.717 973.175 390.552 1000.08 328.77L1023.22 307.173L1035.7 299.596L1063.16 323.253C1063.16 323.253 1059.67 388.01 1060.8 454.303C1061.11 472.644 1057.66 494.064 1056.18 510.309L1068.8 562.634V591.759L1067.98 591.914C1067.16 592.069 1054.51 591.705 1002.63 591.705C959.632 591.705 988.254 563.257 956.929 542.621Z" fill="#211D28"/>
<path opacity="0.2" d="M1051.52 381.005L1057.83 417.749L1015.12 434.189L1051.52 381.005Z" fill="#474053"/>
<path d="M1008.5 292.703C1031.59 292.703 1050.31 275.234 1050.31 253.685C1050.31 232.135 1031.59 214.666 1008.5 214.666C985.409 214.666 966.69 232.135 966.69 253.685C966.69 275.234 985.409 292.703 1008.5 292.703Z" fill="#FFB6B6"/>
<path opacity="0.2" d="M1078.56 451.659C1067.43 463.684 1052.34 471.917 1035.65 475.064C1018.96 478.212 1001.63 476.096 986.368 469.049L977.269 464.846L1078.56 451.659Z" fill="#474053"/>
<path d="M933.066 442.677C934.931 440.722 937.233 439.172 939.81 438.137C942.386 437.101 945.174 436.605 947.978 436.684C950.782 436.764 953.533 437.415 956.038 438.594C958.542 439.773 960.74 441.449 962.475 443.506L1004.69 432.446L1018.15 454.748L958.298 469.585C954.402 472.077 949.662 473.148 944.977 472.596C940.291 472.044 935.985 469.907 932.875 466.59C929.765 463.273 928.067 459.007 928.102 454.6C928.137 450.192 929.904 445.95 933.066 442.677Z" fill="#FFB6B6"/>
<path d="M1023.38 466.292L981.727 465.417L974.28 433.254L1001.71 430.576L1021.74 418.662L1053.28 404.808C1050.73 396.615 1032.14 334.146 1055.94 326.056C1058.68 325.01 1061.63 324.53 1064.58 324.647C1067.54 324.765 1070.43 325.478 1073.06 326.737C1085.56 332.832 1090.53 349.96 1090.71 350.604L1106.16 390.193C1107.6 392.015 1122.3 411.021 1119.92 425.08C1119.62 427.101 1118.87 429.042 1117.73 430.78C1116.59 432.518 1115.07 434.015 1113.27 435.177C1081.03 456.447 1053.88 467.429 1033.81 467.428C1030.29 467.452 1026.79 467.071 1023.38 466.292Z" fill="#211D28"/>
<path d="M958.363 228.014C961.711 232.077 973.241 235.67 986.936 238.57C986.915 238.304 986.915 238.039 986.915 237.773C986.983 233.708 987.526 229.662 988.534 225.707C989.481 230.551 991.476 235.164 994.397 239.264C994.616 239.57 994.834 239.876 995.075 240.183C1006.82 242.347 1019.25 244.021 1028.99 245.144C1022.29 267.644 996.629 286.102 999.407 299.782L1074.6 314.115C1074.14 308.43 1074.63 302.713 1076.05 297.168C1077.49 304.486 1081.29 311.219 1086.94 316.463L1093.33 317.688L1095.23 308.929C1111.73 271.953 1088.74 234.098 1051.06 214.518C1044.34 205.121 1033.91 198.587 1022.05 196.346L1012.67 194.549C1006.75 193.419 1000.64 193.388 994.712 194.458C988.779 195.528 983.13 197.678 978.087 200.786C973.045 203.893 968.708 207.897 965.323 212.569C961.939 217.241 959.574 222.489 958.363 228.014Z" fill="#211D28"/>
<path d="M35.9405 942.179L34.9275 920.922C24.3668 915.654 12.5878 912.871 0.613281 912.815C17.0938 925.39 15.0342 949.629 26.2076 966.539C29.7358 971.788 34.4844 976.228 40.1017 979.532C45.7189 982.835 52.0608 984.917 58.6572 985.622L72.4487 993.503C74.3412 983.657 73.9239 973.546 71.2258 963.865C68.5276 954.184 63.6127 945.165 56.8197 937.427C52.9627 933.122 48.5401 929.287 43.6563 926.013C40.3532 934.141 35.9405 942.179 35.9405 942.179Z" fill="#FFA7FF"/>
<path d="M2.5025 993.999H1437.49C1438.16 993.997 1438.79 993.75 1439.26 993.312C1439.73 992.874 1439.99 992.28 1439.99 991.662C1439.99 991.043 1439.73 990.45 1439.26 990.012C1438.79 989.574 1438.16 989.327 1437.49 989.325H2.5025C1.83967 989.327 1.2047 989.574 0.736695 990.012C0.268687 990.45 0.00585938 991.043 0.00585938 991.662C0.00585938 992.28 0.268687 992.874 0.736695 993.312C1.2047 993.75 1.83967 993.997 2.5025 993.999Z" fill="#211D28"/>
<path d="M780.982 133.555C786.185 154.887 788.658 179.071 774.781 198.161C768.882 206.35 760.226 212.47 750.181 215.552C740.014 218.365 729.294 218.98 718.834 217.349C695.165 214.288 674.129 202.783 650.851 198.316C640.578 196.344 629.676 195.693 619.787 199.487C612.378 202.329 604.573 208.044 604.538 216.197C604.501 224.569 612.292 230.125 620.041 232.699C630.38 236.134 641.125 234.804 651.85 234.371C663.4 233.905 675.177 234.88 684.772 241.481C693.025 247.492 699.354 255.5 703.071 264.633C707.894 275.557 709.851 287.301 712.935 298.698C715.692 308.945 719.591 318.894 724.569 328.382C734.337 346.98 748.03 363.544 764.827 377.081C773.111 383.735 783.176 390.513 794.49 391.123C803.216 391.593 813.823 388.171 817.187 379.923C818.437 376.361 818.314 372.505 816.841 369.018C815.368 365.532 812.637 362.636 809.119 360.829C801.641 357.307 793.496 362.331 791.081 369.227C790.448 370.816 790.226 372.523 790.435 374.207C790.643 375.892 791.276 377.507 792.281 378.92C794.549 382.075 789.086 385.025 786.834 381.891C781.604 374.614 784.338 364.826 790.742 358.997C793.867 356.024 798.044 354.214 802.494 353.904C806.943 353.595 811.362 354.807 814.924 357.315C818.625 359.945 821.423 363.526 822.974 367.618C824.526 371.711 824.763 376.137 823.657 380.354C820.967 389.414 811.428 395.177 801.901 396.605C790.137 398.368 778.816 394.053 769.32 387.819C759.792 381.401 751.129 373.934 743.519 365.578C728.047 348.973 716.416 329.564 709.354 308.569C702.41 287.803 701.905 260.371 681.272 246.347C670.655 239.131 657.645 239.931 645.197 240.593C634.208 241.178 623.488 241.072 613.407 236.429C605.083 232.596 598.367 225.52 598.228 216.505C598.087 207.404 605.011 200.087 613.169 195.941C634.719 184.987 660.598 193.821 681.77 201.139C703.061 208.498 727.369 217.135 749.996 209.391C760.438 205.604 768.846 198.107 773.375 188.543C778.854 177.7 779.634 165.396 778.368 153.628C777.622 147.398 776.463 141.217 774.899 135.12C773.999 131.431 780.08 129.856 780.982 133.555Z" fill="#3F3D56"/>
<path d="M742.314 73.7156C748.553 93.1541 757.958 111.582 770.199 128.352C773.227 132.473 776.41 136.49 779.747 140.402C782.34 136.003 785.481 131.906 789.104 128.195C801.827 115.144 818.882 106.607 835.432 98.0507C851.982 89.4941 868.784 80.3096 880.476 66.4346C885.723 60.1888 889.48 52.9693 891.495 45.2591C894.145 34.7989 893.136 23.8874 886.596 15.1542C877.091 2.45673 858.143 -2.01781 842.035 1.65209C825.906 5.32199 812.405 15.7822 801.932 27.7927C805.36 13.0346 788.684 -1.21318 772.555 0.0820754C756.425 1.39696 743.492 14.5458 739.202 29.1076C734.891 43.6498 737.688 59.2322 742.314 73.7156Z" fill="#FFA7FF"/>
<g opacity="0.2">
<path d="M770.198 128.351C773.226 132.472 776.409 136.489 779.746 140.4C782.339 136.002 785.48 131.905 789.104 128.194C801.826 115.143 818.881 106.606 835.431 98.0494C851.981 89.4928 868.783 80.3083 880.475 66.4333C885.722 60.1875 889.479 52.968 891.495 45.2578C854.29 50.0712 820.104 66.9962 794.971 93.045C784.908 103.62 776.562 115.515 770.198 128.351Z" fill="#474053"/>
</g>
</g>
<defs>
<clipPath id="clip0_755_42">
<rect width="1440" height="994" fill="white"/>
</clipPath>
</defs>
</svg>
