<svg width="1335" height="750" viewBox="0 0 1335 750" fill="none" xmlns="http://www.w3.org/2000/svg">
<g opacity="0.4">
<path d="M702.449 743.947L257.512 744.101C235.159 744.108 215.137 732.558 203.954 713.204C198.361 703.525 195.565 692.909 195.561 682.289C195.557 671.672 198.348 661.052 203.932 651.371L426.259 246.637C437.43 227.274 457.445 215.71 479.798 215.703C502.15 215.695 522.173 227.244 533.357 246.6L755.993 651.23C761.57 660.883 764.36 671.487 764.361 682.099C764.361 692.712 761.571 703.33 755.986 713.013C744.816 732.374 724.802 743.939 702.449 743.947ZM201.154 682.282C201.153 691.947 250.251 671.12 255.337 679.924C265.511 697.532 237.174 738.527 257.51 738.52C257.51 738.52 740.99 727.839 751.152 710.224C756.232 701.417 758.771 691.754 758.768 682.095C758.765 672.435 756.219 662.776 751.131 653.972L528.496 249.341C518.35 231.784 500.136 221.276 479.8 221.283C459.473 221.29 201.155 672.615 201.154 682.282Z" fill="#3F3D56"/>
<path d="M707.39 738.365C701.813 749.528 963.022 746.098 966.11 746.097C966.11 746.097 1039.53 744.475 1041.07 741.8C1041.84 740.462 1042.23 738.995 1042.23 737.528C1042.23 736.061 1041.84 734.595 1041.07 733.258L1007.26 671.813C1005.72 669.146 1002.95 667.551 999.866 667.552C999.737 667.552 999.548 667.666 999.303 667.885C954.202 708.188 898.621 734.831 838.142 735.731C773.834 736.687 707.744 737.656 707.39 738.365Z" fill="#3F3D56"/>
<path d="M609.629 654.688C722.126 654.688 813.323 563.491 813.323 450.994C813.323 338.497 722.126 247.301 609.629 247.301C497.132 247.301 405.935 338.497 405.935 450.994C405.935 563.491 497.132 654.688 609.629 654.688Z" fill="#474053"/>
<path d="M609.666 575.861C619.995 575.861 628.368 567.488 628.368 557.159C628.368 546.83 619.995 538.456 609.666 538.456C599.337 538.456 590.963 546.83 590.963 557.159C590.963 567.488 599.337 575.861 609.666 575.861Z" fill="#E6E6E6"/>
<path d="M609.586 326.128C607.868 337.543 610.946 339.932 610.963 389.147C610.98 438.363 621.192 504.348 609.648 504.352C598.103 504.356 593.881 368.176 553.794 356.124C506.663 341.953 615.148 289.173 609.586 326.128Z" fill="#E6E6E6"/>
<path d="M336.243 554.992L317.84 593.876C340.088 577.923 374.838 564.171 402.492 556.805C376.726 544.359 345.198 524.293 326.362 504.425L336.947 545.511C212.85 520.235 123.734 425.034 123.696 315.981L119.214 314.439C119.253 428.348 207.136 529.185 336.243 554.992Z" fill="#3F3D56"/>
</g>
</svg>
