<svg width="26" height="26" viewBox="0 0 26 26" fill="none" xmlns="http://www.w3.org/2000/svg">
<path d="M24.5637 13.5454C23.5747 17.0657 22.0838 20.403 20.1432 23.4401C19.6631 24.1865 19.1586 24.9139 18.6297 25.6224C18.2185 24.8258 17.7206 24.0838 17.1462 23.4117C15.1293 21.0482 12.4256 19.5021 9.80194 17.9525C7.17829 16.4029 4.51464 14.7396 2.66108 12.2268C1.82932 11.0956 1.23375 9.78818 0.914208 8.39185C0.494157 6.49748 0.654162 4.52137 1.69095 2.93977C3.1978 0.640232 6.2015 -0.170117 8.75514 0.49451C11.3121 1.15914 13.4524 3.0535 15.1126 5.22864C14.5692 2.55592 17.2128 -0.0243978 19.7698 0.210177C22.3268 0.448305 24.377 2.82959 25.0571 5.46677C25.7405 8.1004 25.2972 10.9224 24.5637 13.5454Z" fill="#FFA7FF"/>
<g opacity="0.2">
<path d="M20.1426 23.4399C19.6625 24.1863 19.158 24.9137 18.629 25.6222C18.2179 24.8256 17.7199 24.0835 17.1455 23.4115C15.1286 21.048 12.425 19.5019 9.80132 17.9523C7.17767 16.4027 4.51402 14.7393 2.66047 12.2265C1.82871 11.0954 1.23311 9.78793 0.913571 8.3916C6.81157 9.26332 12.2311 12.3285 16.2154 17.046C17.8106 18.9612 19.1337 21.1154 20.1426 23.4399Z" fill="#474053"/>
</g>
</svg>
