<svg width="1494" height="1474" viewBox="0 0 1494 1474" fill="none" xmlns="http://www.w3.org/2000/svg">
<rect width="1494" height="1473.25" rx="736.625" fill="url(#paint0_linear_646_15)"/>
<g filter="url(#filter0_d_646_15)">
<path d="M403.37 361.992C398.971 392.784 396.039 425.775 394.573 459.499C393.839 472.696 393.839 485.893 394.573 498.356C395.306 518.884 397.505 537.945 399.704 557.007C402.637 583.4 407.036 607.594 410.702 629.588C415.834 657.447 422.432 680.908 427.564 698.503C431.229 724.896 412.901 748.356 386.508 752.022C360.848 755.688 336.655 736.626 333.722 710.966C333.722 675.776 340.32 620.79 345.452 558.473C346.918 538.679 348.385 518.884 349.118 499.089C349.851 485.893 349.118 472.696 349.118 459.499C347.652 425.775 346.185 392.051 343.986 360.526C339.587 295.276 335.188 240.291 335.921 207.3C339.587 181.64 363.781 163.311 389.441 166.977C415.834 170.643 433.429 194.836 429.763 220.496C418.033 267.417 409.235 314.338 403.37 361.992ZM664.912 507.154C680.308 559.94 667.111 626.655 634.12 668.444C609.193 699.969 574.003 719.764 526.349 709.5C462.565 699.236 432.507 634.72 429.574 566.538C427.375 521.816 439.105 476.362 457.433 444.104C471.363 419.91 491.158 405.247 512.419 396.45C547.61 388.385 579.135 393.517 604.794 414.045C632.654 435.306 655.381 469.763 664.912 507.154ZM606.994 624.456C619.457 595.13 617.991 557.74 604.794 529.148C593.797 504.954 568.871 474.162 541.744 485.159C507.287 499.089 494.09 555.541 495.557 588.532C497.023 616.391 505.088 653.781 537.346 662.579C556.407 666.978 573.269 664.045 585.733 654.515C595.264 647.183 601.862 636.186 606.994 624.456ZM931.677 383.253C933.877 391.318 928.011 400.115 925.079 406.713C921.413 416.244 917.014 425.042 913.349 433.84C906.75 452.168 900.152 469.763 893.554 488.092C881.091 524.016 870.093 560.673 859.096 597.33C851.765 621.523 845.167 645.717 838.568 667.711C833.436 686.039 828.304 702.902 823.906 715.365C816.574 736.626 805.577 748.356 799.712 752.022C789.448 757.154 772.586 755.688 760.856 735.16C745.46 710.233 726.398 631.054 725.665 628.121L685.342 471.963C669.946 455.834 667.747 431.64 678.011 412.579C687.542 393.517 710.269 379.587 732.263 385.452C751.325 390.584 768.187 407.447 769.653 427.975C771.853 466.831 773.319 503.488 776.252 541.611C778.451 565.805 780.65 590.731 784.316 614.925C784.316 616.391 787.249 642.784 793.114 658.913C794.58 652.315 799.712 632.52 801.178 625.189C814.375 559.94 820.24 483.693 823.173 466.098C826.838 435.306 834.17 394.983 837.102 376.655C839.302 365.658 844.434 355.394 854.697 350.262C865.695 344.397 881.091 348.795 892.088 353.194C904.551 359.059 927.278 369.323 931.677 383.253ZM1196.74 585.599C1217.27 601.728 1220.93 631.787 1204.81 652.315C1153.49 706.567 1100.7 727.828 1054.51 724.896C1027.39 722.696 1002.46 714.632 981.931 699.236C952.606 677.242 930.612 642.784 923.28 599.529C907.151 590.731 897.62 573.869 899.087 554.808C899.82 536.479 911.55 520.35 929.145 513.752C930.612 505.687 933.544 498.356 936.477 490.291C943.075 471.23 951.14 452.901 965.069 434.573C976.066 419.91 990.729 405.247 1011.99 391.318C1069.18 353.194 1130.03 372.256 1157.15 409.646C1182.81 444.837 1182.81 500.555 1119.03 557.74C1094.1 579.734 1065.51 595.13 1033.98 604.661C1017.86 609.06 1000.99 611.259 984.131 611.259C991.462 625.922 1002.46 637.652 1016.39 645.717C1050.11 664.778 1094.1 647.183 1130.03 593.664C1146.15 573.136 1176.21 569.47 1196.74 585.599ZM975.333 518.884C988.53 523.283 1002.46 524.749 1015.66 522.549C1036.92 519.617 1056.71 512.286 1073.57 500.555C1105.1 478.561 1118.3 458.033 1108.76 441.171C1097.03 422.109 1066.98 415.511 1036.92 432.373C1020.79 441.904 1009.06 451.435 1000.99 462.432C989.996 475.629 984.131 490.291 978.999 504.954C977.533 509.353 976.799 514.485 975.333 518.884ZM581.523 1081.33C584.456 1144.38 586.655 1207.43 591.054 1244.82C591.054 1261.68 582.256 1277.81 567.593 1285.88C552.931 1294.67 534.602 1295.41 519.939 1286.61C505.277 1278.54 495.746 1262.42 495.746 1245.55C498.678 1215.49 507.476 1170.04 514.074 1120.19C519.939 1079.86 525.071 1037.34 525.071 999.951C525.071 966.96 522.139 937.634 512.608 919.306C508.942 912.708 504.543 908.309 498.678 907.576C493.546 906.843 487.681 909.042 481.083 912.708C475.951 914.907 473.018 922.238 469.353 930.303C459.822 950.098 452.491 977.957 446.625 1007.28C432.696 1076.2 429.03 1155.38 433.429 1178.1C434.895 1204.5 415.834 1227.96 390.174 1230.89C363.781 1233.82 339.587 1215.49 335.921 1189.1C336.655 1186.17 337.388 1181.77 338.854 1176.64C340.32 1162.71 343.986 1141.45 349.118 1116.52C350.584 1104.79 352.784 1093.06 353.517 1080.6C354.983 1067.4 356.449 1054.94 356.449 1043.21C357.182 1028.54 356.449 1015.35 356.449 1004.35C356.449 999.951 352.05 972.825 346.185 943.499C341.787 918.573 335.921 894.379 332.256 878.25C330.789 870.186 330.056 862.121 330.789 854.057C333.722 837.194 346.185 823.998 362.314 818.133C378.443 813.001 396.039 816.666 408.502 827.664C421.699 838.661 427.564 856.256 423.898 873.118C423.898 871.652 423.898 870.919 423.165 870.186V870.919C420.966 881.183 417.3 900.977 414.367 922.238C429.03 894.379 445.159 873.851 460.555 867.986C484.749 857.722 503.81 858.455 519.206 865.787C535.335 873.118 547.799 887.781 556.596 909.042C563.195 923.705 567.593 942.033 570.526 962.561C577.124 997.019 579.324 1039.54 581.523 1081.33ZM836.025 991.154C851.421 1043.94 838.225 1110.66 805.234 1152.44C780.307 1183.97 745.116 1203.76 697.462 1193.5C633.679 1183.24 603.62 1118.72 600.688 1050.54C598.488 1005.82 610.219 960.362 628.547 928.104C642.477 903.91 662.271 889.247 683.532 880.45C718.723 872.385 750.248 877.517 775.908 898.045C803.767 919.306 826.495 953.763 836.025 991.154ZM778.107 1108.46C790.571 1079.13 789.104 1041.74 775.908 1013.15C764.911 988.954 739.984 958.162 712.858 969.159C678.4 983.089 665.204 1039.54 666.67 1072.53C668.137 1100.39 676.201 1137.78 708.459 1146.58C727.521 1150.98 744.383 1148.05 756.846 1138.51C766.377 1131.18 772.975 1120.19 778.107 1108.46ZM1170.87 828.397C1183.33 954.497 1176.73 1046.14 1162.8 1107.72C1151.81 1157.58 1135.68 1189.1 1120.28 1205.96C1107.82 1219.16 1094.62 1225.76 1082.89 1226.49C1070.43 1227.22 1058.7 1222.09 1051.37 1212.56C1037.44 1197.17 1024.24 1152.44 1013.24 1101.86L1011.78 1094.53C1005.91 1132.65 997.115 1169.31 985.385 1193.5C980.986 1203.03 971.456 1210.36 961.925 1214.03C954.593 1216.96 946.529 1216.96 937.731 1214.03C915.737 1208.16 895.942 1183.97 882.746 1146.58C858.552 1076.2 855.62 947.898 854.153 909.775C854.153 884.115 875.414 862.854 901.074 862.854C927.467 862.854 948.728 884.115 948.728 909.775C947.995 933.236 942.863 991.887 944.329 1049.8C945.063 1071.07 945.796 1091.59 948.728 1109.92C951.661 1098.92 954.593 1086.46 957.526 1074.73C969.256 1021.95 975.121 965.494 978.787 939.101C980.253 922.972 983.919 914.174 984.652 913.441C993.45 899.511 1005.18 898.778 1016.18 905.376C1018.38 906.109 1025.71 910.508 1028.64 922.238C1029.37 926.637 1030.84 936.901 1033.04 950.098C1037.44 979.423 1044.04 1027.81 1054.3 1073.27C1060.17 1102.59 1068.23 1130.45 1075.56 1151.71C1077.76 1156.11 1079.96 1159.78 1082.89 1164.17L1083.63 1161.97C1096.82 1137.05 1104.89 1092.33 1102.69 1025.61C1101.22 975.758 1093.16 915.64 1077.03 843.059C1074.83 830.596 1077.76 818.133 1085.09 807.869C1093.16 797.605 1104.15 791.007 1116.62 789.54C1142.28 785.141 1166.47 802.737 1170.87 828.397Z" fill="#EFD7F2"/>
</g>
<defs>
<filter id="filter0_d_646_15" x="318.343" y="163.311" width="914.305" height="1155.52" filterUnits="userSpaceOnUse" color-interpolation-filters="sRGB">
<feFlood flood-opacity="0" result="BackgroundImageFix"/>
<feColorMatrix in="SourceAlpha" type="matrix" values="0 0 0 0 0 0 0 0 0 0 0 0 0 0 0 0 0 0 127 0" result="hardAlpha"/>
<feOffset dy="11.7132"/>
<feGaussianBlur stdDeviation="5.8566"/>
<feComposite in2="hardAlpha" operator="out"/>
<feColorMatrix type="matrix" values="0 0 0 0 0 0 0 0 0 0 0 0 0 0 0 0 0 0 0.25 0"/>
<feBlend mode="normal" in2="BackgroundImageFix" result="effect1_dropShadow_646_15"/>
<feBlend mode="normal" in="SourceGraphic" in2="effect1_dropShadow_646_15" result="shape"/>
</filter>
<linearGradient id="paint0_linear_646_15" x1="0" y1="0" x2="1473.11" y2="1493.85" gradientUnits="userSpaceOnUse">
<stop stop-color="#FFA7FF"/>
<stop offset="1" stop-color="#F600DD"/>
</linearGradient>
</defs>
</svg>
