<svg width="23" height="25" viewBox="0 0 23 25" fill="none" xmlns="http://www.w3.org/2000/svg">
<rect width="23" height="25" fill="#585858"/>
<g id="photo">
<rect width="23" height="25" fill="#211D28"/>
<circle id="Ellipse 9" cx="6.5" cy="6.5" r="1.5" fill="#FFA7FF"/>
<g id="Rectangle 22">
<mask id="path-2-inside-1_601_10" fill="white">
<path d="M21 22L20.8748 10.7348V2H2V10.7805V22H21Z"/>
</mask>
<path d="M3.07702 20.2168C2.9004 20.5759 3.04835 21.0102 3.40748 21.1868C3.76661 21.3635 4.20091 21.2155 4.37753 20.8564L3.07702 20.2168ZM6.60606 14.6829L7.11547 14.1676L6.39985 13.4602L5.9558 14.3631L6.60606 14.6829ZM10.0606 18.0976L9.5512 18.6129L10.1512 19.206L10.6469 18.5234L10.0606 18.0976ZM14.6667 11.7561L15.0058 11.1157L14.45 10.8214L14.0804 11.3302L14.6667 11.7561ZM18.9336 14.8355C19.2873 15.0228 19.7258 14.8879 19.9131 14.5342C20.1004 14.1805 19.9655 13.742 19.6118 13.5547L18.9336 14.8355ZM4.37753 20.8564L7.25632 15.0027L5.9558 14.3631L3.07702 20.2168L4.37753 20.8564ZM6.09665 15.1983L9.5512 18.6129L10.57 17.5822L7.11547 14.1676L6.09665 15.1983ZM10.6469 18.5234L15.253 12.182L14.0804 11.3302L9.47431 17.6717L10.6469 18.5234ZM14.3276 12.3965L18.9336 14.8355L19.6118 13.5547L15.0058 11.1157L14.3276 12.3965ZM20.8748 10.7348H19.4256V10.7428L19.4257 10.7509L20.8748 10.7348ZM21 22V23.4493C21.3872 23.4493 21.7582 23.2944 22.0305 23.0191C22.3027 22.7438 22.4535 22.371 22.4492 21.9839L21 22ZM2 22H0.550725C0.550725 22.8004 1.19959 23.4493 2 23.4493L2 22ZM2 2V0.550725H0.550725V2H2ZM20.8748 2H22.3241V0.550725H20.8748V2ZM19.4257 10.7509L19.5508 22.0161L22.4492 21.9839L22.324 10.7187L19.4257 10.7509ZM3.44928 22V10.7805H0.550725V22H3.44928ZM3.44928 10.7805V2H0.550725V10.7805H3.44928ZM2 3.44928H20.8748V0.550725H2V3.44928ZM19.4256 2V10.7348H22.3241V2H19.4256ZM2 23.4493H21V20.5507H2V23.4493Z" fill="#FFA7FF" mask="url(#path-2-inside-1_601_10)"/>
</g>
</g>
</svg>
