<svg width="289" height="162" viewBox="0 0 289 162" fill="none" xmlns="http://www.w3.org/2000/svg">
<path d="M48.8825 53.4499C57.1765 65.2361 53.1022 79.4959 46.1178 90.8456C40.734 99.5761 33.4586 108.598 24.5826 113.981C23.1275 114.854 21.5269 115.582 19.9263 116.31C19.9263 117.183 20.0718 117.91 20.0718 118.783C20.3628 122.712 20.9449 126.641 21.6724 130.569C22.2544 133.625 22.3999 137.263 24.0005 140.027C26.0377 143.52 27.3472 146.43 25.4556 150.359C23.564 154.433 19.0532 157.343 14.5425 156.47C10.0317 155.451 6.24848 150.504 6.68501 145.848L8.14009 131.006C8.43111 126.786 9.01314 122.712 9.44967 118.638C5.22992 117.619 2.31975 113.836 2.46526 109.471C2.46526 105.251 5.37543 101.468 9.44967 100.449C10.0317 100.304 10.4682 100.304 10.9048 100.304C10.9048 97.1024 10.9048 93.7557 10.9048 90.5546C10.7592 85.3162 10.4682 80.0779 9.8862 74.8396C9.15865 67.4187 7.41255 60.2888 5.95746 53.0133C4.9389 48.2116 4.7934 43.1188 9.01314 39.9176C13.0874 36.7164 18.9077 38.0259 23.4185 39.481C32.44 42.2457 45.5358 48.2116 48.8825 53.4499ZM44.2262 71.7839C44.6628 67.7097 43.2077 63.9265 40.0065 60.4343C38.9879 59.2702 36.6598 58.8337 34.0406 57.9606C31.1305 57.0876 27.3472 57.2331 24.0005 57.2331C23.564 66.4001 22.5454 75.4217 21.3814 84.5887C20.9449 89.0995 20.3628 93.4647 20.0718 97.9755C20.0718 98.2665 19.9263 98.5575 19.9263 98.8485C21.0904 98.5575 22.1089 98.121 22.982 97.539C27.2017 95.0653 31.567 92.1552 35.2047 88.3719C37.6783 86.0438 39.861 83.4246 41.4616 80.66C42.9166 77.7498 44.0807 74.6941 44.2262 71.7839ZM69.7516 44.2828C68.8786 50.3942 68.2965 56.9421 68.0055 63.6355C67.86 66.2546 67.86 68.8738 68.0055 71.3474C68.151 75.4217 68.5875 79.2049 69.0241 82.9881C69.6061 88.2264 70.4792 93.0282 71.2067 97.3935C72.2253 102.923 73.5348 107.579 74.5534 111.071C75.2809 116.31 71.6432 120.966 66.4049 121.693C61.3121 122.421 56.5103 118.638 55.9283 113.545C55.9283 106.561 57.2379 95.6474 58.2564 83.2791C58.5475 79.3504 58.8385 75.4217 58.984 71.4929C59.1295 68.8738 58.984 66.2546 58.984 63.6355C58.693 56.9421 58.4019 50.2487 57.9654 43.9918C57.0924 31.0415 56.2193 20.1284 56.3648 13.5805C57.0924 8.4877 61.8942 4.84999 66.987 5.57753C72.2253 6.30508 75.7175 11.1069 74.9899 16.1997C72.6618 25.5122 70.9157 34.8248 69.7516 44.2828ZM129.058 106.561C129.203 107.579 129.058 108.307 129.058 108.598C129.349 111.653 127.312 113.254 126.439 114.272C125.711 115.291 124.547 115.582 123.528 116.164C121.637 117.183 118.436 117.183 114.216 114.127C114.07 113.981 114.07 113.836 113.925 113.69C112.761 112.817 111.742 111.653 111.015 110.344C110.433 109.762 109.996 109.18 110.287 108.743C109.996 108.452 109.851 108.016 109.56 107.579C107.086 108.889 103.594 110.053 101.411 111.653C92.9716 118.347 86.8602 118.492 83.077 116.31C79.8758 114.272 77.5477 110.344 76.8201 104.669C75.3651 92.3007 81.4764 72.8025 91.5165 69.1648C99.5195 65.6726 105.776 67.7097 110.724 71.3474C112.47 72.657 114.07 74.2576 115.38 76.0037C115.525 74.9851 115.671 73.8211 115.816 72.8025C116.107 70.1833 116.253 67.5642 116.253 64.945C116.107 60.8708 115.234 57.0876 113.343 54.4684C112.906 53.7409 111.888 54.1774 111.015 54.1774C109.996 54.1774 108.832 54.6139 107.668 55.0505C104.903 55.9235 101.993 57.6696 99.083 59.7067C96.1728 61.5983 93.6991 64.072 91.2255 66.4001C87.0058 69.4558 81.0399 68.5828 77.9842 64.363C74.9285 60.1433 75.8016 54.1774 80.0213 51.1217C84.6776 48.6481 89.4794 46.3199 94.4267 44.7193C98.2099 43.5553 101.702 42.5367 105.049 42.2457C109.123 41.8092 112.761 41.9547 115.671 43.2643C118.436 44.4283 120.909 46.0289 122.364 48.7936C124.256 52.2858 125.129 56.5055 125.275 61.1618C125.275 64.5085 125.129 68.0007 124.983 71.4929C124.692 76.5857 124.692 81.6785 124.983 85.4618C125.42 88.8085 125.857 93.9013 126.73 98.703C126.73 98.9941 126.73 99.2851 126.875 99.4306C127.166 100.158 127.457 100.886 127.748 101.613L128.039 102.05V102.195C128.33 102.632 128.476 103.214 128.621 103.796C128.912 104.669 129.058 105.542 129.058 106.561ZM105.34 90.2635C105.631 90.118 105.922 89.827 106.358 89.6815C105.776 87.6444 104.903 85.6073 103.885 83.7157C102.139 80.66 99.5195 78.1863 95.0087 79.4959C89.4794 81.0965 85.9872 90.8456 85.6962 98.703C85.4052 102.632 85.6962 106.124 87.7333 107.434C88.0243 107.579 88.1698 106.997 88.6063 106.852C90.0614 106.124 91.5165 104.814 93.4081 102.777C97.4824 98.2665 101.557 92.8827 105.34 90.2635ZM181.275 90.9911C181.857 103.505 182.293 116.019 183.166 123.439C183.166 126.786 181.42 129.987 178.51 131.588C175.6 133.334 171.962 133.48 169.052 131.733C166.142 130.133 164.25 126.932 164.25 123.585C164.832 117.619 166.578 108.598 167.888 98.703C169.052 90.7001 170.071 82.2606 170.071 74.8396C170.071 68.2917 169.489 62.4714 167.597 58.8337C166.87 57.5241 165.996 56.6511 164.832 56.5055C163.814 56.36 162.65 56.7966 161.34 57.5241C160.322 57.9606 159.74 59.4157 159.012 61.0163C157.12 64.945 155.665 70.4744 154.501 76.2947C151.737 89.9725 151.009 105.687 151.882 110.198C152.173 115.437 148.39 120.093 143.297 120.675C138.059 121.257 133.257 117.619 132.529 112.381C132.675 111.799 132.82 110.926 133.112 109.907C133.403 107.143 134.13 102.923 135.149 97.9755C135.44 95.6474 135.876 93.3192 136.022 90.8456C136.313 88.2264 136.604 85.7528 136.604 83.4246C136.749 80.5145 136.604 77.8953 136.604 75.7127C136.604 74.8396 135.731 69.4558 134.567 63.6355C133.694 58.6882 132.529 53.8864 131.802 50.6852C131.511 49.0846 131.365 47.484 131.511 45.8834C132.093 42.5367 134.567 39.9176 137.768 38.7535C140.969 37.7349 144.461 38.4625 146.935 40.6451C149.554 42.8277 150.718 46.3199 149.991 49.6666C149.991 49.3756 149.991 49.2301 149.845 49.0846V49.2301C149.408 51.2672 148.681 55.196 148.099 59.4157C151.009 53.8864 154.21 49.8121 157.266 48.6481C162.068 46.611 165.851 46.7565 168.907 48.2116C172.108 49.6666 174.581 52.5768 176.328 56.7966C177.637 59.7067 178.51 63.3444 179.092 67.4187C180.402 74.2576 180.838 82.6971 181.275 90.9911ZM231.787 73.0935C234.842 83.5701 232.223 96.8114 225.675 105.105C220.728 111.362 213.744 115.291 204.286 113.254C191.626 111.217 185.661 98.412 185.079 84.8797C184.642 76.0037 186.97 66.9822 190.608 60.5798C193.373 55.778 197.301 52.8678 201.521 51.1217C208.505 49.5211 214.762 50.5397 219.855 54.6139C225.384 58.8337 229.895 65.6726 231.787 73.0935ZM220.292 96.3749C222.765 90.5546 222.474 83.1336 219.855 77.4588C217.672 72.657 212.725 66.5456 207.341 68.7283C200.502 71.4929 197.883 82.6971 198.174 89.245C198.465 94.7743 200.066 102.195 206.468 103.941C210.252 104.814 213.598 104.232 216.072 102.341C217.963 100.886 219.273 98.703 220.292 96.3749ZM283.403 93.4647C286.167 97.248 287.04 101.759 284.13 108.598C281.802 113.981 269.725 119.074 256.92 116.455C248.626 114.709 240.769 109.762 235.094 100.304C233.057 95.7929 235.094 90.5546 239.895 88.5174C244.697 86.4803 250.227 88.5174 252.409 93.0282C254.01 96.3749 255.319 99.5761 258.666 101.759C262.013 103.941 266.524 104.814 270.598 104.669C271.325 104.669 272.053 104.523 272.78 104.232C277.437 102.486 274.09 97.248 271.616 95.3563C266.96 91.5731 261.285 89.245 256.338 85.8983C250.081 81.6785 244.843 76.1492 241.933 69.3103C239.022 63.6355 239.168 58.3972 240.623 54.1774C243.533 45.3014 253.137 40.6451 262.74 42.1002C272.344 43.4098 282.821 51.7038 285.44 71.6384C285.731 76.5857 281.802 80.66 276.564 80.951C271.325 81.242 266.96 77.4588 266.669 72.5115C266.96 62.3259 264.341 56.36 259.685 55.0505C256.92 54.1774 254.01 54.6139 252.409 56.6511C250.663 58.6882 250.081 61.8894 251.391 65.6726C252.846 69.4558 254.883 72.657 257.357 75.1306C266.378 84.4432 278.892 87.4989 283.403 93.4647Z" fill="#EFEFFF"/>
</svg>
