<svg width="518" height="107" viewBox="0 0 518 107" fill="none" xmlns="http://www.w3.org/2000/svg">
<path d="M34.6969 62.2C36.5969 64.8 37.1969 67.9 35.1969 72.6C33.5969 76.3 25.2969 79.8 16.4969 78C10.7969 76.8 5.39688 73.4 1.49688 66.9C0.096875 63.8 1.49688 60.2 4.79688 58.8C8.09688 57.4 11.8969 58.8 13.3969 61.9C14.4969 64.2 15.3969 66.4 17.6969 67.9C19.9969 69.4 23.0969 70 25.8969 69.9C26.3969 69.9 26.8969 69.8 27.3969 69.6C30.5969 68.4 28.2969 64.8 26.5969 63.5C23.3969 60.9 19.4969 59.3 16.0969 57C11.7969 54.1 8.19688 50.3 6.19688 45.6C4.19688 41.7 4.29688 38.1 5.29688 35.2C7.29688 29.1 13.8969 25.9 20.4969 26.9C27.0969 27.8 34.2969 33.5 36.0969 47.2C36.2969 50.6 33.5969 53.4 29.9969 53.6C26.3969 53.8 23.3969 51.2 23.1969 47.8C23.3969 40.8 21.5969 36.7 18.3969 35.8C16.4969 35.2 14.4969 35.5 13.3969 36.9C12.1969 38.3 11.7969 40.5 12.6969 43.1C13.6969 45.7 15.0969 47.9 16.7969 49.6C22.9969 56 31.5969 58.1 34.6969 62.2ZM74.4203 72.4C74.9203 75.9 72.6203 79.2 69.0203 79.8C65.5203 80.4 62.2203 78.1 61.6203 74.6C61.7203 71.1 61.9203 67.8 62.1203 64.8C61.4203 66.2 60.6203 67.6 59.7203 68.9C56.7203 74.5 52.0203 75.3 47.9203 73.9C44.2203 72.5 40.9203 68.9 39.9203 64.1C38.7203 59.4 38.5203 55.5 38.6203 51.4C38.6203 46.6 39.1203 41.4 39.4203 33.5C39.9203 30 43.2203 27.5 46.7203 28C50.3203 28.5 52.7203 31.8 52.2203 35.3C50.4203 42.9 48.8203 47.7 47.9203 52.3C47.1203 55.8 46.9203 59.4 47.2203 63C47.4203 65.2 48.5203 67.2 50.2203 67.9C51.6203 68.5 53.2203 67.9 54.3203 65.9C56.4203 61.3 57.8203 56 58.5203 50.5C59.1203 45 58.8203 39.6 58.2203 34.6C58.4203 31 61.4203 28.1 65.0203 28.1C68.7203 28 71.8203 30.8 72.1203 34.4C71.6203 36.6 70.1203 40.3 69.2203 46.1C68.9203 47.6 68.7203 49.2 68.7203 50.7C68.7203 51.8 68.7203 52.8 68.8203 53.8C69.2203 56.4 69.7203 58.9 70.4203 61.4C71.4203 65 72.8203 68.4 74.4203 72.4ZM112.12 71.2C112.22 71.9 112.12 72.4 112.12 72.6C112.32 74.7 110.92 75.8 110.32 76.5C109.82 77.2 109.02 77.4 108.32 77.8C107.02 78.5 104.82 78.5 101.92 76.4C101.82 76.3 101.82 76.2 101.72 76.1C100.92 75.5 100.22 74.7 99.7203 73.8C99.3203 73.4 99.0203 73 99.2203 72.7C99.0203 72.5 98.9203 72.2 98.7203 71.9C97.0203 72.8 94.6203 73.6 93.1203 74.7C87.3203 79.3 83.1203 79.4 80.5203 77.9C78.3203 76.5 76.7203 73.8 76.2203 69.9C75.2203 61.4 79.4203 48 86.3203 45.5C91.8203 43.1 96.1203 44.5 99.5203 47C100.72 47.9 101.82 49 102.72 50.2C102.82 49.5 102.92 48.7 103.02 48C103.22 46.2 103.32 44.4 103.32 42.6C103.22 39.8 102.62 37.2 101.32 35.4C101.02 34.9 100.32 35.2 99.7203 35.2C99.0203 35.2 98.2203 35.5 97.4203 35.8C95.5203 36.4 93.5203 37.6 91.5203 39C89.5203 40.3 87.8203 42 86.1203 43.6C83.2203 45.7 79.1203 45.1 77.0203 42.2C74.9203 39.3 75.5203 35.2 78.4203 33.1C81.6203 31.4 84.9203 29.8 88.3203 28.7C90.9203 27.9 93.3203 27.2 95.6203 27C98.4203 26.7 100.92 26.8 102.92 27.7C104.82 28.5 106.52 29.6 107.52 31.5C108.82 33.9 109.42 36.8 109.52 40C109.52 42.3 109.42 44.7 109.32 47.1C109.12 50.6 109.12 54.1 109.32 56.7C109.62 59 109.92 62.5 110.52 65.8C110.52 66 110.52 66.2 110.62 66.3C110.82 66.8 111.02 67.3 111.22 67.8L111.42 68.1V68.2C111.62 68.5 111.72 68.9 111.82 69.3C112.02 69.9 112.12 70.5 112.12 71.2ZM95.8203 60C96.0203 59.9 96.2203 59.7 96.5203 59.6C96.1203 58.2 95.5203 56.8 94.8203 55.5C93.6203 53.4 91.8203 51.7 88.7203 52.6C84.9203 53.7 82.5203 60.4 82.3203 65.8C82.1203 68.5 82.3203 70.9 83.7203 71.8C83.9203 71.9 84.0203 71.5 84.3203 71.4C85.3203 70.9 86.3203 70 87.6203 68.6C90.4203 65.5 93.2203 61.8 95.8203 60ZM146.806 62.2C148.706 64.8 149.306 67.9 147.306 72.6C145.706 76.3 137.406 79.8 128.606 78C122.906 76.8 117.506 73.4 113.606 66.9C112.206 63.8 113.606 60.2 116.906 58.8C120.206 57.4 124.006 58.8 125.506 61.9C126.606 64.2 127.506 66.4 129.806 67.9C132.106 69.4 135.206 70 138.006 69.9C138.506 69.9 139.006 69.8 139.506 69.6C142.706 68.4 140.406 64.8 138.706 63.5C135.506 60.9 131.606 59.3 128.206 57C123.906 54.1 120.306 50.3 118.306 45.6C116.306 41.7 116.406 38.1 117.406 35.2C119.406 29.1 126.006 25.9 132.606 26.9C139.206 27.8 146.406 33.5 148.206 47.2C148.406 50.6 145.706 53.4 142.106 53.6C138.506 53.8 135.506 51.2 135.306 47.8C135.506 40.8 133.706 36.7 130.506 35.8C128.606 35.2 126.606 35.5 125.506 36.9C124.306 38.3 123.906 40.5 124.806 43.1C125.806 45.7 127.206 47.9 128.906 49.6C135.106 56 143.706 58.1 146.806 62.2ZM212.15 99.8C212.25 103.4 209.55 106.5 205.95 106.6C202.35 106.8 199.35 104.1 199.15 100.5L200.25 90.9C200.65 85.9 201.25 80.8 201.65 75.7C201.75 74 201.75 72.3 201.85 70.6C201.85 70.3 201.85 70.1 201.85 69.9C196.85 76 192.35 78 189.05 77.9C186.35 77.7 183.95 76.3 182.15 73.7C178.35 68.3 176.95 56.5 180.55 44.1C182.85 35.4 188.45 29.8 193.75 27.3C198.55 25 203.35 25.5 207.15 28.3C209.95 29.1 211.95 31.7 211.95 34.6C211.95 34.6 211.95 34.7 211.95 34.8V34.9V35V35.1V35.2L212.05 35.3V35.4V35.5V35.6V35.7V35.8V35.9V36V36.1V36.2V36.3C212.05 36.7 211.95 37.2 211.85 37.6C211.45 41.1 210.75 44.5 210.05 47.7C209.85 49.5 209.65 51.3 209.35 53.2C208.85 57.4 208.55 61.7 208.15 65.6C208.05 67.3 207.95 68.9 207.95 70.6C207.95 72.3 208.05 73.9 208.15 75.6C208.65 80.7 209.55 85.7 210.25 90.7L212.15 99.8ZM198.85 54.4C199.45 49.5 199.55 43.8 199.15 37.7C197.65 37.4 195.85 38 194.15 39.4C191.75 41.3 189.85 43.9 188.55 46.8C184.95 56.4 184.35 65.9 187.25 70.3C189.25 73.2 192.05 71.3 196.05 65.3C197.35 63.3 198.15 59.4 198.85 54.4ZM250.006 72.4C250.506 75.9 248.206 79.2 244.606 79.8C241.106 80.4 237.806 78.1 237.206 74.6C237.306 71.1 237.506 67.8 237.706 64.8C237.006 66.2 236.206 67.6 235.306 68.9C232.306 74.5 227.606 75.3 223.506 73.9C219.806 72.5 216.506 68.9 215.506 64.1C214.306 59.4 214.106 55.5 214.206 51.4C214.206 46.6 214.706 41.4 215.006 33.5C215.506 30 218.806 27.5 222.306 28C225.906 28.5 228.306 31.8 227.806 35.3C226.006 42.9 224.406 47.7 223.506 52.3C222.706 55.8 222.506 59.4 222.806 63C223.006 65.2 224.106 67.2 225.806 67.9C227.206 68.5 228.806 67.9 229.906 65.9C232.006 61.3 233.406 56 234.106 50.5C234.706 45 234.406 39.6 233.806 34.6C234.006 31 237.006 28.1 240.606 28.1C244.306 28 247.406 30.8 247.706 34.4C247.206 36.6 245.706 40.3 244.806 46.1C244.506 47.6 244.306 49.2 244.306 50.7C244.306 51.8 244.306 52.8 244.406 53.8C244.806 56.4 245.306 58.9 246.006 61.4C247.006 65 248.406 68.4 250.006 72.4ZM287.706 71.2C287.806 71.9 287.706 72.4 287.706 72.6C287.906 74.7 286.506 75.8 285.906 76.5C285.406 77.2 284.606 77.4 283.906 77.8C282.606 78.5 280.406 78.5 277.506 76.4C277.406 76.3 277.406 76.2 277.306 76.1C276.506 75.5 275.806 74.7 275.306 73.8C274.906 73.4 274.606 73 274.806 72.7C274.606 72.5 274.506 72.2 274.306 71.9C272.606 72.8 270.206 73.6 268.706 74.7C262.906 79.3 258.706 79.4 256.106 77.9C253.906 76.5 252.306 73.8 251.806 69.9C250.806 61.4 255.006 48 261.906 45.5C267.406 43.1 271.706 44.5 275.106 47C276.306 47.9 277.406 49 278.306 50.2C278.406 49.5 278.506 48.7 278.606 48C278.806 46.2 278.906 44.4 278.906 42.6C278.806 39.8 278.206 37.2 276.906 35.4C276.606 34.9 275.906 35.2 275.306 35.2C274.606 35.2 273.806 35.5 273.006 35.8C271.106 36.4 269.106 37.6 267.106 39C265.106 40.3 263.406 42 261.706 43.6C258.806 45.7 254.706 45.1 252.606 42.2C250.506 39.3 251.106 35.2 254.006 33.1C257.206 31.4 260.506 29.8 263.906 28.7C266.506 27.9 268.906 27.2 271.206 27C274.006 26.7 276.506 26.8 278.506 27.7C280.406 28.5 282.106 29.6 283.106 31.5C284.406 33.9 285.006 36.8 285.106 40C285.106 42.3 285.006 44.7 284.906 47.1C284.706 50.6 284.706 54.1 284.906 56.7C285.206 59 285.506 62.5 286.106 65.8C286.106 66 286.106 66.2 286.206 66.3C286.406 66.8 286.606 67.3 286.806 67.8L287.006 68.1V68.2C287.206 68.5 287.306 68.9 287.406 69.3C287.606 69.9 287.706 70.5 287.706 71.2ZM271.406 60C271.606 59.9 271.806 59.7 272.106 59.6C271.706 58.2 271.106 56.8 270.406 55.5C269.206 53.4 267.406 51.7 264.306 52.6C260.506 53.7 258.106 60.4 257.906 65.8C257.706 68.5 257.906 70.9 259.306 71.8C259.506 71.9 259.606 71.5 259.906 71.4C260.906 70.9 261.906 70 263.206 68.6C266.006 65.5 268.806 61.8 271.406 60ZM299.292 28.4C298.692 32.6 298.292 37.1 298.092 41.7C297.992 43.5 297.992 45.3 298.092 47C298.192 49.8 298.492 52.4 298.792 55C299.192 58.6 299.792 61.9 300.292 64.9C300.992 68.7 301.892 71.9 302.592 74.3C303.092 77.9 300.592 81.1 296.992 81.6C293.492 82.1 290.192 79.5 289.792 76C289.792 71.2 290.692 63.7 291.392 55.2C291.592 52.5 291.792 49.8 291.892 47.1C291.992 45.3 291.892 43.5 291.892 41.7C291.692 37.1 291.492 32.5 291.192 28.2C290.592 19.3 289.992 11.8 290.092 7.3C290.592 3.79999 293.892 1.3 297.392 1.8C300.992 2.3 303.392 5.6 302.892 9.1C301.292 15.5 300.092 21.9 299.292 28.4ZM317.738 72.9C317.838 76.4 315.038 79.3 311.438 79.4C307.938 79.5 304.938 76.8 304.838 73.3C305.738 69.3 306.238 67.3 306.438 65.6C306.738 62.6 306.638 61.7 306.738 58C306.838 56.7 306.738 55.1 306.738 53C306.438 51 306.338 47.5 305.938 43.9C305.538 41 305.038 38.2 304.338 35.4C304.238 31.9 307.038 29 310.638 28.9C314.238 28.8 317.238 31.6 317.238 35.1C316.738 38.2 315.138 43.4 314.038 47.9C313.538 50 313.238 51.9 313.138 53.1C313.038 54.2 312.938 55.2 312.938 56.1C312.938 57 313.038 58 313.238 58.9C313.838 61.8 314.338 62.5 315.438 65.6C316.038 67.3 316.738 69.4 317.738 72.9ZM311.038 25.5C307.538 25.7 303.238 23.9 303.738 17.5C303.938 14 306.638 11.1 310.238 11.1C313.738 11.2 316.638 14 316.738 17.5C316.838 22 314.738 25.3 311.038 25.5ZM356.77 28.8C356.17 33.5 355.77 38.4 355.47 43.4C355.37 45.4 355.37 47.3 355.37 49.2C355.37 50.3 355.47 51.4 355.47 52.4V52.5C355.57 53.1 355.67 53.6 355.57 54.2C355.67 55.5 355.77 56.8 355.87 58C356.17 62.1 356.67 65.8 356.97 69C357.77 74.8 358.47 78.7 358.57 79.2C358.97 82.7 356.47 86 352.87 86.4C349.37 86.8 346.07 84.3 345.67 80.7C345.67 79.9 346.77 72.6 347.97 62.6C346.27 65.6 344.47 68.3 342.47 70.6C337.37 76.3 331.57 79 325.97 76.2C318.57 72.8 317.47 59.3 321.17 46.7C323.37 39.2 327.07 32.2 331.37 28.2C334.67 25.2 338.47 23.9 342.37 24.2C344.67 24.4 346.77 25.3 348.57 26.8C347.97 17.8 347.27 10.2 347.17 6.2C347.47 2.6 350.67 -4.05312e-06 354.27 0.299998C357.77 0.599994 360.47 3.79999 360.07 7.4C359.27 11.4 357.77 19.4 356.77 28.8ZM342.37 48.8C343.07 44.8 343.77 39.8 342.77 35.8C341.57 31.5 337.17 33.9 335.07 36C331.97 39.1 329.27 43.7 327.57 48.7C325.47 54.8 324.47 61.3 325.67 65.9C326.17 67.9 327.17 69.4 328.67 70.1C330.07 70.6 331.37 70.2 332.67 69.4C334.77 67.9 336.57 65.2 338.17 62C340.27 57.9 341.57 53.3 342.37 48.8ZM396.105 71.2C396.205 71.9 396.105 72.4 396.105 72.6C396.305 74.7 394.905 75.8 394.305 76.5C393.805 77.2 393.005 77.4 392.305 77.8C391.005 78.5 388.805 78.5 385.905 76.4C385.805 76.3 385.805 76.2 385.705 76.1C384.905 75.5 384.205 74.7 383.705 73.8C383.305 73.4 383.005 73 383.205 72.7C383.005 72.5 382.905 72.2 382.705 71.9C381.005 72.8 378.605 73.6 377.105 74.7C371.305 79.3 367.105 79.4 364.505 77.9C362.305 76.5 360.705 73.8 360.205 69.9C359.205 61.4 363.405 48 370.305 45.5C375.805 43.1 380.105 44.5 383.505 47C384.705 47.9 385.805 49 386.705 50.2C386.805 49.5 386.905 48.7 387.005 48C387.205 46.2 387.305 44.4 387.305 42.6C387.205 39.8 386.605 37.2 385.305 35.4C385.005 34.9 384.305 35.2 383.705 35.2C383.005 35.2 382.205 35.5 381.405 35.8C379.505 36.4 377.505 37.6 375.505 39C373.505 40.3 371.805 42 370.105 43.6C367.205 45.7 363.105 45.1 361.005 42.2C358.905 39.3 359.505 35.2 362.405 33.1C365.605 31.4 368.905 29.8 372.305 28.7C374.905 27.9 377.305 27.2 379.605 27C382.405 26.7 384.905 26.8 386.905 27.7C388.805 28.5 390.505 29.6 391.505 31.5C392.805 33.9 393.405 36.8 393.505 40C393.505 42.3 393.405 44.7 393.305 47.1C393.105 50.6 393.105 54.1 393.305 56.7C393.605 59 393.905 62.5 394.505 65.8C394.505 66 394.505 66.2 394.605 66.3C394.805 66.8 395.005 67.3 395.205 67.8L395.405 68.1V68.2C395.605 68.5 395.705 68.9 395.805 69.3C396.005 69.9 396.105 70.5 396.105 71.2ZM379.805 60C380.005 59.9 380.205 59.7 380.505 59.6C380.105 58.2 379.505 56.8 378.805 55.5C377.605 53.4 375.805 51.7 372.705 52.6C368.905 53.7 366.505 60.4 366.305 65.8C366.105 68.5 366.305 70.9 367.705 71.8C367.905 71.9 368.005 71.5 368.305 71.4C369.305 70.9 370.305 70 371.605 68.6C374.405 65.5 377.205 61.8 379.805 60ZM435.091 28.8C434.491 33.5 434.091 38.4 433.791 43.4C433.691 45.4 433.691 47.3 433.691 49.2C433.691 50.3 433.791 51.4 433.791 52.4V52.5C433.891 53.1 433.991 53.6 433.891 54.2C433.991 55.5 434.091 56.8 434.191 58C434.491 62.1 434.991 65.8 435.291 69C436.091 74.8 436.791 78.7 436.891 79.2C437.291 82.7 434.791 86 431.191 86.4C427.691 86.8 424.391 84.3 423.991 80.7C423.991 79.9 425.091 72.6 426.291 62.6C424.591 65.6 422.791 68.3 420.791 70.6C415.691 76.3 409.891 79 404.291 76.2C396.891 72.8 395.791 59.3 399.491 46.7C401.691 39.2 405.391 32.2 409.691 28.2C412.991 25.2 416.791 23.9 420.691 24.2C422.991 24.4 425.091 25.3 426.891 26.8C426.291 17.8 425.591 10.2 425.491 6.2C425.791 2.6 428.991 -4.05312e-06 432.591 0.299998C436.091 0.599994 438.791 3.79999 438.391 7.4C437.591 11.4 436.091 19.4 435.091 28.8ZM420.691 48.8C421.391 44.8 422.091 39.8 421.091 35.8C419.891 31.5 415.491 33.9 413.391 36C410.291 39.1 407.591 43.7 405.891 48.7C403.791 54.8 402.791 61.3 403.991 65.9C404.491 67.9 405.491 69.4 406.991 70.1C408.391 70.6 409.691 70.2 410.991 69.4C413.091 67.9 414.891 65.2 416.491 62C418.591 57.9 419.891 53.3 420.691 48.8ZM478.113 58.9C480.913 61.1 481.413 65.2 479.213 68C472.213 75.4 465.013 78.3 458.713 77.9C455.013 77.6 451.613 76.5 448.813 74.4C444.813 71.4 441.813 66.7 440.813 60.8C438.613 59.6 437.313 57.3 437.513 54.7C437.613 52.2 439.213 50 441.613 49.1C441.813 48 442.213 47 442.613 45.9C443.513 43.3 444.613 40.8 446.513 38.3C448.013 36.3 450.013 34.3 452.913 32.4C460.713 27.2 469.013 29.8 472.713 34.9C476.213 39.7 476.213 47.3 467.513 55.1C464.113 58.1 460.213 60.2 455.913 61.5C453.713 62.1 451.413 62.4 449.113 62.4C450.113 64.4 451.613 66 453.513 67.1C458.113 69.7 464.113 67.3 469.013 60C471.213 57.2 475.313 56.7 478.113 58.9ZM447.913 49.8C449.713 50.4 451.613 50.6 453.413 50.3C456.313 49.9 459.013 48.9 461.313 47.3C465.613 44.3 467.413 41.5 466.113 39.2C464.513 36.6 460.413 35.7 456.313 38C454.113 39.3 452.513 40.6 451.413 42.1C449.913 43.9 449.113 45.9 448.413 47.9C448.213 48.5 448.113 49.2 447.913 49.8ZM514.58 62.2C516.48 64.8 517.08 67.9 515.08 72.6C513.48 76.3 505.18 79.8 496.38 78C490.68 76.8 485.28 73.4 481.38 66.9C479.98 63.8 481.38 60.2 484.68 58.8C487.98 57.4 491.78 58.8 493.28 61.9C494.38 64.2 495.28 66.4 497.58 67.9C499.88 69.4 502.98 70 505.78 69.9C506.28 69.9 506.78 69.8 507.28 69.6C510.48 68.4 508.18 64.8 506.48 63.5C503.28 60.9 499.38 59.3 495.98 57C491.68 54.1 488.08 50.3 486.08 45.6C484.08 41.7 484.18 38.1 485.18 35.2C487.18 29.1 493.78 25.9 500.38 26.9C506.98 27.8 514.18 33.5 515.98 47.2C516.18 50.6 513.48 53.4 509.88 53.6C506.28 53.8 503.28 51.2 503.08 47.8C503.28 40.8 501.48 36.7 498.28 35.8C496.38 35.2 494.38 35.5 493.28 36.9C492.08 38.3 491.68 40.5 492.58 43.1C493.58 45.7 494.98 47.9 496.68 49.6C502.88 56 511.48 58.1 514.58 62.2Z" fill="white"/>
</svg>
