<svg width="493" height="96" viewBox="0 0 493 96" fill="none" xmlns="http://www.w3.org/2000/svg">
<path d="M31.5715 54.5C32.9715 57.9 31.3715 61.6 28.0715 63C21.5715 64.8 16.2715 64.5 11.9715 62.4C6.67148 59.8 2.87148 55.5 1.67148 50.5C0.771484 47.5 0.371484 44.3 0.471484 41.2C0.471484 37.7 0.971484 34.4 2.07148 31.6C3.87148 26.9 7.27148 23.5 11.8715 21.7C18.6715 19 24.1715 22 27.9715 26.6C31.2715 30.8 32.3715 37 31.2715 43C30.2715 46.4 26.6715 48.3 23.2715 47.3C19.7715 46.3 17.8715 42.7 18.8715 39.2C19.8715 36.9 20.3715 34.2 19.2715 32.2C18.3715 30.3 16.6715 28.8 14.1715 29.3C10.6715 30.1 8.17149 32.7 7.17148 36.3C6.57148 38.2 6.47148 40.3 6.67148 42.3C6.87148 44.2 7.57148 46.2 8.37148 48.2C9.57148 50.7 11.9715 52.6 15.0715 53.3C17.4715 53.8 20.0715 52.8 23.0715 51C26.3715 49.7 30.1715 51.2 31.5715 54.5ZM63.8723 22.3C66.4723 23.8 67.5723 27.2 66.4723 29.9C65.2723 32.6 61.9723 34.2 59.0723 33.4C56.5723 32.8 54.4723 30.7 51.9723 30.9C50.5723 31 49.3723 31.7 48.4723 32.8C47.6723 33.8 47.1723 35.1 46.6723 36.3C44.3723 43.4 45.2723 51.1 46.8723 58.4C47.3723 60.4 47.8723 62.5 47.2723 64.5C46.5723 67.1 43.7723 69.1 40.8723 69C38.0723 68.8 35.4723 66.7 34.8723 64C34.4723 62 35.0723 59.9 35.5723 58C38.1723 47.2 38.0723 36 35.0723 25.3C34.4723 23.4 33.8723 21.5 33.9723 19.5C33.9723 15.2 38.2723 12.2 42.5723 13.7C44.3723 14.3 45.8723 15.8 46.4723 17.7C46.7723 18.7 46.7723 19.7 46.6723 20.6C46.5723 21.2 46.3723 23.3 45.9723 23.7C49.3723 20.8 54.4723 20.4 58.9723 20.9C60.1723 21 61.2723 21.2 62.4723 21.6C62.9723 21.8 63.4723 22 63.8723 22.3ZM80.9707 61.9C81.0707 65.4 78.2707 68.3 74.6707 68.4C71.1707 68.5 68.1707 65.8 68.0707 62.3C68.9707 58.3 69.4707 56.3 69.6707 54.6C69.9707 51.6 69.8707 50.7 69.9707 47C70.0707 45.7 69.9707 44.1 69.9707 42C69.6707 40 69.5707 36.5 69.1707 32.9C68.7707 30 68.2707 27.2 67.5707 24.4C67.4707 20.9 70.2707 18 73.8707 17.9C77.4707 17.8 80.4707 20.6 80.4707 24.1C79.9707 27.2 78.3707 32.4 77.2707 36.9C76.7707 39 76.4707 40.9 76.3707 42.1C76.2707 43.2 76.1707 44.2 76.1707 45.1C76.1707 46 76.2707 47 76.4707 47.9C77.0707 50.8 77.5707 51.5 78.6707 54.6C79.2707 56.3 79.9707 58.4 80.9707 61.9ZM74.2707 14.5C70.7707 14.7 66.4707 12.9 66.9707 6.5C67.1707 2.99999 69.8707 0.0999961 73.4707 0.0999961C76.9707 0.199995 79.8707 2.99999 79.9707 6.5C80.0707 11 77.9707 14.3 74.2707 14.5ZM120.447 47.9C123.247 50.1 123.747 54.2 121.547 57C114.547 64.4 107.347 67.3 101.047 66.9C97.3473 66.6 93.9473 65.5 91.1473 63.4C87.1473 60.4 84.1473 55.7 83.1473 49.8C80.9473 48.6 79.6473 46.3 79.8473 43.7C79.9473 41.2 81.5473 39 83.9473 38.1C84.1473 37 84.5473 36 84.9473 34.9C85.8473 32.3 86.9473 29.8 88.8473 27.3C90.3473 25.3 92.3473 23.3 95.2473 21.4C103.047 16.2 111.347 18.8 115.047 23.9C118.547 28.7 118.547 36.3 109.847 44.1C106.447 47.1 102.547 49.2 98.2473 50.5C96.0473 51.1 93.7473 51.4 91.4473 51.4C92.4473 53.4 93.9473 55 95.8473 56.1C100.447 58.7 106.447 56.3 111.347 49C113.547 46.2 117.647 45.7 120.447 47.9ZM90.2473 38.8C92.0473 39.4 93.9473 39.6 95.7473 39.3C98.6473 38.9 101.347 37.9 103.647 36.3C107.947 33.3 109.747 30.5 108.447 28.2C106.847 25.6 102.747 24.7 98.6473 27C96.4473 28.3 94.8473 29.6 93.7473 31.1C92.2473 32.9 91.4473 34.9 90.7473 36.9C90.5473 37.5 90.4473 38.2 90.2473 38.8ZM185.234 51.2C187.134 53.8 187.734 56.9 185.734 61.6C184.134 65.3 175.834 68.8 167.034 67C161.334 65.8 155.934 62.4 152.034 55.9C150.634 52.8 152.034 49.2 155.334 47.8C158.634 46.4 162.434 47.8 163.934 50.9C165.034 53.2 165.934 55.4 168.234 56.9C170.534 58.4 173.634 59 176.434 58.9C176.934 58.9 177.434 58.8 177.934 58.6C181.134 57.4 178.834 53.8 177.134 52.5C173.934 49.9 170.034 48.3 166.634 46C162.334 43.1 158.734 39.3 156.734 34.6C154.734 30.7 154.834 27.1 155.834 24.2C157.834 18.1 164.434 14.9 171.034 15.9C177.634 16.8 184.834 22.5 186.634 36.2C186.834 39.6 184.134 42.4 180.534 42.6C176.934 42.8 173.934 40.2 173.734 36.8C173.934 29.8 172.134 25.7 168.934 24.8C167.034 24.2 165.034 24.5 163.934 25.9C162.734 27.3 162.334 29.5 163.234 32.1C164.234 34.7 165.634 36.9 167.334 38.6C173.534 45 182.134 47.1 185.234 51.2ZM224.957 61.4C225.457 64.9 223.157 68.2 219.557 68.8C216.057 69.4 212.757 67.1 212.157 63.6C212.257 60.1 212.457 56.8 212.657 53.8C211.957 55.2 211.157 56.6 210.257 57.9C207.257 63.5 202.557 64.3 198.457 62.9C194.757 61.5 191.457 57.9 190.457 53.1C189.257 48.4 189.057 44.5 189.157 40.4C189.157 35.6 189.657 30.4 189.957 22.5C190.457 19 193.757 16.5 197.257 17C200.857 17.5 203.257 20.8 202.757 24.3C200.957 31.9 199.357 36.7 198.457 41.3C197.657 44.8 197.457 48.4 197.757 52C197.957 54.2 199.057 56.2 200.757 56.9C202.157 57.5 203.757 56.9 204.857 54.9C206.957 50.3 208.357 45 209.057 39.5C209.657 34 209.357 28.6 208.757 23.6C208.957 20 211.957 17.1 215.557 17.1C219.257 17 222.357 19.8 222.657 23.4C222.157 25.6 220.657 29.3 219.757 35.1C219.457 36.6 219.257 38.2 219.257 39.7C219.257 40.8 219.257 41.8 219.357 42.8C219.757 45.4 220.257 47.9 220.957 50.4C221.957 54 223.357 57.4 224.957 61.4ZM262.657 60.2C262.757 60.9 262.657 61.4 262.657 61.6C262.857 63.7 261.457 64.8 260.857 65.5C260.357 66.2 259.557 66.4 258.857 66.8C257.557 67.5 255.357 67.5 252.457 65.4C252.357 65.3 252.357 65.2 252.257 65.1C251.457 64.5 250.757 63.7 250.257 62.8C249.857 62.4 249.557 62 249.757 61.7C249.557 61.5 249.457 61.2 249.257 60.9C247.557 61.8 245.157 62.6 243.657 63.7C237.857 68.3 233.657 68.4 231.057 66.9C228.857 65.5 227.257 62.8 226.757 58.9C225.757 50.4 229.957 37 236.857 34.5C242.357 32.1 246.657 33.5 250.057 36C251.257 36.9 252.357 38 253.257 39.2C253.357 38.5 253.457 37.7 253.557 37C253.757 35.2 253.857 33.4 253.857 31.6C253.757 28.8 253.157 26.2 251.857 24.4C251.557 23.9 250.857 24.2 250.257 24.2C249.557 24.2 248.757 24.5 247.957 24.8C246.057 25.4 244.057 26.6 242.057 28C240.057 29.3 238.357 31 236.657 32.6C233.757 34.7 229.657 34.1 227.557 31.2C225.457 28.3 226.057 24.2 228.957 22.1C232.157 20.4 235.457 18.8 238.857 17.7C241.457 16.9 243.857 16.2 246.157 16C248.957 15.7 251.457 15.8 253.457 16.7C255.357 17.5 257.057 18.6 258.057 20.5C259.357 22.9 259.957 25.8 260.057 29C260.057 31.3 259.957 33.7 259.857 36.1C259.657 39.6 259.657 43.1 259.857 45.7C260.157 48 260.457 51.5 261.057 54.8C261.057 55 261.057 55.2 261.157 55.3C261.357 55.8 261.557 56.3 261.757 56.8L261.957 57.1V57.2C262.157 57.5 262.257 57.9 262.357 58.3C262.557 58.9 262.657 59.5 262.657 60.2ZM246.357 49C246.557 48.9 246.757 48.7 247.057 48.6C246.657 47.2 246.057 45.8 245.357 44.5C244.157 42.4 242.357 40.7 239.257 41.6C235.457 42.7 233.057 49.4 232.857 54.8C232.657 57.5 232.857 59.9 234.257 60.8C234.457 60.9 234.557 60.5 234.857 60.4C235.857 59.9 236.857 59 238.157 57.6C240.957 54.5 243.757 50.8 246.357 49ZM323.964 23.7C329.664 31.8 326.864 41.6 322.064 49.4C318.364 55.4 313.364 61.6 307.264 65.3C306.264 65.9 305.164 66.4 304.064 66.9C304.064 67.5 304.164 68 304.164 68.6C304.364 71.3 304.764 74 305.264 76.7C305.664 78.8 305.764 81.3 306.864 83.2C308.264 85.6 309.164 87.6 307.864 90.3C306.564 93.1 303.464 95.1 300.364 94.5C297.264 93.8 294.664 90.4 294.964 87.2L295.964 77C296.164 74.1 296.564 71.3 296.864 68.5C293.964 67.8 291.964 65.2 292.064 62.2C292.064 59.3 294.064 56.7 296.864 56C297.264 55.9 297.564 55.9 297.864 55.9C297.864 53.7 297.864 51.4 297.864 49.2C297.764 45.6 297.564 42 297.164 38.4C296.664 33.3 295.464 28.4 294.464 23.4C293.764 20.1 293.664 16.6 296.564 14.4C299.364 12.2 303.364 13.1 306.464 14.1C312.664 16 321.664 20.1 323.964 23.7ZM320.764 36.3C321.064 33.5 320.064 30.9 317.864 28.5C317.164 27.7 315.564 27.4 313.764 26.8C311.764 26.2 309.164 26.3 306.864 26.3C306.564 32.6 305.864 38.8 305.064 45.1C304.764 48.2 304.364 51.2 304.164 54.3C304.164 54.5 304.064 54.7 304.064 54.9C304.864 54.7 305.564 54.4 306.164 54C309.064 52.3 312.064 50.3 314.564 47.7C316.264 46.1 317.764 44.3 318.864 42.4C319.864 40.4 320.664 38.3 320.764 36.3ZM346.406 13.7C345.506 13.1 345.406 12.2 345.606 11.2C345.806 10.2 346.106 9.1 346.306 8.09999C346.606 7 346.706 6 346.706 4.9C347.306 3.2 349.106 2.3 350.806 2.9C352.406 3.5 353.306 5.29999 352.806 7C352.306 7.7 351.306 8.9 350.306 10.2C349.706 11.1 349.106 12.1 348.406 12.9C348.006 13.5 347.106 14.1 346.406 13.7ZM364.806 60.2C364.906 60.9 364.806 61.4 364.806 61.6C365.006 63.7 363.606 64.8 363.006 65.5C362.506 66.2 361.706 66.4 361.006 66.8C359.706 67.5 357.506 67.5 354.606 65.4C354.506 65.3 354.506 65.2 354.406 65.1C353.606 64.5 352.906 63.7 352.406 62.8C352.006 62.4 351.706 62 351.906 61.7C351.706 61.4 351.606 61.2 351.406 60.9C349.706 61.8 347.306 62.6 345.806 63.7C340.006 68.3 335.806 68.4 333.206 66.9C331.006 65.5 329.406 62.8 328.906 58.9C327.906 50.4 332.106 37 339.006 34.5C344.506 32.1 348.806 33.5 352.206 36C353.406 36.9 354.506 38 355.406 39.2C355.506 38.5 355.606 37.7 355.706 37C355.906 35.2 356.006 33.4 356.006 31.6C355.906 28.8 355.306 26.2 354.006 24.4C353.706 23.9 353.006 24.2 352.406 24.2C351.706 24.2 350.906 24.5 350.106 24.8C348.206 25.4 346.206 26.6 344.206 28C342.206 29.3 340.506 31 338.806 32.6C335.906 34.7 331.806 34.1 329.706 31.2C327.606 28.3 328.206 24.2 331.106 22.1C334.306 20.4 337.606 18.8 341.006 17.7C343.606 16.9 346.006 16.2 348.306 16C351.106 15.7 353.606 15.8 355.606 16.7C357.506 17.5 359.206 18.6 360.206 20.5C361.506 22.9 362.006 25.8 362.206 29C362.206 31.3 362.106 33.7 362.006 36.1C361.806 39.6 361.806 43.1 362.006 45.7C362.306 48 362.606 51.5 363.206 54.8C363.206 55 363.206 55.2 363.306 55.3C363.506 55.8 363.706 56.3 363.906 56.8L364.106 57.1V57.2C364.206 57.5 364.406 57.9 364.506 58.3C364.706 58.9 364.806 59.5 364.806 60.2ZM348.506 49C348.706 48.9 348.906 48.7 349.206 48.6C348.806 47.2 348.206 45.8 347.506 44.5C346.306 42.4 344.506 40.7 341.406 41.6C337.606 42.7 335.206 49.4 335.006 54.8C334.806 57.5 335.006 59.9 336.406 60.8C336.606 60.9 336.706 60.5 337.006 60.4C338.006 59.9 339.006 59 340.306 57.6C343.106 54.5 345.906 50.8 348.506 49ZM401.992 22.4C399.892 36.3 398.792 43.3 398.592 49.7C398.492 55.1 398.992 59.9 399.492 68C399.692 69.5 399.792 71 399.792 72.4C400.392 82.1 396.892 88.3 390.492 89.9C385.692 91.1 378.392 89.3 367.592 82.4C364.892 80.1 364.492 76.1 366.692 73.3C368.892 70.5 372.992 70.1 375.792 72.3C380.292 77 383.792 79.9 386.892 81.1C387.792 81.4 388.492 81.7 389.292 81.6C393.492 81.3 393.792 75.7 393.392 68.7C392.692 64 392.192 60.4 391.792 57.1C391.692 57 391.692 56.9 391.692 56.8C390.892 58 389.892 59.1 388.892 60.2C383.892 65.4 378.192 67.9 372.692 65.3C365.492 62.2 364.492 49.9 368.092 38.5C370.292 31.7 373.792 25.3 378.092 21.6C381.292 18.9 384.992 17.7 388.792 18.1C389.292 18.1 389.692 18.2 390.192 18.3C391.892 15.9 394.892 14.9 397.692 15.9C400.392 16.8 402.192 19.5 401.992 22.4ZM388.492 42.2C389.192 39.2 389.492 36.2 389.492 33.2C389.492 32.3 389.392 31.3 389.392 30.3C389.392 30.1 389.392 30 389.292 29.8C389.192 28.6 388.892 26.7 387.392 26.4C385.392 26 383.492 27.1 381.692 28.8C378.692 31.6 375.992 35.8 374.292 40.3C372.292 45.8 371.292 51.7 372.492 55.9C372.992 57.7 373.892 59.2 375.392 59.7C376.792 60.2 378.092 59.8 379.292 59.1C381.392 57.8 383.192 55.3 384.692 52.4C386.392 49.2 387.692 45.7 388.492 42.2ZM417.396 61.9C417.496 65.4 414.696 68.3 411.096 68.4C407.596 68.5 404.596 65.8 404.496 62.3C405.396 58.3 405.896 56.3 406.096 54.6C406.396 51.6 406.296 50.7 406.396 47C406.496 45.7 406.396 44.1 406.396 42C406.096 40 405.996 36.5 405.596 32.9C405.196 30 404.696 27.2 403.996 24.4C403.896 20.9 406.696 18 410.296 17.9C413.896 17.8 416.896 20.6 416.896 24.1C416.396 27.2 414.796 32.4 413.696 36.9C413.196 39 412.896 40.9 412.796 42.1C412.696 43.2 412.596 44.2 412.596 45.1C412.596 46 412.696 47 412.896 47.9C413.496 50.8 413.996 51.5 415.096 54.6C415.696 56.3 416.396 58.4 417.396 61.9ZM410.696 14.5C407.196 14.7 402.896 12.9 403.396 6.5C403.596 2.99999 406.296 0.0999961 409.896 0.0999961C413.396 0.199995 416.296 2.99999 416.396 6.5C416.496 11 414.396 14.3 410.696 14.5ZM453.329 49.5C453.729 58.1 454.029 66.7 454.629 71.8C454.629 74.1 453.429 76.3 451.429 77.4C449.429 78.6 446.929 78.7 444.929 77.5C442.929 76.4 441.629 74.2 441.629 71.9C442.029 67.8 443.229 61.6 444.129 54.8C444.929 49.3 445.629 43.5 445.629 38.4C445.629 33.9 445.229 29.9 443.929 27.4C443.429 26.5 442.829 25.9 442.029 25.8C441.329 25.7 440.529 26 439.629 26.5C438.929 26.8 438.529 27.8 438.029 28.9C436.729 31.6 435.729 35.4 434.929 39.4C433.029 48.8 432.529 59.6 433.129 62.7C433.329 66.3 430.729 69.5 427.229 69.9C423.629 70.3 420.329 67.8 419.829 64.2C419.929 63.8 420.029 63.2 420.229 62.5C420.429 60.6 420.929 57.7 421.629 54.3C421.829 52.7 422.129 51.1 422.229 49.4C422.429 47.6 422.629 45.9 422.629 44.3C422.729 42.3 422.629 40.5 422.629 39C422.629 38.4 422.029 34.7 421.229 30.7C420.629 27.3 419.829 24 419.329 21.8C419.129 20.7 419.029 19.6 419.129 18.5C419.529 16.2 421.229 14.4 423.429 13.6C425.629 12.9 428.029 13.4 429.729 14.9C431.529 16.4 432.329 18.8 431.829 21.1C431.829 20.9 431.829 20.8 431.729 20.7V20.8C431.429 22.2 430.929 24.9 430.529 27.8C432.529 24 434.729 21.2 436.829 20.4C440.129 19 442.729 19.1 444.829 20.1C447.029 21.1 448.729 23.1 449.929 26C450.829 28 451.429 30.5 451.829 33.3C452.729 38 453.029 43.8 453.329 49.5ZM492.443 60.2C492.543 60.9 492.443 61.4 492.443 61.6C492.643 63.7 491.243 64.8 490.643 65.5C490.143 66.2 489.343 66.4 488.643 66.8C487.343 67.5 485.143 67.5 482.243 65.4C482.143 65.3 482.143 65.2 482.043 65.1C481.243 64.5 480.543 63.7 480.043 62.8C479.643 62.4 479.343 62 479.543 61.7C479.343 61.5 479.243 61.2 479.043 60.9C477.343 61.8 474.943 62.6 473.443 63.7C467.643 68.3 463.443 68.4 460.843 66.9C458.643 65.5 457.043 62.8 456.543 58.9C455.543 50.4 459.743 37 466.643 34.5C472.143 32.1 476.443 33.5 479.843 36C481.043 36.9 482.143 38 483.043 39.2C483.143 38.5 483.243 37.7 483.343 37C483.543 35.2 483.643 33.4 483.643 31.6C483.543 28.8 482.943 26.2 481.643 24.4C481.343 23.9 480.643 24.2 480.043 24.2C479.343 24.2 478.543 24.5 477.743 24.8C475.843 25.4 473.843 26.6 471.843 28C469.843 29.3 468.143 31 466.443 32.6C463.543 34.7 459.443 34.1 457.343 31.2C455.243 28.3 455.843 24.2 458.743 22.1C461.943 20.4 465.243 18.8 468.643 17.7C471.243 16.9 473.643 16.2 475.943 16C478.743 15.7 481.243 15.8 483.243 16.7C485.143 17.5 486.843 18.6 487.843 20.5C489.143 22.9 489.743 25.8 489.843 29C489.843 31.3 489.743 33.7 489.643 36.1C489.443 39.6 489.443 43.1 489.643 45.7C489.943 48 490.243 51.5 490.843 54.8C490.843 55 490.843 55.2 490.943 55.3C491.143 55.8 491.343 56.3 491.543 56.8L491.743 57.1V57.2C491.943 57.5 492.043 57.9 492.143 58.3C492.343 58.9 492.443 59.5 492.443 60.2ZM476.143 49C476.343 48.9 476.543 48.7 476.843 48.6C476.443 47.2 475.843 45.8 475.143 44.5C473.943 42.4 472.143 40.7 469.043 41.6C465.243 42.7 462.843 49.4 462.643 54.8C462.443 57.5 462.643 59.9 464.043 60.8C464.243 60.9 464.343 60.5 464.643 60.4C465.643 59.9 466.643 59 467.943 57.6C470.743 54.5 473.543 50.8 476.143 49Z" fill="#EFEFFF"/>
</svg>
