<svg width="701" height="162" viewBox="0 0 701 162" fill="none" xmlns="http://www.w3.org/2000/svg">
<path d="M66.8412 86.4803C70.77 89.827 71.4975 95.6474 68.1508 99.7216C62.185 105.978 54.764 110.635 46.9066 110.926C39.6311 111.217 31.7737 109.034 25.2258 100.74C17.0773 90.8456 13.5851 76.1492 14.6036 61.7439C14.8947 56.069 15.9132 50.3942 17.5138 45.0104C21.8791 30.4595 31.3371 19.5464 45.888 18.3823C54.9095 17.3637 60.1478 21.438 63.4945 26.5308C67.8598 33.3697 67.7143 43.9918 66.1137 51.9948C65.9682 53.3044 64.3676 58.2516 63.64 61.0163C63.4945 61.3073 63.349 61.7439 63.349 62.1804C63.2035 62.1804 63.2035 62.3259 63.2035 62.3259C62.3305 65.0905 60.1478 67.2732 57.3832 68.2917C54.473 69.0193 51.9994 69.0193 49.9622 67.7097C48.6527 66.8367 47.0521 65.9636 46.179 64.072C45.7425 63.1989 44.1419 61.1618 44.8694 58.1061C45.0149 57.3786 45.1604 56.7966 45.306 56.2145C45.4515 56.069 45.597 55.487 45.888 54.9049C46.9066 53.0133 49.3802 48.3571 49.8167 47.3385C51.2718 43.7008 52.7269 38.899 51.9994 34.9703C51.7083 33.6607 51.5628 32.3511 50.5443 31.4781C49.3802 30.605 47.7796 30.1685 46.3245 30.1685C38.7581 30.023 32.9377 34.0972 29.3 40.4996C26.6809 44.8649 24.9348 49.9577 24.3527 55.487C22.7521 68.5828 26.5353 83.2791 35.1204 91.5731C38.4671 94.7743 41.8138 95.5018 45.0149 94.9198C48.5071 94.1923 51.2718 91.1366 53.4544 87.7899C56.8011 83.7157 62.767 83.1336 66.8412 86.4803ZM118.865 73.0935C121.921 83.5701 119.302 96.8114 112.754 105.105C107.806 111.362 100.822 115.291 91.364 113.254C78.7047 111.217 72.7389 98.412 72.1568 84.8797C71.7203 76.0037 74.0484 66.9822 77.6862 60.5798C80.4508 55.778 84.3796 52.8678 88.5993 51.1217C95.5837 49.5211 101.841 50.5397 106.933 54.6139C112.463 58.8337 116.973 65.6726 118.865 73.0935ZM107.37 96.3749C109.844 90.5546 109.553 83.1336 106.933 77.4588C104.751 72.657 99.8035 66.5456 94.4197 68.7283C87.5807 71.4929 84.9616 82.6971 85.2526 89.245C85.5436 94.7743 87.1442 102.195 93.5466 103.941C97.3298 104.814 100.677 104.232 103.15 102.341C105.042 100.886 106.351 98.703 107.37 96.3749ZM194.527 58.3972C196.855 75.4217 195.837 104.669 196.855 119.802C196.855 124.895 192.636 129.26 187.543 129.26C182.305 129.26 177.939 125.186 177.939 119.947C178.667 103.068 184.196 68.1462 181.577 53.5954C181.286 54.0319 180.849 54.4684 180.558 54.9049C177.939 59.9977 175.466 67.7097 173.574 75.8582C171.1 87.7899 169.791 100.595 169.791 108.307C169.936 115.146 161.351 111.217 161.06 110.78C160.769 110.053 160.624 109.471 160.478 108.743C160.478 107.87 160.187 104.523 160.187 103.214C159.896 99.1396 159.605 70.1833 155.531 57.6696C155.385 57.8151 155.24 58.1061 155.094 58.2516C152.184 62.7624 149.711 69.8923 147.528 77.1678C146.364 81.6785 145.2 86.1893 144.181 90.7001C143.599 93.6102 142.872 96.3749 142.435 99.2851C141.999 102.195 142.144 105.105 141.417 107.87C140.544 111.653 137.633 114.709 133.705 115.291C128.466 116.019 123.665 112.381 123.083 107.143C122.937 106.415 123.083 103.65 123.956 99.7216C124.392 97.83 125.12 95.3563 125.847 92.5917C125.847 92.4462 125.847 92.1552 125.993 92.0096C126.575 87.6444 126.72 83.2791 127.011 80.5145C126.866 80.0779 126.866 78.1863 126.575 75.4217C126.284 73.0935 125.847 70.3289 125.265 67.4187C123.665 59.1247 121.191 50.2487 120.609 47.6295C120.463 42.3912 124.538 38.1715 129.776 38.0259C135.014 37.8804 139.38 41.9547 139.38 47.193C139.089 49.2301 137.924 55.3415 136.906 61.8894C137.342 61.1618 137.779 60.2888 138.07 59.5612C141.126 53.7409 144.327 48.9391 147.528 46.3199C151.166 43.2643 154.949 42.1002 158.587 42.9732C160.769 43.4098 162.661 44.7193 164.116 46.4655C165.717 48.6481 167.317 52.5768 168.19 57.5241L168.336 58.6882C168.772 56.9421 169.354 55.196 169.936 53.7409C171.537 49.3756 173.574 45.8834 175.466 43.8463C177.648 41.3726 180.267 40.3541 182.741 40.2086C185.506 40.0631 187.834 41.3726 189.871 43.8463C191.908 46.3199 193.509 51.5583 194.527 58.3972ZM246.754 73.0935C249.809 83.5701 247.19 96.8114 240.642 105.105C235.695 111.362 228.71 115.291 219.252 113.254C206.593 111.217 200.627 98.412 200.045 84.8797C199.609 76.0037 201.937 66.9822 205.575 60.5798C208.339 55.778 212.268 52.8678 216.488 51.1217C223.472 49.5211 229.729 50.5397 234.822 54.6139C240.351 58.8337 244.862 65.6726 246.754 73.0935ZM235.258 96.3749C237.732 90.5546 237.441 83.1336 234.822 77.4588C232.639 72.657 227.692 66.5456 222.308 68.7283C215.469 71.4929 212.85 82.6971 213.141 89.245C213.432 94.7743 215.033 102.195 221.435 103.941C225.218 104.814 228.565 104.232 231.039 102.341C232.93 100.886 234.24 98.703 235.258 96.3749ZM350.054 16.0542C355.293 16.6362 358.93 21.438 358.203 26.5308C357.621 31.7691 352.965 35.4068 347.726 34.8248C337.395 32.4966 330.993 31.0415 326.627 32.7876C323.572 33.9517 322.408 36.8619 321.389 41.3726C320.662 44.7193 320.08 49.0846 319.498 54.0319C320.807 54.1774 322.117 54.1774 323.426 54.1774C324.299 54.1774 325.027 54.1774 325.9 54.0319C328.519 53.5954 330.993 53.1588 333.466 52.7223C338.85 51.4127 342.633 50.2487 344.962 49.8121C348.454 50.1032 351.364 52.1403 352.819 55.196C354.274 58.2516 353.983 61.7439 351.946 64.654C350.054 67.4187 346.853 68.8738 343.361 68.5828C341.033 67.7097 336.668 65.5271 330.411 63.9265C328.665 63.49 326.919 63.1989 325.027 63.0534C323.863 63.0534 322.699 63.0534 321.535 63.1989C320.516 63.3444 319.643 63.3444 318.77 63.49C318.77 64.363 318.77 65.0905 318.77 65.8181C318.479 71.0564 318.333 76.7312 318.479 82.5516C318.916 90.9911 319.643 99.5761 320.516 107.725C322.262 123.294 324.736 137.117 326.045 145.411C326.336 148.758 324.736 151.959 321.971 153.851C319.061 155.742 315.569 156.033 312.513 154.433C309.457 152.978 307.42 149.922 307.275 146.575C307.42 140.318 308.002 130.86 308.439 119.947C308.73 111.508 309.166 102.486 309.457 93.3192C309.457 86.0438 309.603 78.9139 309.457 72.075C309.457 70.1833 309.457 68.2917 309.312 66.4001C306.402 67.7097 303.637 71.0564 300.581 71.4929C296.507 72.075 292.433 70.1833 290.541 66.5456C288.068 61.8894 289.959 56.2145 294.47 53.7409C298.253 53.0133 303.055 52.5768 309.166 53.1588C309.021 47.775 309.166 43.1188 309.457 39.481C310.331 29.1499 313.968 23.3296 320.371 19.6919C326.045 16.3452 335.212 15.4721 350.054 16.0542ZM407.184 108.307C407.911 113.399 404.564 118.201 399.326 119.074C394.233 119.947 389.432 116.601 388.558 111.508C388.704 106.415 388.995 101.613 389.286 97.248C388.267 99.2851 387.103 101.322 385.794 103.214C381.429 111.362 374.59 112.526 368.624 110.489C363.24 108.452 358.438 103.214 356.983 96.2294C355.237 89.3905 354.946 83.7157 355.091 77.7498C355.091 70.7654 355.819 63.1989 356.256 51.7038C356.983 46.611 361.785 42.9732 366.878 43.7008C372.116 44.4283 375.608 49.2301 374.881 54.3229C372.261 65.3816 369.933 72.366 368.624 79.0594C367.46 84.1522 367.169 89.3905 367.605 94.6288C367.896 97.83 369.497 100.74 371.97 101.759C374.008 102.632 376.336 101.759 377.936 98.8485C380.992 92.1552 383.029 84.4432 384.048 76.4402C384.921 68.4372 384.484 60.5798 383.611 53.3044C383.902 48.066 388.267 43.8463 393.506 43.8463C398.89 43.7008 403.4 47.775 403.837 53.0133C403.109 56.2145 400.927 61.5983 399.617 70.0378C399.181 72.2205 398.89 74.5486 398.89 76.7312C398.89 78.3318 398.89 79.7869 399.035 81.242C399.617 85.0252 400.345 88.6629 401.363 92.3007C402.818 97.539 404.855 102.486 407.184 108.307ZM458.839 90.9911C459.421 103.505 459.858 116.019 460.731 123.439C460.731 126.786 458.985 129.987 456.074 131.588C453.164 133.334 449.527 133.48 446.616 131.733C443.706 130.133 441.815 126.932 441.815 123.585C442.397 117.619 444.143 108.598 445.452 98.703C446.616 90.7001 447.635 82.2606 447.635 74.8396C447.635 68.2917 447.053 62.4714 445.161 58.8337C444.434 57.5241 443.561 56.6511 442.397 56.5055C441.378 56.36 440.214 56.7966 438.904 57.5241C437.886 57.9606 437.304 59.4157 436.576 61.0163C434.685 64.945 433.23 70.4744 432.066 76.2947C429.301 89.9725 428.573 105.687 429.446 110.198C429.737 115.437 425.954 120.093 420.861 120.675C415.623 121.257 410.821 117.619 410.094 112.381C410.239 111.799 410.385 110.926 410.676 109.907C410.967 107.143 411.694 102.923 412.713 97.9755C413.004 95.6474 413.44 93.3192 413.586 90.8456C413.877 88.2264 414.168 85.7528 414.168 83.4246C414.313 80.5145 414.168 77.8953 414.168 75.7127C414.168 74.8396 413.295 69.4558 412.131 63.6355C411.258 58.6882 410.094 53.8864 409.366 50.6852C409.075 49.0846 408.93 47.484 409.075 45.8834C409.657 42.5367 412.131 39.9176 415.332 38.7535C418.533 37.7349 422.025 38.4625 424.499 40.6451C427.118 42.8277 428.282 46.3199 427.555 49.6666C427.555 49.3756 427.555 49.2301 427.409 49.0846V49.2301C426.973 51.2672 426.245 55.196 425.663 59.4157C428.573 53.8864 431.774 49.8121 434.83 48.6481C439.632 46.611 443.415 46.7565 446.471 48.2116C449.672 49.6666 452.146 52.5768 453.892 56.7966C455.201 59.7067 456.074 63.3444 456.656 67.4187C457.966 74.2576 458.403 82.6971 458.839 90.9911ZM507.75 98.2665C509.788 103.214 507.459 108.598 502.658 110.635C493.2 113.254 485.488 112.817 479.231 109.762C471.519 105.978 465.989 99.7216 464.243 92.4462C462.934 88.0809 462.352 83.4246 462.497 78.9139C462.497 73.8211 463.225 69.0193 464.825 64.945C467.445 58.1061 472.392 53.1588 479.085 50.5397C488.98 46.611 496.983 50.9762 502.512 57.6696C507.314 63.781 508.915 72.8025 507.314 81.533C505.859 86.4803 500.621 89.245 495.673 87.7899C490.58 86.3348 487.816 81.0965 489.271 76.0037C490.726 72.657 491.453 68.7283 489.853 65.8181C488.543 63.0534 486.07 60.8708 482.432 61.5983C477.339 62.7624 473.701 66.5456 472.246 71.7839C471.373 74.5486 471.228 77.6043 471.519 80.5145C471.81 83.2791 472.828 86.1893 473.992 89.0995C475.739 92.7372 479.231 95.5018 483.742 96.5204C487.234 97.248 491.017 95.7929 495.382 93.1737C500.184 91.2821 505.713 93.4647 507.75 98.2665ZM530.322 109.034C530.468 114.127 526.394 118.347 521.155 118.492C516.063 118.638 511.697 114.709 511.552 109.616C512.861 103.796 513.589 100.886 513.88 98.412C514.317 94.0468 514.171 92.7372 514.317 87.3534C514.462 85.4618 514.317 83.1336 514.317 80.0779C513.88 77.1678 513.734 72.075 513.152 66.8367C512.57 62.6169 511.843 58.5427 510.824 54.4684C510.679 49.3756 514.753 45.1559 519.991 45.0104C525.23 44.8649 529.595 48.9391 529.595 54.0319C528.867 58.5427 526.539 66.1091 524.939 72.657C524.211 75.7127 523.775 78.4773 523.629 80.2234C523.484 81.824 523.338 83.2791 523.338 84.5887C523.338 85.8983 523.484 87.3534 523.775 88.6629C524.648 92.8827 525.375 93.9013 526.976 98.412C527.849 100.886 528.867 103.941 530.322 109.034ZM520.573 40.0631C515.481 40.3541 509.224 37.7349 509.951 28.4224C510.242 23.3296 514.171 19.1098 519.409 19.1098C524.502 19.2553 528.722 23.3296 528.867 28.4224C529.013 34.9703 525.957 39.7721 520.573 40.0631ZM577.558 73.0935C580.614 83.5701 577.995 96.8114 571.447 105.105C566.5 111.362 559.515 115.291 550.057 113.254C537.398 111.217 531.432 98.412 530.85 84.8797C530.413 76.0037 532.742 66.9822 536.379 60.5798C539.144 55.778 543.073 52.8678 547.292 51.1217C554.277 49.5211 560.534 50.5397 565.626 54.6139C571.156 58.8337 575.667 65.6726 577.558 73.0935ZM566.063 96.3749C568.537 90.5546 568.246 83.1336 565.626 77.4588C563.444 72.657 558.497 66.5456 553.113 68.7283C546.274 71.4929 543.655 82.6971 543.946 89.245C544.237 94.7743 545.837 102.195 552.24 103.941C556.023 104.814 559.37 104.232 561.843 102.341C563.735 100.886 565.044 98.703 566.063 96.3749ZM629.357 90.9911C629.939 103.505 630.376 116.019 631.249 123.439C631.249 126.786 629.502 129.987 626.592 131.588C623.682 133.334 620.044 133.48 617.134 131.733C614.224 130.133 612.332 126.932 612.332 123.585C612.914 117.619 614.661 108.598 615.97 98.703C617.134 90.7001 618.153 82.2606 618.153 74.8396C618.153 68.2917 617.571 62.4714 615.679 58.8337C614.952 57.5241 614.079 56.6511 612.914 56.5055C611.896 56.36 610.732 56.7966 609.422 57.5241C608.404 57.9606 607.822 59.4157 607.094 61.0163C605.203 64.945 603.747 70.4744 602.583 76.2947C599.819 89.9725 599.091 105.687 599.964 110.198C600.255 115.437 596.472 120.093 591.379 120.675C586.141 121.257 581.339 117.619 580.612 112.381C580.757 111.799 580.903 110.926 581.194 109.907C581.485 107.143 582.212 102.923 583.231 97.9755C583.522 95.6474 583.958 93.3192 584.104 90.8456C584.395 88.2264 584.686 85.7528 584.686 83.4246C584.831 80.5145 584.686 77.8953 584.686 75.7127C584.686 74.8396 583.813 69.4558 582.649 63.6355C581.776 58.6882 580.612 53.8864 579.884 50.6852C579.593 49.0846 579.448 47.484 579.593 45.8834C580.175 42.5367 582.649 39.9176 585.85 38.7535C589.051 37.7349 592.543 38.4625 595.017 40.6451C597.636 42.8277 598.8 46.3199 598.073 49.6666C598.073 49.3756 598.073 49.2301 597.927 49.0846V49.2301C597.491 51.2672 596.763 55.196 596.181 59.4157C599.091 53.8864 602.292 49.8121 605.348 48.6481C610.15 46.611 613.933 46.7565 616.989 48.2116C620.19 49.6666 622.664 52.5768 624.41 56.7966C625.719 59.7067 626.592 63.3444 627.174 67.4187C628.484 74.2576 628.92 82.6971 629.357 90.9911ZM686.271 106.561C686.417 107.579 686.271 108.307 686.271 108.598C686.562 111.653 684.525 113.254 683.652 114.272C682.925 115.291 681.761 115.582 680.742 116.164C678.85 117.183 675.649 117.183 671.429 114.127C671.284 113.981 671.284 113.836 671.138 113.69C669.974 112.817 668.956 111.653 668.228 110.344C667.646 109.762 667.21 109.18 667.501 108.743C667.21 108.452 667.064 108.016 666.773 107.579C664.299 108.889 660.807 110.053 658.625 111.653C650.185 118.347 644.074 118.492 640.291 116.31C637.089 114.272 634.761 110.344 634.034 104.669C632.579 92.3007 638.69 72.8025 648.73 69.1648C656.733 65.6726 662.99 67.7097 667.937 71.3474C669.683 72.657 671.284 74.2576 672.593 76.0037C672.739 74.9851 672.884 73.8211 673.03 72.8025C673.321 70.1833 673.467 67.5642 673.467 64.945C673.321 60.8708 672.448 57.0876 670.556 54.4684C670.12 53.7409 669.101 54.1774 668.228 54.1774C667.21 54.1774 666.046 54.6139 664.882 55.0505C662.117 55.9235 659.207 57.6696 656.297 59.7067C653.386 61.5983 650.913 64.072 648.439 66.4001C644.219 69.4558 638.253 68.5828 635.198 64.363C632.142 60.1433 633.015 54.1774 637.235 51.1217C641.891 48.6481 646.693 46.3199 651.64 44.7193C655.423 43.5553 658.916 42.5367 662.262 42.2457C666.337 41.8092 669.974 41.9547 672.884 43.2643C675.649 44.4283 678.123 46.0289 679.578 48.7936C681.47 52.2858 682.343 56.5055 682.488 61.1618C682.488 64.5085 682.343 68.0007 682.197 71.4929C681.906 76.5857 681.906 81.6785 682.197 85.4618C682.634 88.8085 683.07 93.9013 683.943 98.703C683.943 98.9941 683.943 99.2851 684.089 99.4306C684.38 100.158 684.671 100.886 684.962 101.613L685.253 102.05V102.195C685.544 102.632 685.689 103.214 685.835 103.796C686.126 104.669 686.271 105.542 686.271 106.561ZM662.553 90.2635C662.844 90.118 663.135 89.827 663.572 89.6815C662.99 87.6444 662.117 85.6073 661.098 83.7157C659.352 80.66 656.733 78.1863 652.222 79.4959C646.693 81.0965 643.201 90.8456 642.91 98.703C642.619 102.632 642.91 106.124 644.947 107.434C645.238 107.579 645.383 106.997 645.82 106.852C647.275 106.124 648.73 104.814 650.622 102.777C654.696 98.2665 658.77 92.8827 662.553 90.2635Z" fill="#EFEFFF"/>
</svg>
