<svg width="722" height="226" viewBox="0 0 722 226" fill="none" xmlns="http://www.w3.org/2000/svg">
<g filter="url(#filter0_d_744_77)">
<path d="M102.62 72.3249C101.118 84.0919 100.117 96.3597 99.3657 108.878C99.1153 113.885 99.1153 118.642 99.1153 123.399C99.1153 126.153 99.3657 128.907 99.3657 131.411V131.661C99.616 133.163 99.8664 134.415 99.616 135.917C99.8664 139.172 100.117 142.427 100.367 145.431C101.118 155.696 102.37 164.959 103.121 172.971C105.124 187.492 106.877 197.256 107.127 198.508C108.128 207.271 101.869 215.533 92.8562 216.534C84.0935 217.536 75.8315 211.277 74.83 202.263C74.83 200.261 77.584 181.984 80.5884 156.948C76.3322 164.459 71.8257 171.218 66.8184 176.977C54.0499 191.247 39.5288 198.007 25.5085 190.997C6.98157 182.485 4.22757 148.686 13.491 117.14C18.999 98.3626 28.2625 80.8372 39.0281 70.8227C47.2901 63.3118 56.8039 60.0571 66.568 60.8081C72.3264 61.3089 77.584 63.5621 82.0906 67.3176C80.5884 44.7849 78.8359 25.7573 78.5855 15.7427C79.3366 6.72966 87.3482 0.220205 96.3613 0.9713C105.124 1.72238 111.884 9.73401 110.882 18.7471C108.879 28.7616 105.124 48.7907 102.62 72.3249ZM66.568 122.398C68.3206 112.383 70.0731 99.8648 67.5695 89.8503C64.5651 79.0847 53.5492 85.0934 48.2915 90.351C40.5303 98.1123 33.7704 109.629 29.5143 122.147C24.2566 137.419 21.753 153.693 24.7574 165.21C26.0092 170.217 28.5128 173.972 32.2683 175.725C35.7734 176.977 39.0281 175.975 42.2828 173.972C47.5404 170.217 52.047 163.457 56.0528 155.445C61.3104 145.181 64.5651 133.664 66.568 122.398ZM210.333 147.684C217.344 153.192 218.595 163.457 213.087 170.467C195.562 188.994 177.536 196.255 161.763 195.253C152.499 194.502 143.987 191.748 136.977 186.491C126.962 178.98 119.451 167.213 116.948 152.441C111.44 149.437 108.185 143.678 108.686 137.169C108.936 130.91 112.942 125.402 118.951 123.149C119.451 120.395 120.453 117.891 121.454 115.137C123.708 108.628 126.462 102.368 131.219 96.1094C134.974 91.1021 139.981 86.0948 147.242 81.3379C166.77 68.319 187.55 74.8285 196.814 87.597C205.576 99.6145 205.576 118.642 183.795 138.17C175.282 145.681 165.518 150.939 154.753 154.194C149.245 155.696 143.486 156.447 137.728 156.447C140.232 161.454 143.987 165.46 148.744 168.214C160.261 174.723 175.282 168.715 187.55 150.438C193.058 143.428 203.323 142.176 210.333 147.684ZM134.724 124.901C139.23 126.403 143.987 126.904 148.494 126.153C155.754 125.152 162.514 122.648 168.272 118.642C179.038 111.131 183.544 104.121 180.29 98.3626C176.284 91.8532 166.019 89.5999 155.754 95.3583C150.246 98.613 146.24 101.868 143.486 105.623C139.731 110.13 137.728 115.137 135.975 120.144C135.475 121.646 135.224 123.399 134.724 124.901ZM243.798 71.3234C242.296 81.8387 241.294 93.105 240.794 104.622C240.543 109.128 240.543 113.635 240.794 117.891C241.044 124.901 241.795 131.411 242.546 137.92C243.548 146.933 245.05 155.195 246.302 162.706C248.054 172.22 250.307 180.231 252.06 186.24C253.312 195.253 247.053 203.265 238.04 204.517C229.277 205.769 221.015 199.259 220.013 190.496C220.013 178.479 222.267 159.702 224.019 138.421C224.52 131.661 225.021 124.901 225.271 118.141C225.521 113.635 225.271 109.128 225.271 104.622C224.77 93.105 224.27 81.5883 223.518 70.8227C222.016 48.5403 220.514 29.7631 220.764 18.4967C222.016 9.73401 230.278 3.47493 239.041 4.72675C248.054 5.97856 254.063 14.2406 252.811 23.0033C248.805 39.0265 245.801 55.0498 243.798 71.3234ZM355.075 147.684C362.085 153.192 363.337 163.457 357.829 170.467C340.303 188.994 322.277 196.255 306.504 195.253C297.241 194.502 288.728 191.748 281.718 186.491C271.704 178.98 264.193 167.213 261.689 152.441C256.181 149.437 252.926 143.678 253.427 137.169C253.677 130.91 257.683 125.402 263.692 123.149C264.193 120.395 265.194 117.891 266.196 115.137C268.449 108.628 271.203 102.368 275.96 96.1094C279.715 91.1021 284.723 86.0948 291.983 81.3379C311.511 68.319 332.292 74.8285 341.555 87.597C350.318 99.6145 350.318 118.642 328.536 138.17C320.024 145.681 310.26 150.939 299.494 154.194C293.986 155.696 288.228 156.447 282.469 156.447C284.973 161.454 288.728 165.46 293.485 168.214C305.002 174.723 320.024 168.715 332.292 150.438C337.8 143.428 348.064 142.176 355.075 147.684ZM279.465 124.901C283.971 126.403 288.728 126.904 293.235 126.153C300.495 125.152 307.255 122.648 313.014 118.642C323.779 111.131 328.286 104.121 325.031 98.3626C321.025 91.8532 310.76 89.5999 300.495 95.3583C294.987 98.613 290.982 101.868 288.228 105.623C284.472 110.13 282.469 115.137 280.717 120.144C280.216 121.646 279.966 123.399 279.465 124.901ZM421.397 168.214C430.16 168.965 436.92 176.726 436.169 185.739C435.668 194.502 427.907 201.262 418.894 200.761C406.125 197.757 395.86 192.249 389.101 181.233C382.842 170.718 379.086 156.447 377.584 136.668C377.083 131.16 376.332 125.152 376.082 118.642C375.08 109.379 374.58 98.8634 374.079 88.3481C373.828 83.5912 373.578 78.8343 373.328 74.3278C367.319 76.0803 364.064 77.3321 363.313 77.5825C354.3 78.3336 346.539 71.8241 345.788 62.811C345.037 53.798 351.546 46.0367 360.559 45.2856C361.561 45.536 365.316 46.7878 372.326 48.5403C372.326 46.5374 372.076 45.0353 372.076 43.2827C372.076 41.2798 371.325 39.0265 371.325 36.7733C371.575 35.0207 371.826 33.0178 372.577 31.2653C373.828 27.5098 376.332 24.5055 379.587 22.7529C383.843 20.2493 391.104 19.2478 395.36 22.2522C396.111 22.7529 406.376 27.0091 403.872 38.5258C403.622 39.7776 403.121 42.5316 402.37 46.2871C402.12 47.0382 401.869 47.7892 401.619 48.7907C403.371 47.7892 404.874 47.0382 406.376 46.2871C410.131 44.0338 412.635 41.7805 415.639 39.7776C421.397 38.0251 427.406 39.5273 431.412 43.7834C435.668 47.7892 437.421 53.798 435.919 59.306C434.416 65.0643 430.16 69.3205 424.402 71.073C418.643 70.8227 413.386 70.322 406.125 69.5709C403.371 69.3205 400.367 69.3205 397.363 69.0701C395.86 75.3292 394.859 82.3394 393.858 89.3496C392.606 98.8634 391.855 108.377 391.604 117.891C391.855 123.649 392.355 128.907 393.106 133.914C394.358 141.425 396.862 148.686 400.367 155.445C403.371 161.705 407.878 165.71 412.635 167.964C415.138 169.466 418.143 168.464 421.397 168.214ZM528.723 178.479C528.974 180.231 528.723 181.483 528.723 181.984C529.224 187.242 525.719 189.996 524.217 191.748C522.965 193.501 520.962 194.001 519.209 195.003C515.955 196.755 510.447 196.755 503.186 191.498C502.936 191.247 502.936 190.997 502.685 190.747C500.682 189.245 498.93 187.242 497.678 184.988C496.677 183.987 495.926 182.985 496.426 182.234C495.926 181.734 495.675 180.983 495.174 180.231C490.918 182.485 484.91 184.488 481.154 187.242C466.633 198.758 456.118 199.009 449.608 195.253C444.1 191.748 440.095 184.988 438.843 175.224C436.339 153.943 446.854 120.395 464.129 114.136C477.899 108.127 488.665 111.632 497.177 117.891C500.182 120.144 502.936 122.898 505.189 125.903C505.439 124.15 505.69 122.147 505.94 120.395C506.441 115.888 506.691 111.382 506.691 106.875C506.441 99.8648 504.939 93.3554 501.684 88.8488C500.933 87.597 499.18 88.3481 497.678 88.3481C495.926 88.3481 493.923 89.0992 491.92 89.8503C487.163 91.3525 482.156 94.3568 477.148 97.8619C472.141 101.117 467.885 105.373 463.629 109.379C456.368 114.636 446.103 113.134 440.846 105.874C435.588 98.613 437.09 88.3481 444.351 83.0905C452.362 78.8343 460.624 74.8285 469.137 72.0745C475.646 70.0716 481.655 68.319 487.413 67.8183C494.423 67.0672 500.682 67.3176 505.69 69.5709C510.447 71.5738 514.703 74.3278 517.206 79.0847C520.461 85.0934 521.963 92.3539 522.214 100.366C522.214 106.124 521.963 112.133 521.713 118.141C521.212 126.904 521.212 135.667 521.713 142.176C522.464 147.935 523.215 156.697 524.717 164.959C524.717 165.46 524.717 165.961 524.968 166.211C525.468 167.463 525.969 168.715 526.47 169.967L526.971 170.718V170.968C527.471 171.719 527.722 172.721 527.972 173.722C528.473 175.224 528.723 176.726 528.723 178.479ZM487.914 150.438C488.415 150.188 488.915 149.687 489.666 149.437C488.665 145.932 487.163 142.427 485.41 139.172C482.406 133.914 477.899 129.658 470.138 131.911C460.624 134.665 454.616 151.44 454.115 164.959C453.614 171.719 454.115 177.728 457.62 179.981C458.121 180.231 458.371 179.23 459.122 178.98C461.626 177.728 464.129 175.475 467.384 171.969C474.394 164.208 481.405 154.945 487.914 150.438ZM626.33 72.3249C624.827 84.0919 623.826 96.3597 623.075 108.878C622.825 113.885 622.825 118.642 622.825 123.399C622.825 126.153 623.075 128.907 623.075 131.411V131.661C623.325 133.163 623.576 134.415 623.325 135.917C623.576 139.172 623.826 142.427 624.076 145.431C624.827 155.696 626.079 164.959 626.83 172.971C628.833 187.492 630.586 197.256 630.836 198.508C631.838 207.271 625.579 215.533 616.565 216.534C607.803 217.536 599.541 211.277 598.539 202.263C598.539 200.261 601.293 181.984 604.298 156.948C600.042 164.459 595.535 171.218 590.528 176.977C577.759 191.247 563.238 198.007 549.218 190.997C530.691 182.485 527.937 148.686 537.2 117.14C542.708 98.3626 551.972 80.8372 562.737 70.8227C570.999 63.3118 580.513 60.0571 590.277 60.8081C596.036 61.3089 601.293 63.5621 605.8 67.3176C604.298 44.7849 602.545 25.7573 602.295 15.7427C603.046 6.72966 611.057 0.220205 620.071 0.9713C628.833 1.72238 635.593 9.73401 634.592 18.7471C632.589 28.7616 628.833 48.7907 626.33 72.3249ZM590.277 122.398C592.03 112.383 593.782 99.8648 591.279 89.8503C588.274 79.0847 577.258 85.0934 572.001 90.351C564.24 98.1123 557.48 109.629 553.224 122.147C547.966 137.419 545.462 153.693 548.467 165.21C549.718 170.217 552.222 173.972 555.978 175.725C559.483 176.977 562.737 175.975 565.992 173.972C571.25 170.217 575.756 163.457 579.762 155.445C585.02 145.181 588.274 133.664 590.277 122.398ZM712.081 120.895C717.339 138.922 712.832 161.705 701.566 175.975C693.053 186.741 681.036 193.501 664.762 189.996C642.981 186.491 632.716 164.459 631.714 141.175C630.963 125.903 634.969 110.38 641.228 99.3641C645.985 91.1021 652.745 86.0948 660.006 83.0905C672.023 80.3365 682.789 82.089 691.551 89.0992C701.065 96.3597 708.826 108.127 712.081 120.895ZM692.302 160.953C696.559 150.939 696.058 138.17 691.551 128.406C687.796 120.144 679.283 109.629 670.02 113.384C658.253 118.141 653.746 137.419 654.247 148.686C654.748 158.199 657.502 170.968 668.518 173.972C675.027 175.475 680.786 174.473 685.042 171.218C688.297 168.715 690.55 164.959 692.302 160.953Z" fill="url(#paint0_linear_744_77)"/>
</g>
<defs>
<filter id="filter0_d_744_77" x="0.2276" y="0.220215" width="721.111" height="225.315" filterUnits="userSpaceOnUse" color-interpolation-filters="sRGB">
<feFlood flood-opacity="0" result="BackgroundImageFix"/>
<feColorMatrix in="SourceAlpha" type="matrix" values="0 0 0 0 0 0 0 0 0 0 0 0 0 0 0 0 0 0 127 0" result="hardAlpha"/>
<feOffset dy="4"/>
<feGaussianBlur stdDeviation="2"/>
<feComposite in2="hardAlpha" operator="out"/>
<feColorMatrix type="matrix" values="0 0 0 0 0 0 0 0 0 0 0 0 0 0 0 0 0 0 0.25 0"/>
<feBlend mode="normal" in2="BackgroundImageFix" result="effect1_dropShadow_744_77"/>
<feBlend mode="normal" in="SourceGraphic" in2="effect1_dropShadow_744_77" result="shape"/>
</filter>
<linearGradient id="paint0_linear_744_77" x1="6.5" y1="-22" x2="238.8" y2="503.264" gradientUnits="userSpaceOnUse">
<stop stop-color="#FFA7FF"/>
<stop offset="1" stop-color="#F600DD"/>
</linearGradient>
</defs>
</svg>
