<svg width="453" height="151" viewBox="0 0 453 151" fill="none" xmlns="http://www.w3.org/2000/svg">
<g filter="url(#filter0_d_698_414)">
<path d="M107.096 89.6842C114.106 95.1922 115.358 105.457 109.85 112.467C92.3243 130.994 74.2981 138.255 58.5252 137.253C49.2618 136.502 40.7494 133.748 33.7392 128.491C23.7247 120.98 16.2138 109.213 13.7102 94.4411C8.20218 91.4368 4.94746 85.6784 5.44818 79.169C5.69855 72.9099 9.70436 67.4019 15.7131 65.1486C16.2138 62.3946 17.2153 59.891 18.2167 57.137C20.47 50.6275 23.224 44.3685 27.9809 38.1094C31.7363 33.1021 36.7436 28.0948 44.0041 23.3379C63.5325 10.319 84.3126 16.8285 93.5761 29.597C102.339 41.6145 102.339 60.6421 80.5572 80.1704C72.0448 87.6813 62.2807 92.939 51.515 96.1937C46.0071 97.6959 40.2487 98.4469 34.4903 98.4469C36.994 103.454 40.7494 107.46 45.5063 110.214C57.023 116.723 72.0448 110.715 84.3126 92.4382C89.8206 85.4281 100.086 84.1762 107.096 89.6842ZM31.486 66.9012C35.9925 68.4033 40.7494 68.9041 45.256 68.153C52.5165 67.1515 59.2763 64.6479 65.0347 60.6421C75.8003 53.1312 80.3068 46.121 77.0521 40.3626C73.0463 33.8532 62.7814 31.5999 52.5165 37.3583C47.0085 40.613 43.0027 43.8677 40.2487 47.6232C36.4932 52.1297 34.4903 57.137 32.7378 62.1443C32.2371 63.6464 31.9867 65.399 31.486 66.9012ZM189.41 25.5912C195.92 29.3467 198.674 37.859 195.92 44.6188C192.916 51.3786 184.654 55.3844 177.393 53.3815C171.134 51.8794 165.876 46.6217 159.617 47.1225C156.112 47.3728 153.108 49.1254 150.855 51.8794C148.852 54.383 147.6 57.6377 146.348 60.6421C140.59 78.4179 142.843 97.6959 146.849 115.972C148.101 120.98 149.352 126.237 147.85 131.245C146.098 137.754 139.087 142.761 131.827 142.511C124.817 142.01 118.307 136.753 116.805 129.993C115.804 124.985 117.306 119.728 118.558 114.971C125.067 87.9317 124.817 59.891 117.306 33.1021C115.804 28.3452 114.301 23.5883 114.552 18.581C114.552 7.81541 125.317 0.304502 136.083 4.05996C140.59 5.56214 144.345 9.31759 145.847 14.0745C146.598 16.5781 146.598 19.0818 146.348 21.335C146.098 22.8372 145.597 28.0948 144.595 29.0963C153.108 21.8358 165.876 20.8343 177.143 22.0861C180.147 22.3365 182.901 22.8372 185.905 23.8387C187.157 24.3394 188.409 24.8401 189.41 25.5912ZM273.028 25.5912C279.537 29.3467 282.291 37.859 279.537 44.6188C276.533 51.3786 268.271 55.3844 261.01 53.3815C254.751 51.8794 249.494 46.6217 243.235 47.1225C239.73 47.3728 236.725 49.1254 234.472 51.8794C232.469 54.383 231.217 57.6377 229.965 60.6421C224.207 78.4179 226.46 97.6959 230.466 115.972C231.718 120.98 232.97 126.237 231.468 131.245C229.715 137.754 222.705 142.761 215.444 142.511C208.434 142.01 201.925 136.753 200.423 129.993C199.421 124.985 200.923 119.728 202.175 114.971C208.685 87.9317 208.434 59.891 200.923 33.1021C199.421 28.3452 197.919 23.5883 198.169 18.581C198.169 7.81541 208.935 0.304502 219.701 4.05996C224.207 5.56214 227.963 9.31759 229.465 14.0745C230.216 16.5781 230.216 19.0818 229.965 21.335C229.715 22.8372 229.214 28.0948 228.213 29.0963C236.725 21.8358 249.494 20.8343 260.76 22.0861C263.764 22.3365 266.518 22.8372 269.523 23.8387C270.775 24.3394 272.026 24.8401 273.028 25.5912ZM360.436 62.8953C365.694 80.9215 361.187 103.705 349.921 117.975C341.408 128.741 329.391 135.501 313.117 131.996C291.336 128.491 281.071 106.459 280.069 83.1748C279.318 67.9026 283.324 52.3801 289.583 41.3641C294.34 33.1021 301.1 28.0948 308.36 25.0905C320.378 22.3365 331.144 24.089 339.906 31.0992C349.42 38.3597 357.181 50.1268 360.436 62.8953ZM340.657 102.953C344.914 92.939 344.413 80.1704 339.906 70.4062C336.151 62.1443 327.638 51.629 318.375 55.3844C306.608 60.1413 302.101 79.4193 302.602 90.6857C303.103 100.199 305.857 112.968 316.873 115.972C323.382 117.475 329.141 116.473 333.397 113.218C336.652 110.715 338.905 106.959 340.657 102.953ZM438.796 25.5912C445.305 29.3467 448.059 37.859 445.305 44.6188C442.301 51.3786 434.039 55.3844 426.778 53.3815C420.519 51.8794 415.262 46.6217 409.003 47.1225C405.498 47.3728 402.493 49.1254 400.24 51.8794C398.237 54.383 396.985 57.6377 395.733 60.6421C389.975 78.4179 392.228 97.6959 396.234 115.972C397.486 120.98 398.738 126.237 397.236 131.245C395.483 137.754 388.473 142.761 381.212 142.511C374.202 142.01 367.693 136.753 366.19 129.993C365.189 124.985 366.691 119.728 367.943 114.971C374.452 87.9317 374.202 59.891 366.691 33.1021C365.189 28.3452 363.687 23.5883 363.937 18.581C363.937 7.81541 374.703 0.304502 385.468 4.05996C389.975 5.56214 393.73 9.31759 395.233 14.0745C395.984 16.5781 395.984 19.0818 395.733 21.335C395.483 22.8372 394.982 28.0948 393.981 29.0963C402.493 21.8358 415.262 20.8343 426.528 22.0861C429.532 22.3365 432.286 22.8372 435.291 23.8387C436.543 24.3394 437.794 24.8401 438.796 25.5912Z" fill="url(#paint0_linear_698_414)"/>
</g>
<defs>
<filter id="filter0_d_698_414" x="0.947449" y="0.304443" width="451.112" height="150.457" filterUnits="userSpaceOnUse" color-interpolation-filters="sRGB">
<feFlood flood-opacity="0" result="BackgroundImageFix"/>
<feColorMatrix in="SourceAlpha" type="matrix" values="0 0 0 0 0 0 0 0 0 0 0 0 0 0 0 0 0 0 127 0" result="hardAlpha"/>
<feOffset dy="4"/>
<feGaussianBlur stdDeviation="2"/>
<feComposite in2="hardAlpha" operator="out"/>
<feColorMatrix type="matrix" values="0 0 0 0 0 0 0 0 0 0 0 0 0 0 0 0 0 0 0.25 0"/>
<feBlend mode="normal" in2="BackgroundImageFix" result="effect1_dropShadow_698_414"/>
<feBlend mode="normal" in="SourceGraphic" in2="effect1_dropShadow_698_414" result="shape"/>
</filter>
<linearGradient id="paint0_linear_698_414" x1="-109.987" y1="-48" x2="54.0172" y2="391.531" gradientUnits="userSpaceOnUse">
<stop stop-color="#FFA7FF"/>
<stop offset="1" stop-color="#F600DD"/>
</linearGradient>
</defs>
</svg>
