<svg width="566" height="194" viewBox="0 0 566 194" fill="none" xmlns="http://www.w3.org/2000/svg">
<g filter="url(#filter0_d_631_303)">
<path d="M24.2442 57.8097C22.984 66.6309 22.1439 76.0822 21.7238 85.7435C21.5138 89.5241 21.5138 93.3046 21.7238 96.8751C21.9339 102.756 22.5639 108.217 23.194 113.677C24.0341 121.238 25.2943 128.169 26.3445 134.47C27.8147 142.451 29.7049 149.172 31.1751 154.213C32.2253 161.774 26.9746 168.495 19.4135 169.545C12.0625 170.595 5.13153 165.135 4.29141 157.783C4.29141 147.702 6.18167 131.95 7.65188 114.097C8.07194 108.427 8.49199 102.756 8.70202 97.0851C8.91205 93.3046 8.70202 89.5241 8.70202 85.7435C8.28196 76.0822 7.86191 66.4209 7.23182 57.3896C5.97165 38.697 4.71147 22.9449 4.9215 13.4935C5.97165 6.14252 12.9026 0.891802 20.2536 1.94195C27.8147 2.99209 32.8554 9.92305 31.8052 17.2741C28.4448 30.7159 25.9244 44.1578 24.2442 57.8097ZM99.1704 99.3954C103.581 114.518 99.8005 133.63 90.3492 145.602C83.2082 154.633 73.1268 160.304 59.4749 157.363C41.2024 154.423 32.5912 135.94 31.7511 116.408C31.121 103.596 34.4814 90.5742 39.7322 81.3329C43.7227 74.402 49.3935 70.2014 55.4844 67.681C65.5657 65.3707 74.597 66.8409 81.948 72.7217C89.9291 78.8126 96.44 88.6839 99.1704 99.3954ZM82.5781 133C86.1486 124.599 85.7285 113.887 81.948 105.696C78.7976 98.7653 71.6566 89.9441 63.8855 93.0946C54.0141 97.0851 50.2336 113.257 50.6537 122.709C51.0737 130.69 53.3841 141.401 62.6253 143.922C68.0861 145.182 72.9168 144.342 76.4873 141.611C79.2176 139.511 81.1079 136.361 82.5781 133ZM175.593 63.9005C176.223 66.2108 174.543 68.7312 173.703 70.6214C172.653 73.3518 171.392 75.8722 170.342 78.3925C168.452 83.6432 166.562 88.6839 164.672 93.9347C161.101 104.226 157.951 114.728 154.8 125.229C152.7 132.16 150.81 139.091 148.919 145.392C147.449 150.643 145.979 155.473 144.719 159.044C142.619 165.135 139.468 168.495 137.788 169.545C134.847 171.015 130.017 170.595 126.656 164.714C122.246 157.573 116.785 134.89 116.575 134.05L105.023 89.314C100.613 84.6934 99.9826 77.7624 102.923 72.3017C105.653 66.8409 112.164 62.8504 118.465 64.5306C123.926 66.0008 128.757 70.8315 129.177 76.7123C129.807 87.8438 130.227 98.3453 131.067 109.267C131.697 116.198 132.327 123.339 133.377 130.27C133.377 130.69 134.217 138.251 135.898 142.871C136.318 140.981 137.788 135.31 138.208 133.21C141.988 114.518 143.669 92.6745 144.509 87.6338C145.559 78.8126 147.659 67.261 148.499 62.0103C149.129 58.8598 150.6 55.9194 153.54 54.4492C156.69 52.769 161.101 54.0292 164.252 55.2893C167.822 56.9696 174.333 59.91 175.593 63.9005ZM251.528 121.869C257.409 126.489 258.459 135.1 253.839 140.981C239.137 156.523 224.015 162.614 210.783 161.774C203.012 161.144 195.871 158.834 189.99 154.423C181.589 148.122 175.288 138.251 173.188 125.859C168.567 123.339 165.837 118.508 166.257 113.047C166.467 107.797 169.827 103.176 174.868 101.286C175.288 98.9754 176.128 96.8751 176.968 94.5648C178.858 89.104 181.169 83.8533 185.159 78.6025C188.31 74.402 192.51 70.2014 198.601 66.2108C214.983 55.2893 232.416 60.7501 240.187 71.4616C247.538 81.543 247.538 97.5052 229.265 113.887C222.124 120.188 213.933 124.599 204.902 127.329C200.281 128.589 195.451 129.22 190.62 129.22C192.72 133.42 195.871 136.781 199.861 139.091C209.523 144.552 222.124 139.511 232.416 124.179C237.036 118.298 245.648 117.248 251.528 121.869ZM188.1 102.756C191.88 104.016 195.871 104.436 199.651 103.806C205.742 102.966 211.413 100.866 216.244 97.5052C225.275 91.2043 229.055 85.3235 226.325 80.4928C222.964 75.0321 214.353 73.1418 205.742 77.9725C201.121 80.7028 197.761 83.4332 195.451 86.5837C192.3 90.3642 190.62 94.5648 189.15 98.7653C188.73 100.026 188.52 101.496 188.1 102.756ZM390.12 125.229C390.96 143.291 391.59 161.354 392.85 172.065C392.85 176.896 390.33 181.517 386.129 183.827C381.929 186.347 376.678 186.557 372.477 184.037C368.277 181.727 365.546 177.106 365.546 172.276C366.386 163.664 368.907 150.643 370.797 136.361C372.477 124.809 373.947 112.627 373.947 101.916C373.947 92.4645 373.107 84.0633 370.377 78.8126C369.327 76.9223 368.067 75.6621 366.386 75.4521C364.916 75.2421 363.236 75.8722 361.346 76.9223C359.875 77.5524 359.035 79.6527 357.985 81.963C355.255 87.6338 353.155 95.6149 351.474 104.016C347.484 123.759 346.434 146.442 347.694 152.953C348.114 160.514 342.653 167.235 335.302 168.075C327.741 168.915 320.81 163.664 319.76 156.103C319.97 155.263 320.18 154.003 320.6 152.533C321.02 148.542 322.07 142.451 323.54 135.31C323.961 131.95 324.591 128.589 324.801 125.019C325.221 121.238 325.641 117.668 325.641 114.307C325.851 110.107 325.641 106.326 325.641 103.176C325.641 101.916 324.381 94.1447 322.7 85.7435C321.44 78.6025 319.76 71.6716 318.71 67.0509C318.29 64.7406 318.08 62.4303 318.29 60.12C319.13 55.2893 322.7 51.5088 327.321 49.8286C331.942 48.3584 336.982 49.4085 340.553 52.5589C344.333 55.7094 346.014 60.7501 344.963 65.5807C344.963 65.1607 344.963 64.9507 344.753 64.7406V64.9507C344.123 67.8911 343.073 73.5619 342.233 79.6527C346.434 71.6716 351.054 65.7908 355.465 64.1105C362.396 61.1701 367.857 61.3802 372.267 63.4805C376.888 65.5807 380.458 69.7813 382.979 75.8722C384.869 80.0727 386.129 85.3235 386.969 91.2043C388.859 101.076 389.49 113.257 390.12 125.229ZM463.029 99.3954C467.44 114.518 463.659 133.63 454.208 145.602C447.067 154.633 436.986 160.304 423.334 157.363C405.061 154.423 396.45 135.94 395.61 116.408C394.98 103.596 398.34 90.5742 403.591 81.3329C407.582 74.402 413.252 70.2014 419.343 67.681C429.425 65.3707 438.456 66.8409 445.807 72.7217C453.788 78.8126 460.299 88.6839 463.029 99.3954ZM446.437 133C450.008 124.599 449.587 113.887 445.807 105.696C442.656 98.7653 435.516 89.9441 427.744 93.0946C417.873 97.0851 414.093 113.257 414.513 122.709C414.933 130.69 417.243 141.401 426.484 143.922C431.945 145.182 436.776 144.342 440.346 141.611C443.077 139.511 444.967 136.361 446.437 133ZM558.955 52.769C562.526 88.894 560.635 115.148 556.645 132.79C553.494 147.072 548.874 156.103 544.463 160.934C540.893 164.714 537.112 166.605 533.752 166.815C530.181 167.025 526.821 165.555 524.72 162.824C520.73 158.414 516.949 145.602 513.799 131.11L513.379 129.01C511.699 139.931 509.178 150.432 505.818 157.363C504.558 160.094 501.827 162.194 499.097 163.244C496.997 164.084 494.686 164.084 492.166 163.244C485.865 161.564 480.194 154.633 476.414 143.922C469.483 123.759 468.643 87.0037 468.223 76.0822C468.223 68.7312 474.313 62.6403 481.664 62.6403C489.226 62.6403 495.316 68.7312 495.316 76.0822C495.106 82.8031 493.636 99.6055 494.056 116.198C494.266 122.289 494.476 128.169 495.316 133.42C496.156 130.27 496.997 126.699 497.837 123.339C501.197 108.217 502.877 92.0444 503.928 84.4834C504.348 79.8627 505.398 77.3424 505.608 77.1323C508.128 73.1418 511.489 72.9318 514.639 74.822C515.269 75.0321 517.369 76.2922 518.21 79.6527C518.42 80.9129 518.84 83.8533 519.47 87.6338C520.73 96.035 522.62 109.897 525.561 122.919C527.241 131.32 529.551 139.301 531.651 145.392C532.281 146.652 532.912 147.702 533.752 148.962L533.962 148.332C537.742 141.191 540.053 128.379 539.422 109.267C539.002 94.9848 536.692 77.7624 532.071 56.9696C531.441 53.3991 532.281 49.8286 534.382 46.8882C536.692 43.9478 539.843 42.0575 543.413 41.6374C550.764 40.3773 557.695 45.418 558.955 52.769Z" fill="#EFEFFF"/>
</g>
<defs>
<filter id="filter0_d_631_303" x="0.935825" y="0.891602" width="564.945" height="192.377" filterUnits="userSpaceOnUse" color-interpolation-filters="sRGB">
<feFlood flood-opacity="0" result="BackgroundImageFix"/>
<feColorMatrix in="SourceAlpha" type="matrix" values="0 0 0 0 0 0 0 0 0 0 0 0 0 0 0 0 0 0 127 0" result="hardAlpha"/>
<feOffset dy="3.35559"/>
<feGaussianBlur stdDeviation="1.67779"/>
<feComposite in2="hardAlpha" operator="out"/>
<feColorMatrix type="matrix" values="0 0 0 0 0 0 0 0 0 0 0 0 0 0 0 0 0 0 0.25 0"/>
<feBlend mode="normal" in2="BackgroundImageFix" result="effect1_dropShadow_631_303"/>
<feBlend mode="normal" in="SourceGraphic" in2="effect1_dropShadow_631_303" result="shape"/>
</filter>
</defs>
</svg>
