<svg width="674" height="230" viewBox="0 0 674 230" fill="none" xmlns="http://www.w3.org/2000/svg">
<g filter="url(#filter0_d_631_303)">
<path d="M28.0523 68.3234C26.5501 78.8387 25.5487 90.105 25.0479 101.622C24.7976 106.128 24.7976 110.635 25.0479 114.891C25.2983 121.901 26.0494 128.411 26.8005 134.92C27.8019 143.933 29.3041 152.195 30.5559 159.706C32.3085 169.22 34.5618 177.231 36.3143 183.24C37.5661 192.253 31.307 200.265 22.2939 201.517C13.5312 202.769 5.26924 196.259 4.26779 187.496C4.26779 175.479 6.52106 156.702 8.2736 135.421C8.77433 128.661 9.27505 121.901 9.52542 115.141C9.77578 110.635 9.52542 106.128 9.52542 101.622C9.02469 90.105 8.52396 78.5883 7.77287 67.8227C6.27069 45.5403 4.76851 26.7631 5.01888 15.4967C6.27069 6.73401 14.5327 0.474931 23.2954 1.72675C32.3085 2.97856 38.3172 11.2406 37.0654 20.0033C33.0596 36.0265 30.0552 52.0498 28.0523 68.3234ZM117.367 117.895C122.625 135.922 118.119 158.705 106.852 172.975C98.3399 183.741 86.3224 190.501 70.0488 186.996C48.2672 183.491 38.0023 161.459 37.0008 138.175C36.2497 122.903 40.2556 107.38 46.5146 96.3641C51.2716 88.1021 58.0314 83.0948 65.2919 80.0905C77.3093 77.3365 88.075 79.089 96.8377 86.0992C106.351 93.3597 114.113 105.127 117.367 117.895ZM97.5888 157.953C101.845 147.939 101.344 135.17 96.8377 125.406C93.0822 117.144 84.5699 106.629 75.3064 110.384C63.5394 115.141 59.0328 134.419 59.5335 145.686C60.0343 155.199 62.7883 167.968 73.8043 170.972C80.3137 172.475 86.0721 171.473 90.3282 168.218C93.583 165.715 95.8362 161.959 97.5888 157.953ZM208.466 75.5839C209.218 78.3379 207.215 81.3423 206.213 83.5956C204.961 86.8503 203.459 89.8547 202.207 92.859C199.954 99.1181 197.701 105.127 195.448 111.386C191.191 123.654 187.436 136.172 183.681 148.69C181.177 156.952 178.924 165.214 176.67 172.725C174.918 178.984 173.165 184.742 171.663 188.999C169.159 196.259 165.404 200.265 163.401 201.517C159.896 203.269 154.138 202.769 150.132 195.758C144.874 187.246 138.365 160.207 138.114 159.205L124.344 105.878C119.087 100.37 118.336 92.1079 121.841 85.5985C125.095 79.089 132.857 74.3321 140.368 76.335C146.877 78.0876 152.635 83.8459 153.136 90.8561C153.887 104.125 154.388 116.644 155.389 129.662C156.141 137.924 156.892 146.437 158.143 154.699C158.143 155.199 159.145 164.213 161.148 169.721C161.649 167.467 163.401 160.707 163.902 158.204C168.408 135.922 170.411 109.884 171.413 103.875C172.665 93.3597 175.168 79.5898 176.17 73.3307C176.921 69.5752 178.673 66.0701 182.178 64.3176C185.934 62.3147 191.191 63.8169 194.947 65.319C199.203 67.322 206.964 70.827 208.466 75.5839ZM298.985 144.684C305.995 150.192 307.247 160.457 301.739 167.467C284.213 185.994 266.187 193.255 250.414 192.253C241.151 191.502 232.638 188.748 225.628 183.491C215.614 175.98 208.103 164.213 205.599 149.441C200.091 146.437 196.836 140.678 197.337 134.169C197.587 127.91 201.593 122.402 207.602 120.149C208.103 117.395 209.104 114.891 210.106 112.137C212.359 105.628 215.113 99.3685 219.87 93.1094C223.625 88.1021 228.632 83.0948 235.893 78.3379C255.421 65.319 276.202 71.8285 285.465 84.597C294.228 96.6145 294.228 115.642 272.446 135.17C263.934 142.681 254.17 147.939 243.404 151.194C237.896 152.696 232.138 153.447 226.379 153.447C228.883 158.454 232.638 162.46 237.395 165.214C248.912 171.723 263.934 165.715 276.202 147.438C281.71 140.428 291.974 139.176 298.985 144.684ZM223.375 121.901C227.881 123.403 232.638 123.904 237.145 123.153C244.405 122.152 251.165 119.648 256.924 115.642C267.689 108.131 272.196 101.121 268.941 95.3626C264.935 88.8532 254.67 86.5999 244.405 92.3583C238.897 95.613 234.892 98.8677 232.138 102.623C228.382 107.13 226.379 112.137 224.627 117.144C224.126 118.646 223.876 120.399 223.375 121.901ZM464.191 148.69C465.193 170.221 465.944 191.753 467.446 204.521C467.446 210.279 464.442 215.787 459.434 218.541C454.427 221.546 448.168 221.796 443.161 218.792C438.153 216.038 434.899 210.53 434.899 204.771C435.9 194.507 438.904 178.984 441.158 161.959C443.161 148.189 444.913 133.668 444.913 120.9C444.913 109.633 443.912 99.6188 440.657 93.3597C439.405 91.1065 437.903 89.6043 435.9 89.3539C434.148 89.1036 432.145 89.8547 429.891 91.1065C428.139 91.8576 427.137 94.3612 425.886 97.1152C422.631 103.875 420.127 113.389 418.124 123.403C413.367 146.938 412.116 173.977 413.618 181.738C414.118 190.751 407.609 198.763 398.846 199.764C389.833 200.766 381.571 194.507 380.319 185.493C380.57 184.492 380.82 182.99 381.321 181.237C381.822 176.48 383.073 169.22 384.826 160.707C385.327 156.702 386.078 152.696 386.328 148.44C386.829 143.933 387.33 139.677 387.33 135.671C387.58 130.664 387.33 126.157 387.33 122.402C387.33 120.9 385.827 111.636 383.824 101.622C382.322 93.1094 380.319 84.8474 379.068 79.3394C378.567 76.5854 378.317 73.8314 378.567 71.0774C379.568 65.319 383.824 60.8125 389.332 58.8096C394.84 57.0571 400.849 58.3089 405.105 62.0643C409.612 65.8198 411.615 71.8285 410.363 77.5868C410.363 77.0861 410.363 76.8358 410.113 76.5854V76.8358C409.362 80.3408 408.11 87.1007 407.108 94.3612C412.116 84.8474 417.624 77.8372 422.881 75.8343C431.143 72.3292 437.653 72.5796 442.91 75.0832C448.418 77.5868 452.674 82.5941 455.679 89.8547C457.932 94.8619 459.434 101.121 460.436 108.131C462.689 119.898 463.44 134.419 464.191 148.69ZM551.102 117.895C556.36 135.922 551.854 158.705 540.587 172.975C532.075 183.741 520.057 190.501 503.784 186.996C482.002 183.491 471.737 161.459 470.736 138.175C469.985 122.903 473.991 107.38 480.25 96.3641C485.007 88.1021 491.766 83.0948 499.027 80.0905C511.044 77.3365 521.81 79.089 530.573 86.0992C540.086 93.3597 547.848 105.127 551.102 117.895ZM531.324 157.953C535.58 147.939 535.079 135.17 530.573 125.406C526.817 117.144 518.305 106.629 509.041 110.384C497.274 115.141 492.768 134.419 493.269 145.686C493.769 155.199 496.523 167.968 507.539 170.972C514.049 172.475 519.807 171.473 524.063 168.218C527.318 165.715 529.571 161.959 531.324 157.953ZM665.45 62.3147C669.706 105.377 667.453 136.673 662.696 157.703C658.941 174.728 653.433 185.493 648.175 191.252C643.919 195.758 639.412 198.012 635.406 198.262C631.15 198.512 627.144 196.76 624.641 193.505C619.884 188.247 615.377 172.975 611.622 155.7L611.121 153.197C609.118 166.215 606.114 178.734 602.108 186.996C600.606 190.25 597.351 192.754 594.096 194.006C591.593 195.007 588.839 195.007 585.834 194.006C578.324 192.003 571.564 183.741 567.057 170.972C558.795 146.938 557.794 103.124 557.293 90.105C557.293 81.3423 564.554 74.0818 573.316 74.0818C582.329 74.0818 589.59 81.3423 589.59 90.105C589.34 98.1166 587.587 118.146 588.088 137.924C588.338 145.185 588.588 152.195 589.59 158.454C590.591 154.699 591.593 150.443 592.594 146.437C596.6 128.411 598.603 109.133 599.855 100.12C600.356 94.6116 601.607 91.6072 601.858 91.3568C604.862 86.5999 608.868 86.3496 612.623 88.6028C613.374 88.8532 615.878 90.3554 616.88 94.3612C617.13 95.8634 617.631 99.3685 618.382 103.875C619.884 113.89 622.137 130.414 625.642 145.936C627.645 155.951 630.399 165.464 632.903 172.725C633.654 174.227 634.405 175.479 635.406 176.981L635.657 176.23C640.163 167.718 642.917 152.445 642.166 129.662C641.666 112.638 638.912 92.1079 633.404 67.322C632.652 63.0658 633.654 58.8096 636.158 55.3045C638.912 51.7994 642.667 49.5461 646.923 49.0454C655.686 47.5432 663.948 53.552 665.45 62.3147Z" fill="url(#paint0_linear_631_303)"/>
</g>
<defs>
<filter id="filter0_d_631_303" x="0.267822" y="0.474854" width="673.438" height="229.321" filterUnits="userSpaceOnUse" color-interpolation-filters="sRGB">
<feFlood flood-opacity="0" result="BackgroundImageFix"/>
<feColorMatrix in="SourceAlpha" type="matrix" values="0 0 0 0 0 0 0 0 0 0 0 0 0 0 0 0 0 0 127 0" result="hardAlpha"/>
<feOffset dy="4"/>
<feGaussianBlur stdDeviation="2"/>
<feComposite in2="hardAlpha" operator="out"/>
<feColorMatrix type="matrix" values="0 0 0 0 0 0 0 0 0 0 0 0 0 0 0 0 0 0 0.25 0"/>
<feBlend mode="normal" in2="BackgroundImageFix" result="effect1_dropShadow_631_303"/>
<feBlend mode="normal" in="SourceGraphic" in2="effect1_dropShadow_631_303" result="shape"/>
</filter>
<linearGradient id="paint0_linear_631_303" x1="1.01306" y1="7" x2="165.017" y2="446.531" gradientUnits="userSpaceOnUse">
<stop stop-color="#FFA7FF"/>
<stop offset="1" stop-color="#F600DD"/>
</linearGradient>
</defs>
</svg>
