<svg width="216" height="70" viewBox="0 0 216 70" fill="none" xmlns="http://www.w3.org/2000/svg">
<path d="M36.2711 18.3C36.5711 19.4 35.7711 20.6 35.3711 21.5C34.8711 22.8 34.2711 24 33.7711 25.2C32.8711 27.7 31.9711 30.1 31.0711 32.6C29.3711 37.5 27.8711 42.5 26.3711 47.5C25.3711 50.8 24.4711 54.1 23.5711 57.1C22.8711 59.6 22.1711 61.9 21.5711 63.6C20.5711 66.5 19.0711 68.1 18.2711 68.6C16.8711 69.3 14.5711 69.1 12.9711 66.3C10.8711 62.9 8.27109 52.1 8.17109 51.7L2.67109 30.4C0.571094 28.2 0.271094 24.9 1.67109 22.3C2.97109 19.7 6.07109 17.8 9.07109 18.6C11.6711 19.3 13.9711 21.6 14.1711 24.4C14.4711 29.7 14.6711 34.7 15.0711 39.9C15.3711 43.2 15.6711 46.6 16.1711 49.9C16.1711 50.1 16.5711 53.7 17.3711 55.9C17.5711 55 18.2711 52.3 18.4711 51.3C20.2711 42.4 21.0711 32 21.4711 29.6C21.9711 25.4 22.9711 19.9 23.3711 17.4C23.6711 15.9 24.3711 14.5 25.7711 13.8C27.2711 13 29.3711 13.6 30.8711 14.2C32.5711 15 35.6711 16.4 36.2711 18.3ZM66.0953 35.2C68.1953 42.4 66.3953 51.5 61.8953 57.2C58.4953 61.5 53.6953 64.2 47.1953 62.8C38.4953 61.4 34.3953 52.6 33.9953 43.3C33.6953 37.2 35.2953 31 37.7953 26.6C39.6953 23.3 42.3953 21.3 45.2953 20.1C50.0953 19 54.3953 19.7 57.8953 22.5C61.6953 25.4 64.7953 30.1 66.0953 35.2ZM58.1953 51.2C59.8953 47.2 59.6953 42.1 57.8953 38.2C56.3953 34.9 52.9953 30.7 49.2953 32.2C44.5953 34.1 42.7953 41.8 42.9953 46.3C43.1953 50.1 44.2953 55.2 48.6953 56.4C51.2953 57 53.5953 56.6 55.2953 55.3C56.5953 54.3 57.4953 52.8 58.1953 51.2ZM99.468 52.5C100.868 55.9 99.268 59.6 95.968 61C89.468 62.8 84.168 62.5 79.868 60.4C74.568 57.8 70.768 53.5 69.568 48.5C68.668 45.5 68.268 42.3 68.368 39.2C68.368 35.7 68.868 32.4 69.968 29.6C71.768 24.9 75.168 21.5 79.768 19.7C86.568 17 92.068 20 95.868 24.6C99.168 28.8 100.268 35 99.168 41C98.168 44.4 94.568 46.3 91.168 45.3C87.668 44.3 85.768 40.7 86.768 37.2C87.768 34.9 88.268 32.2 87.168 30.2C86.268 28.3 84.568 26.8 82.068 27.3C78.568 28.1 76.068 30.7 75.068 34.3C74.468 36.2 74.368 38.3 74.568 40.3C74.768 42.2 75.468 44.2 76.268 46.2C77.468 48.7 79.868 50.6 82.968 51.3C85.368 51.8 87.968 50.8 90.968 49C94.268 47.7 98.068 49.2 99.468 52.5ZM118.069 11.7C116.969 10.9 116.669 9.4 117.469 8.2C118.069 7.8 118.669 7.4 119.269 6.8C119.669 6.4 119.969 6.09999 120.269 5.59999C120.569 5.2 120.769 4.69999 120.869 4.2C121.269 2.7 121.469 1.8 121.569 1.4C122.269 0.799997 123.069 0.399996 123.969 0.6C124.869 0.699998 125.669 1.2 126.069 2C126.169 2.7 126.069 3.5 126.369 4.4C126.469 4.9 126.569 5.4 126.869 5.8C127.069 6.3 127.369 6.7 127.769 7.1C128.269 7.7 128.869 8.2 129.469 8.9C130.069 10.2 129.469 11.6 128.269 12.2C126.969 12.8 125.469 12.3 124.869 11C124.769 10.1 124.769 9.4 124.569 8.7C124.469 8.1 124.369 7.6 124.169 7.2C123.969 6.8 123.769 6.5 123.569 6.2C123.469 6.2 123.469 6.3 123.469 6.3C123.169 6.6 123.069 6.8 122.869 7.1C122.669 7.6 122.469 8.1 122.269 8.6C122.069 9.5 121.869 10.3 121.569 11.1C120.769 12.2 119.269 12.5 118.069 11.7ZM141.369 45.9C144.169 48.1 144.669 52.2 142.469 55C135.469 62.4 128.269 65.3 121.969 64.9C118.269 64.6 114.869 63.5 112.069 61.4C108.069 58.4 105.069 53.7 104.069 47.8C101.869 46.6 100.569 44.3 100.769 41.7C100.869 39.2 102.469 37 104.869 36.1C105.069 35 105.469 34 105.869 32.9C106.769 30.3 107.869 27.8 109.769 25.3C111.269 23.3 113.269 21.3 116.169 19.4C123.969 14.2 132.269 16.8 135.969 21.9C139.469 26.7 139.469 34.3 130.769 42.1C127.369 45.1 123.469 47.2 119.169 48.5C116.969 49.1 114.669 49.4 112.369 49.4C113.369 51.4 114.869 53 116.769 54.1C121.369 56.7 127.369 54.3 132.269 47C134.469 44.2 138.569 43.7 141.369 45.9ZM111.169 36.8C112.969 37.4 114.869 37.6 116.669 37.3C119.569 36.9 122.269 35.9 124.569 34.3C128.869 31.3 130.669 28.5 129.369 26.2C127.769 23.6 123.669 22.7 119.569 25C117.369 26.3 115.769 27.6 114.669 29.1C113.169 30.9 112.369 32.9 111.669 34.9C111.469 35.5 111.369 36.2 111.169 36.8ZM192.66 11.7C191.76 11.1 191.66 10.2 191.86 9.2C192.06 8.2 192.36 7.1 192.56 6.09999C192.86 5 192.96 4 192.96 2.9C193.56 1.2 195.36 0.299998 197.06 0.899996C198.66 1.5 199.56 3.29999 199.06 5C198.56 5.7 197.56 6.9 196.56 8.2C195.96 9.1 195.36 10.1 194.66 10.9C194.26 11.5 193.36 12.1 192.66 11.7ZM212.66 45.9C215.46 48.1 215.96 52.2 213.76 55C206.76 62.4 199.56 65.3 193.26 64.9C189.56 64.6 186.16 63.5 183.36 61.4C179.36 58.4 176.36 53.7 175.36 47.8C173.16 46.6 171.86 44.3 172.06 41.7C172.16 39.2 173.76 37 176.16 36.1C176.36 35 176.76 34 177.16 32.9C178.06 30.3 179.16 27.8 181.06 25.3C182.56 23.3 184.56 21.3 187.46 19.4C195.26 14.2 203.56 16.8 207.26 21.9C210.76 26.7 210.76 34.3 202.06 42.1C198.66 45.1 194.76 47.2 190.46 48.5C188.26 49.1 185.96 49.4 183.66 49.4C184.66 51.4 186.16 53 188.06 54.1C192.66 56.7 198.66 54.3 203.56 47C205.76 44.2 209.86 43.7 212.66 45.9ZM182.46 36.8C184.26 37.4 186.16 37.6 187.96 37.3C190.86 36.9 193.56 35.9 195.86 34.3C200.16 31.3 201.96 28.5 200.66 26.2C199.06 23.6 194.96 22.7 190.86 25C188.66 26.3 187.06 27.6 185.96 29.1C184.46 30.9 183.66 32.9 182.96 34.9C182.76 35.5 182.66 36.2 182.46 36.8Z" fill="white"/>
</svg>
