<svg width="1070" height="89" viewBox="0 0 1070 89" fill="none" xmlns="http://www.w3.org/2000/svg">
<path d="M48.7598 60.4C52.1598 59.2 55.8598 60.9 57.0598 64.3C58.2598 67.7 56.4598 71.4 53.0598 72.6C46.8598 74.1 36.7598 77.4 28.6598 76.5C24.3598 76.1 20.6598 74.8 17.7598 72C15.9598 70.1 14.5598 67.8 13.8598 65.3C13.0598 62.8 12.6598 60.2 12.4598 57.6C12.4598 56.9 12.4598 56.2 12.3598 55.6C11.8598 56.1 11.2598 56.6 10.5598 56.9C10.3598 57.1 10.1598 57.3 10.0598 57.2C9.55977 57.4 8.95977 57.5 8.35977 57.6C4.85977 58 1.65977 55.4 1.25977 51.8C1.25977 51.7 0.359766 45 5.65977 45C6.05977 45 6.85977 45.1 6.95977 45.1L12.2598 44.6C12.5598 44.6 12.8598 44.6 13.1598 44.5C13.4598 42.7 13.8598 40.8 14.1598 39C15.0598 35.2 15.9598 31.6 17.0598 28.4L18.7598 22.1C18.1598 22.4 17.6598 22.8 17.0598 23.2C15.8598 24.1 14.5598 25.2 13.1598 26.1H13.2598L13.0598 26.2C10.9598 27.6 8.75977 28.5 6.15977 27.4C3.35977 26.2 1.55977 22.3 2.55977 19.4C3.25977 17.2 5.25977 15.6 7.55977 15.2C9.55977 14.8 12.7598 14.2 16.3598 13.7C18.0598 13.4 19.7598 13.1 21.3598 12.9C22.8598 10.5 25.7598 10.9 28.2598 11.8C29.1598 11.7 29.9598 11.5 30.7598 11.3C33.7598 10.6 36.3598 9.79999 38.8598 9.1C44.1598 7.7 48.2598 6.8 51.2598 6.2C54.8598 6.2 57.7598 9.1 57.7598 12.7C57.7598 16.3 54.8598 19.2 51.2598 19.2C49.1598 18.7 46.4598 18.1 43.0598 17.7C40.4598 17.5 37.7598 17.2 34.6598 17.3C34.1598 17.4 33.7598 17.4 33.2598 17.4C33.1598 18.4 32.7598 19.4 32.1598 20.2C31.4598 21.5 30.4598 23.4 30.3598 23.8L25.8598 32.2C24.4598 34.9 22.8598 37.9 21.5598 41.2C21.2598 41.9 21.0598 42.7 20.7598 43.4C21.1598 43.3 21.5598 43.2 22.0598 43.2C23.3598 42.6 24.7598 42.2 26.0598 41.7C28.2598 40.8 30.2598 40 32.4598 39.3C34.1598 38.6 35.6598 38.2 37.3598 37.7C40.9598 37.7 43.8598 40.6 43.8598 44.2C43.8598 47.8 40.9598 50.7 37.3598 50.7C35.0598 50.1 33.0598 49.4 30.5598 49.1C28.1598 48.9 25.8598 49 23.4598 49.1C21.9598 49.6 20.5598 50 19.1598 50.6C19.0598 50.7 18.9598 50.7 18.9598 50.7C18.5598 52.9 18.4598 55 18.5598 57.1C18.7598 59.2 19.1598 61.2 19.9598 63.1C21.7598 67.2 25.1598 68.2 28.7598 68C35.8598 67.6 43.7598 62.7 48.7598 60.4ZM13.1598 26.1C13.1598 26.1 13.1598 26.2 13.0598 26.2C13.1598 26.1 13.1598 26.1 13.1598 26.1ZM92.8051 59.5C93.2051 68.1 93.5051 76.7 94.1051 81.8C94.1051 84.1 92.9051 86.3 90.9051 87.4C88.9051 88.6 86.4051 88.7 84.4051 87.5C82.4051 86.4 81.1051 84.2 81.1051 81.9C81.5051 77.8 82.7051 71.6 83.6051 64.8C84.4051 59.3 85.1051 53.5 85.1051 48.4C85.1051 43.9 84.7051 39.9 83.4051 37.4C82.9051 36.5 82.3051 35.9 81.5051 35.8C80.8051 35.7 80.0051 36 79.1051 36.5C78.4051 36.8 78.0051 37.8 77.5051 38.9C76.2051 41.6 75.2051 45.4 74.4051 49.4C72.5051 58.8 72.0051 69.6 72.6051 72.7C72.8051 76.3 70.2051 79.5 66.7051 79.9C63.1051 80.3 59.8051 77.8 59.3051 74.2C59.4051 73.8 59.5051 73.2 59.7051 72.5C59.9051 70.6 60.4051 67.7 61.1051 64.3C61.3051 62.7 61.6051 61.1 61.7051 59.4C61.9051 57.6 62.1051 55.9 62.1051 54.3C62.2051 52.3 62.1051 50.5 62.1051 49C62.1051 48.4 61.5051 44.7 60.7051 40.7C60.1051 37.3 59.3051 34 58.8051 31.8C58.6051 30.7 58.5051 29.6 58.6051 28.5C59.0051 26.2 60.7051 24.4 62.9051 23.6C65.1051 22.9 67.5051 23.4 69.2051 24.9C71.0051 26.4 71.8051 28.8 71.3051 31.1C71.3051 30.9 71.3051 30.8 71.2051 30.7V30.8C70.9051 32.2 70.4051 34.9 70.0051 37.8C72.0051 34 74.2051 31.2 76.3051 30.4C79.6051 29 82.2051 29.1 84.3051 30.1C86.5051 31.1 88.2051 33.1 89.4051 36C90.3051 38 90.9051 40.5 91.3051 43.3C92.2051 48 92.5051 53.8 92.8051 59.5ZM118.934 66.1C122.434 66.4 125.134 69.5 124.834 73.1C124.634 76.6 121.534 79.3 117.934 79.1C112.834 77.9 108.734 75.7 106.034 71.3C103.534 67.1 102.034 61.4 101.434 53.5C101.234 51.3 100.934 48.9 100.834 46.3C100.434 42.6 100.234 38.4 100.034 34.2C99.934 32.3 99.834 30.4 99.734 28.6C97.334 29.3 96.034 29.8 95.734 29.9C92.134 30.2 89.034 27.6 88.734 24C88.434 20.4 91.034 17.3 94.634 17C95.034 17.1 96.534 17.6 99.334 18.3C99.334 17.5 99.234 16.9 99.234 16.2C99.234 15.4 98.934 14.5 98.934 13.6C99.034 12.9 99.134 12.1 99.434 11.4C99.934 9.9 100.934 8.7 102.234 8C103.934 6.99999 106.834 6.6 108.534 7.8C108.834 8 112.934 9.7 111.934 14.3C111.834 14.8 111.634 15.9 111.334 17.4C111.234 17.7 111.134 18 111.034 18.4C111.734 18 112.334 17.7 112.934 17.4C114.434 16.5 115.434 15.6 116.634 14.8C118.934 14.1 121.334 14.7 122.934 16.4C124.634 18 125.334 20.4 124.734 22.6C124.134 24.9 122.434 26.6 120.134 27.3C117.834 27.2 115.734 27 112.834 26.7C111.734 26.6 110.534 26.6 109.334 26.5C108.734 29 108.334 31.8 107.934 34.6C107.434 38.4 107.134 42.2 107.034 46C107.134 48.3 107.334 50.4 107.634 52.4C108.134 55.4 109.134 58.3 110.534 61C111.734 63.5 113.534 65.1 115.434 66C116.434 66.6 117.634 66.2 118.934 66.1ZM155.302 32.3C157.902 33.8 159.002 37.2 157.902 39.9C156.702 42.6 153.402 44.2 150.502 43.4C148.002 42.8 145.902 40.7 143.402 40.9C142.002 41 140.802 41.7 139.902 42.8C139.102 43.8 138.602 45.1 138.102 46.3C135.802 53.4 136.702 61.1 138.302 68.4C138.802 70.4 139.302 72.5 138.702 74.5C138.002 77.1 135.202 79.1 132.302 79C129.502 78.8 126.902 76.7 126.302 74C125.902 72 126.502 69.9 127.002 68C129.602 57.2 129.502 46 126.502 35.3C125.902 33.4 125.302 31.5 125.402 29.5C125.402 25.2 129.702 22.2 134.002 23.7C135.802 24.3 137.302 25.8 137.902 27.7C138.202 28.7 138.202 29.7 138.102 30.6C138.002 31.2 137.802 33.3 137.402 33.7C140.802 30.8 145.902 30.4 150.402 30.9C151.602 31 152.702 31.2 153.902 31.6C154.402 31.8 154.902 32 155.302 32.3ZM195.08 57.9C197.88 60.1 198.38 64.2 196.18 67C189.18 74.4 181.98 77.3 175.68 76.9C171.98 76.6 168.58 75.5 165.78 73.4C161.78 70.4 158.78 65.7 157.78 59.8C155.58 58.6 154.28 56.3 154.48 53.7C154.58 51.2 156.18 49 158.58 48.1C158.78 47 159.18 46 159.58 44.9C160.48 42.3 161.58 39.8 163.48 37.3C164.98 35.3 166.98 33.3 169.88 31.4C177.68 26.2 185.98 28.8 189.68 33.9C193.18 38.7 193.18 46.3 184.48 54.1C181.08 57.1 177.18 59.2 172.88 60.5C170.68 61.1 168.38 61.4 166.08 61.4C167.08 63.4 168.58 65 170.48 66.1C175.08 68.7 181.08 66.3 185.98 59C188.18 56.2 192.28 55.7 195.08 57.9ZM164.88 48.8C166.68 49.4 168.58 49.6 170.38 49.3C173.28 48.9 175.98 47.9 178.28 46.3C182.58 43.3 184.38 40.5 183.08 38.2C181.48 35.6 177.38 34.7 173.28 37C171.08 38.3 169.48 39.6 168.38 41.1C166.88 42.9 166.08 44.9 165.38 46.9C165.18 47.5 165.08 48.2 164.88 48.8ZM527.6 57.9C530.4 60.1 530.9 64.2 528.7 67C521.7 74.4 514.5 77.3 508.2 76.9C504.5 76.6 501.1 75.5 498.3 73.4C494.3 70.4 491.3 65.7 490.3 59.8C488.1 58.6 486.8 56.3 487 53.7C487.1 51.2 488.7 49 491.1 48.1C491.3 47 491.7 46 492.1 44.9C493 42.3 494.1 39.8 496 37.3C497.5 35.3 499.5 33.3 502.4 31.4C510.2 26.2 518.5 28.8 522.2 33.9C525.7 38.7 525.7 46.3 517 54.1C513.6 57.1 509.7 59.2 505.4 60.5C503.2 61.1 500.9 61.4 498.6 61.4C499.6 63.4 501.1 65 503 66.1C507.6 68.7 513.6 66.3 518.5 59C520.7 56.2 524.8 55.7 527.6 57.9ZM497.4 48.8C499.2 49.4 501.1 49.6 502.9 49.3C505.8 48.9 508.5 47.9 510.8 46.3C515.1 43.3 516.9 40.5 515.6 38.2C514 35.6 509.9 34.7 505.8 37C503.6 38.3 502 39.6 500.9 41.1C499.4 42.9 498.6 44.9 497.9 46.9C497.7 47.5 497.6 48.2 497.4 48.8ZM567.266 71.4C567.766 74.9 565.466 78.2 561.866 78.8C558.366 79.4 555.066 77.1 554.466 73.6C554.566 70.1 554.766 66.8 554.966 63.8C554.266 65.2 553.466 66.6 552.566 67.9C549.566 73.5 544.866 74.3 540.766 72.9C537.066 71.5 533.766 67.9 532.766 63.1C531.566 58.4 531.366 54.5 531.466 50.4C531.466 45.6 531.966 40.4 532.266 32.5C532.766 29 536.066 26.5 539.566 27C543.166 27.5 545.566 30.8 545.066 34.3C543.266 41.9 541.666 46.7 540.766 51.3C539.966 54.8 539.766 58.4 540.066 62C540.266 64.2 541.366 66.2 543.066 66.9C544.466 67.5 546.066 66.9 547.166 64.9C549.266 60.3 550.666 55 551.366 49.5C551.966 44 551.666 38.6 551.066 33.6C551.266 30 554.266 27.1 557.866 27.1C561.566 27 564.666 29.8 564.966 33.4C564.466 35.6 562.966 39.3 562.066 45.1C561.766 46.6 561.566 48.2 561.566 49.7C561.566 50.8 561.566 51.8 561.666 52.8C562.066 55.4 562.566 57.9 563.266 60.4C564.266 64 565.666 67.4 567.266 71.4ZM636.486 57.9C639.286 60.1 639.786 64.2 637.586 67C630.586 74.4 623.386 77.3 617.086 76.9C613.386 76.6 609.986 75.5 607.186 73.4C603.186 70.4 600.186 65.7 599.186 59.8C596.986 58.6 595.686 56.3 595.886 53.7C595.986 51.2 597.586 49 599.986 48.1C600.186 47 600.586 46 600.986 44.9C601.886 42.3 602.986 39.8 604.886 37.3C606.386 35.3 608.386 33.3 611.286 31.4C619.086 26.2 627.386 28.8 631.086 33.9C634.586 38.7 634.586 46.3 625.886 54.1C622.486 57.1 618.586 59.2 614.286 60.5C612.086 61.1 609.786 61.4 607.486 61.4C608.486 63.4 609.986 65 611.886 66.1C616.486 68.7 622.486 66.3 627.386 59C629.586 56.2 633.686 55.7 636.486 57.9ZM606.286 48.8C608.086 49.4 609.986 49.6 611.786 49.3C614.686 48.9 617.386 47.9 619.686 46.3C623.986 43.3 625.786 40.5 624.486 38.2C622.886 35.6 618.786 34.7 614.686 37C612.486 38.3 610.886 39.6 609.786 41.1C608.286 42.9 607.486 44.9 606.786 46.9C606.586 47.5 606.486 48.2 606.286 48.8ZM673.664 59.5C674.064 68.1 674.364 76.7 674.964 81.8C674.964 84.1 673.764 86.3 671.764 87.4C669.764 88.6 667.264 88.7 665.264 87.5C663.264 86.4 661.964 84.2 661.964 81.9C662.364 77.8 663.564 71.6 664.464 64.8C665.264 59.3 665.964 53.5 665.964 48.4C665.964 43.9 665.564 39.9 664.264 37.4C663.764 36.5 663.164 35.9 662.364 35.8C661.664 35.7 660.864 36 659.964 36.5C659.264 36.8 658.864 37.8 658.364 38.9C657.064 41.6 656.064 45.4 655.264 49.4C653.364 58.8 652.864 69.6 653.464 72.7C653.664 76.3 651.064 79.5 647.564 79.9C643.964 80.3 640.664 77.8 640.164 74.2C640.264 73.8 640.364 73.2 640.564 72.5C640.764 70.6 641.264 67.7 641.964 64.3C642.164 62.7 642.464 61.1 642.564 59.4C642.764 57.6 642.964 55.9 642.964 54.3C643.064 52.3 642.964 50.5 642.964 49C642.964 48.4 642.364 44.7 641.564 40.7C640.964 37.3 640.164 34 639.664 31.8C639.464 30.7 639.364 29.6 639.464 28.5C639.864 26.2 641.564 24.4 643.764 23.6C645.964 22.9 648.364 23.4 650.064 24.9C651.864 26.4 652.664 28.8 652.164 31.1C652.164 30.9 652.164 30.8 652.064 30.7V30.8C651.764 32.2 651.264 34.9 650.864 37.8C652.864 34 655.064 31.2 657.164 30.4C660.464 29 663.064 29.1 665.164 30.1C667.364 31.1 669.064 33.1 670.264 36C671.164 38 671.764 40.5 672.164 43.3C673.064 48 673.364 53.8 673.664 59.5ZM707.279 64.5C708.679 67.9 707.079 71.6 703.779 73C697.279 74.8 691.979 74.5 687.679 72.4C682.379 69.8 678.579 65.5 677.379 60.5C676.479 57.5 676.079 54.3 676.179 51.2C676.179 47.7 676.679 44.4 677.779 41.6C679.579 36.9 682.979 33.5 687.579 31.7C694.379 29 699.879 32 703.679 36.6C706.979 40.8 708.079 47 706.979 53C705.979 56.4 702.379 58.3 698.979 57.3C695.479 56.3 693.579 52.7 694.579 49.2C695.579 46.9 696.079 44.2 694.979 42.2C694.079 40.3 692.379 38.8 689.879 39.3C686.379 40.1 683.879 42.7 682.879 46.3C682.279 48.2 682.179 50.3 682.379 52.3C682.579 54.2 683.279 56.2 684.079 58.2C685.279 60.7 687.679 62.6 690.779 63.3C693.179 63.8 695.779 62.8 698.779 61C702.079 59.7 705.879 61.2 707.279 64.5ZM741.679 47.2C743.779 54.4 741.979 63.5 737.479 69.2C734.079 73.5 729.279 76.2 722.779 74.8C714.079 73.4 709.979 64.6 709.579 55.3C709.279 49.2 710.879 43 713.379 38.6C715.279 35.3 717.979 33.3 720.879 32.1C725.679 31 729.979 31.7 733.479 34.5C737.279 37.4 740.379 42.1 741.679 47.2ZM733.779 63.2C735.479 59.2 735.279 54.1 733.479 50.2C731.979 46.9 728.579 42.7 724.879 44.2C720.179 46.1 718.379 53.8 718.579 58.3C718.779 62.1 719.879 67.2 724.279 68.4C726.879 69 729.179 68.6 730.879 67.3C732.179 66.3 733.079 64.8 733.779 63.2ZM777.278 59.5C777.678 68.1 777.978 76.7 778.578 81.8C778.578 84.1 777.378 86.3 775.378 87.4C773.378 88.6 770.878 88.7 768.878 87.5C766.878 86.4 765.578 84.2 765.578 81.9C765.978 77.8 767.178 71.6 768.078 64.8C768.878 59.3 769.578 53.5 769.578 48.4C769.578 43.9 769.178 39.9 767.878 37.4C767.378 36.5 766.778 35.9 765.978 35.8C765.278 35.7 764.478 36 763.578 36.5C762.878 36.8 762.478 37.8 761.978 38.9C760.678 41.6 759.678 45.4 758.878 49.4C756.978 58.8 756.478 69.6 757.078 72.7C757.278 76.3 754.678 79.5 751.178 79.9C747.578 80.3 744.278 77.8 743.778 74.2C743.878 73.8 743.978 73.2 744.178 72.5C744.378 70.6 744.878 67.7 745.578 64.3C745.778 62.7 746.078 61.1 746.178 59.4C746.378 57.6 746.578 55.9 746.578 54.3C746.678 52.3 746.578 50.5 746.578 49C746.578 48.4 745.978 44.7 745.178 40.7C744.578 37.3 743.778 34 743.278 31.8C743.078 30.7 742.978 29.6 743.078 28.5C743.478 26.2 745.178 24.4 747.378 23.6C749.578 22.9 751.978 23.4 753.678 24.9C755.478 26.4 756.278 28.8 755.778 31.1C755.778 30.9 755.778 30.8 755.678 30.7V30.8C755.378 32.2 754.878 34.9 754.478 37.8C756.478 34 758.678 31.2 760.778 30.4C764.078 29 766.678 29.1 768.778 30.1C770.978 31.1 772.678 33.1 773.878 36C774.778 38 775.378 40.5 775.778 43.3C776.678 48 776.978 53.8 777.278 59.5ZM803.407 66.1C806.907 66.4 809.607 69.5 809.307 73.1C809.107 76.6 806.007 79.3 802.407 79.1C797.307 77.9 793.207 75.7 790.507 71.3C788.007 67.1 786.507 61.4 785.907 53.5C785.707 51.3 785.407 48.9 785.307 46.3C784.907 42.6 784.707 38.4 784.507 34.2C784.407 32.3 784.307 30.4 784.207 28.6C781.807 29.3 780.507 29.8 780.207 29.9C776.607 30.2 773.507 27.6 773.207 24C772.907 20.4 775.507 17.3 779.107 17C779.507 17.1 781.007 17.6 783.807 18.3C783.807 17.5 783.707 16.9 783.707 16.2C783.707 15.4 783.407 14.5 783.407 13.6C783.507 12.9 783.607 12.1 783.907 11.4C784.407 9.9 785.407 8.7 786.707 8C788.407 6.99999 791.307 6.6 793.007 7.8C793.307 8 797.407 9.7 796.407 14.3C796.307 14.8 796.107 15.9 795.807 17.4C795.707 17.7 795.607 18 795.507 18.4C796.207 18 796.807 17.7 797.407 17.4C798.907 16.5 799.907 15.6 801.107 14.8C803.407 14.1 805.807 14.7 807.407 16.4C809.107 18 809.807 20.4 809.207 22.6C808.607 24.9 806.907 26.6 804.607 27.3C802.307 27.2 800.207 27 797.307 26.7C796.207 26.6 795.007 26.6 793.807 26.5C793.207 29 792.807 31.8 792.407 34.6C791.907 38.4 791.607 42.2 791.507 46C791.607 48.3 791.807 50.4 792.107 52.4C792.607 55.4 793.607 58.3 795.007 61C796.207 63.5 798.007 65.1 799.907 66C800.907 66.6 802.107 66.2 803.407 66.1ZM839.775 32.3C842.375 33.8 843.475 37.2 842.375 39.9C841.175 42.6 837.875 44.2 834.975 43.4C832.475 42.8 830.375 40.7 827.875 40.9C826.475 41 825.275 41.7 824.375 42.8C823.575 43.8 823.075 45.1 822.575 46.3C820.275 53.4 821.175 61.1 822.775 68.4C823.275 70.4 823.775 72.5 823.175 74.5C822.475 77.1 819.675 79.1 816.775 79C813.975 78.8 811.375 76.7 810.775 74C810.375 72 810.975 69.9 811.475 68C814.075 57.2 813.975 46 810.975 35.3C810.375 33.4 809.775 31.5 809.875 29.5C809.875 25.2 814.175 22.2 818.475 23.7C820.275 24.3 821.775 25.8 822.375 27.7C822.675 28.7 822.675 29.7 822.575 30.6C822.475 31.2 822.275 33.3 821.875 33.7C825.275 30.8 830.375 30.4 834.875 30.9C836.075 31 837.175 31.2 838.375 31.6C838.875 31.8 839.375 32 839.775 32.3ZM879.553 57.9C882.353 60.1 882.853 64.2 880.653 67C873.653 74.4 866.453 77.3 860.153 76.9C856.453 76.6 853.053 75.5 850.253 73.4C846.253 70.4 843.253 65.7 842.253 59.8C840.053 58.6 838.753 56.3 838.953 53.7C839.053 51.2 840.653 49 843.053 48.1C843.253 47 843.653 46 844.053 44.9C844.953 42.3 846.053 39.8 847.953 37.3C849.453 35.3 851.453 33.3 854.353 31.4C862.153 26.2 870.453 28.8 874.153 33.9C877.653 38.7 877.653 46.3 868.953 54.1C865.553 57.1 861.653 59.2 857.353 60.5C855.153 61.1 852.853 61.4 850.553 61.4C851.553 63.4 853.053 65 854.953 66.1C859.553 68.7 865.553 66.3 870.453 59C872.653 56.2 876.753 55.7 879.553 57.9ZM849.353 48.8C851.153 49.4 853.053 49.6 854.853 49.3C857.753 48.9 860.453 47.9 862.753 46.3C867.053 43.3 868.853 40.5 867.553 38.2C865.953 35.6 861.853 34.7 857.753 37C855.553 38.3 853.953 39.6 852.853 41.1C851.353 42.9 850.553 44.9 849.853 46.9C849.653 47.5 849.553 48.2 849.353 48.8ZM896.619 71.9C896.719 75.4 893.919 78.3 890.319 78.4C886.819 78.5 883.819 75.8 883.719 72.3C884.619 68.3 885.119 66.3 885.319 64.6C885.619 61.6 885.519 60.7 885.619 57C885.719 55.7 885.619 54.1 885.619 52C885.319 50 885.219 46.5 884.819 42.9C884.419 40 883.919 37.2 883.219 34.4C883.119 30.9 885.919 28 889.519 27.9C893.119 27.8 896.119 30.6 896.119 34.1C895.619 37.2 894.019 42.4 892.919 46.9C892.419 49 892.119 50.9 892.019 52.1C891.919 53.2 891.819 54.2 891.819 55.1C891.819 56 891.919 57 892.119 57.9C892.719 60.8 893.219 61.5 894.319 64.6C894.919 66.3 895.619 68.4 896.619 71.9ZM889.919 24.5C886.419 24.7 882.119 22.9 882.619 16.5C882.819 13 885.519 10.1 889.119 10.1C892.619 10.2 895.519 13 895.619 16.5C895.719 21 893.619 24.3 889.919 24.5Z" fill="white"/>
<path d="M277.467 37.1C279.067 48.8 278.367 68.9 279.067 79.3C279.067 82.8 276.167 85.8 272.667 85.8C269.067 85.8 266.067 83 266.067 79.4C266.567 67.8 270.367 43.8 268.567 33.8C268.367 34.1 268.067 34.4 267.867 34.7C266.067 38.2 264.367 43.5 263.067 49.1C261.367 57.3 260.467 66.1 260.467 71.4C260.567 76.1 254.667 73.4 254.467 73.1C254.267 72.6 254.167 72.2 254.067 71.7C254.067 71.1 253.867 68.8 253.867 67.9C253.667 65.1 253.467 45.2 250.667 36.6C250.567 36.7 250.467 36.9 250.367 37C248.367 40.1 246.667 45 245.167 50C244.367 53.1 243.567 56.2 242.867 59.3C242.467 61.3 241.967 63.2 241.667 65.2C241.367 67.2 241.467 69.2 240.967 71.1C240.367 73.7 238.367 75.8 235.667 76.2C232.067 76.7 228.767 74.2 228.367 70.6C228.267 70.1 228.367 68.2 228.967 65.5C229.267 64.2 229.767 62.5 230.267 60.6C230.267 60.5 230.267 60.3 230.367 60.2C230.767 57.2 230.867 54.2 231.067 52.3C230.967 52 230.967 50.7 230.767 48.8C230.567 47.2 230.267 45.3 229.867 43.3C228.767 37.6 227.067 31.5 226.667 29.7C226.567 26.1 229.367 23.2 232.967 23.1C236.567 23 239.567 25.8 239.567 29.4C239.367 30.8 238.567 35 237.867 39.5C238.167 39 238.467 38.4 238.667 37.9C240.767 33.9 242.967 30.6 245.167 28.8C247.667 26.7 250.267 25.9 252.767 26.5C254.267 26.8 255.567 27.7 256.567 28.9C257.667 30.4 258.767 33.1 259.367 36.5L259.467 37.3C259.767 36.1 260.167 34.9 260.567 33.9C261.667 30.9 263.067 28.5 264.367 27.1C265.867 25.4 267.667 24.7 269.367 24.6C271.267 24.5 272.867 25.4 274.267 27.1C275.667 28.8 276.767 32.4 277.467 37.1ZM294.959 71.9C295.059 75.4 292.259 78.3 288.659 78.4C285.159 78.5 282.159 75.8 282.059 72.3C282.959 68.3 283.459 66.3 283.659 64.6C283.959 61.6 283.859 60.7 283.959 57C284.059 55.7 283.959 54.1 283.959 52C283.659 50 283.559 46.5 283.159 42.9C282.759 40 282.259 37.2 281.559 34.4C281.459 30.9 284.259 28 287.859 27.9C291.459 27.8 294.459 30.6 294.459 34.1C293.959 37.2 292.359 42.4 291.259 46.9C290.759 49 290.459 50.9 290.359 52.1C290.259 53.2 290.159 54.2 290.159 55.1C290.159 56 290.259 57 290.459 57.9C291.059 60.8 291.559 61.5 292.659 64.6C293.259 66.3 293.959 68.4 294.959 71.9ZM288.259 24.5C284.759 24.7 280.459 22.9 280.959 16.5C281.159 13 283.859 10.1 287.459 10.1C290.959 10.2 293.859 13 293.959 16.5C294.059 21 291.959 24.3 288.259 24.5ZM306.591 27.4C305.991 31.6 305.591 36.1 305.391 40.7C305.291 42.5 305.291 44.3 305.391 46C305.491 48.8 305.791 51.4 306.091 54C306.491 57.6 307.091 60.9 307.591 63.9C308.291 67.7 309.191 70.9 309.891 73.3C310.391 76.9 307.891 80.1 304.291 80.6C300.791 81.1 297.491 78.5 297.091 75C297.091 70.2 297.991 62.7 298.691 54.2C298.891 51.5 299.091 48.8 299.191 46.1C299.291 44.3 299.191 42.5 299.191 40.7C298.991 36.1 298.791 31.5 298.491 27.2C297.891 18.3 297.291 10.8 297.391 6.3C297.891 2.79999 301.191 0.299997 304.691 0.799997C308.291 1.3 310.691 4.6 310.191 8.1C308.591 14.5 307.391 20.9 306.591 27.4ZM344.737 79C344.937 82.5 342.237 85.6 338.637 85.8C335.037 86 332.037 83.3 331.737 79.7L334.737 52.2C334.737 49.5 334.937 45.4 334.337 41.6C334.037 39.6 333.437 37.7 332.637 36.4C332.237 35.8 331.837 35.3 331.237 35.2C330.937 35.2 330.837 35.4 330.537 35.6C330.137 36 329.737 36.6 329.337 37.3C328.137 39.5 327.437 42.6 326.837 46C325.337 55.1 325.837 66.3 326.637 69.9C326.637 70.1 326.637 70.3 326.637 70.6C326.637 70.7 326.637 70.8 326.637 70.9C326.937 75.3 322.337 79 318.037 77.5C314.537 76.3 313.537 72.1 313.437 69C313.337 66.2 313.437 62 313.637 56.7C313.737 54.3 313.837 51.7 313.837 48.8C313.837 47.1 313.837 45.4 313.737 43.6C313.537 41 313.337 38.4 313.137 35.7C313.037 35.2 312.637 31.6 312.037 27.2C311.337 22.5 310.537 17.2 310.137 14.1C309.837 12.5 309.937 10.9 310.437 9.29999C311.837 6 315.637 4.5 318.937 5.8C322.237 7.2 323.737 11 322.337 14.3C322.437 14.3 322.437 14.2 322.437 14.2C321.937 16.9 321.237 21.6 320.837 26C320.337 30.9 320.137 35.1 320.037 35.7C319.937 37.4 319.837 39.1 319.837 40.7C319.937 40.4 320.137 40 320.237 39.7C323.337 32.2 327.737 27.8 332.437 28.9C335.437 29.6 337.637 32 339.037 35.6C341.037 40.6 341.837 47.9 342.137 52C342.337 53.5 342.737 59.6 343.237 65.8C343.737 71.7 344.437 77.5 344.737 79ZM356.312 25.6C354.912 25.3 354.412 23.3 355.012 21.7C356.312 18.6 358.512 18.6 358.812 18.6C360.712 18.5 362.712 19.8 363.112 20.4C363.312 20.6 363.512 20.8 363.712 21C365.212 21.7 365.712 17.9 368.412 18.9C369.712 19.3 369.612 21.4 368.712 22.8C367.712 24.2 366.912 24.9 364.812 25C363.712 25 362.812 24.2 362.112 23.6C361.812 23.3 361.512 22.9 361.312 22.9C358.812 22.2 358.812 26.1 356.312 25.6ZM377.712 47.2C379.812 54.4 378.012 63.5 373.512 69.2C370.112 73.5 365.312 76.2 358.812 74.8C350.112 73.4 346.012 64.6 345.612 55.3C345.312 49.2 346.912 43 349.412 38.6C351.312 35.3 354.012 33.3 356.912 32.1C361.712 31 366.012 31.7 369.512 34.5C373.312 37.4 376.412 42.1 377.712 47.2ZM369.812 63.2C371.512 59.2 371.312 54.1 369.512 50.2C368.012 46.9 364.612 42.7 360.912 44.2C356.212 46.1 354.412 53.8 354.612 58.3C354.812 62.1 355.912 67.2 360.312 68.4C362.912 69 365.212 68.6 366.912 67.3C368.212 66.3 369.112 64.8 369.812 63.2ZM419.689 57.9C422.489 60.1 422.989 64.2 420.789 67C413.789 74.4 406.589 77.3 400.289 76.9C396.589 76.6 393.189 75.5 390.389 73.4C386.389 70.4 383.389 65.7 382.389 59.8C380.189 58.6 378.889 56.3 379.089 53.7C379.189 51.2 380.789 49 383.189 48.1C383.389 47 383.789 46 384.189 44.9C385.089 42.3 386.189 39.8 388.089 37.3C389.589 35.3 391.589 33.3 394.489 31.4C402.289 26.2 410.589 28.8 414.289 33.9C417.789 38.7 417.789 46.3 409.089 54.1C405.689 57.1 401.789 59.2 397.489 60.5C395.289 61.1 392.989 61.4 390.689 61.4C391.689 63.4 393.189 65 395.089 66.1C399.689 68.7 405.689 66.3 410.589 59C412.789 56.2 416.889 55.7 419.689 57.9ZM389.489 48.8C391.289 49.4 393.189 49.6 394.989 49.3C397.889 48.9 400.589 47.9 402.889 46.3C407.189 43.3 408.989 40.5 407.689 38.2C406.089 35.6 401.989 34.7 397.889 37C395.689 38.3 394.089 39.6 392.989 41.1C391.489 42.9 390.689 44.9 389.989 46.9C389.789 47.5 389.689 48.2 389.489 48.8ZM456.156 61.2C458.056 63.8 458.656 66.9 456.656 71.6C455.056 75.3 446.756 78.8 437.956 77C432.256 75.8 426.856 72.4 422.956 65.9C421.556 62.8 422.956 59.2 426.256 57.8C429.556 56.4 433.356 57.8 434.856 60.9C435.956 63.2 436.856 65.4 439.156 66.9C441.456 68.4 444.556 69 447.356 68.9C447.856 68.9 448.356 68.8 448.856 68.6C452.056 67.4 449.756 63.8 448.056 62.5C444.856 59.9 440.956 58.3 437.556 56C433.256 53.1 429.656 49.3 427.656 44.6C425.656 40.7 425.756 37.1 426.756 34.2C428.756 28.1 435.356 24.9 441.956 25.9C448.556 26.8 455.756 32.5 457.556 46.2C457.756 49.6 455.056 52.4 451.456 52.6C447.856 52.8 444.856 50.2 444.656 46.8C444.856 39.8 443.056 35.7 439.856 34.8C437.956 34.2 435.956 34.5 434.856 35.9C433.656 37.3 433.256 39.5 434.156 42.1C435.156 44.7 436.556 46.9 438.256 48.6C444.456 55 453.056 57.1 456.156 61.2ZM961.171 30.3C961.471 31.4 960.671 32.6 960.271 33.5C959.771 34.8 959.171 36 958.671 37.2C957.771 39.7 956.871 42.1 955.971 44.6C954.271 49.5 952.771 54.5 951.271 59.5C950.271 62.8 949.371 66.1 948.471 69.1C947.771 71.6 947.071 73.9 946.471 75.6C945.471 78.5 943.971 80.1 943.171 80.6C941.771 81.3 939.471 81.1 937.871 78.3C935.771 74.9 933.171 64.1 933.071 63.7L927.571 42.4C925.471 40.2 925.171 36.9 926.571 34.3C927.871 31.7 930.971 29.8 933.971 30.6C936.571 31.3 938.871 33.6 939.071 36.4C939.371 41.7 939.571 46.7 939.971 51.9C940.271 55.2 940.571 58.6 941.071 61.9C941.071 62.1 941.471 65.7 942.271 67.9C942.471 67 943.171 64.3 943.371 63.3C945.171 54.4 945.971 44 946.371 41.6C946.871 37.4 947.871 31.9 948.271 29.4C948.571 27.9 949.271 26.5 950.671 25.8C952.171 25 954.271 25.6 955.771 26.2C957.471 27 960.571 28.4 961.171 30.3ZM990.996 47.2C993.096 54.4 991.296 63.5 986.796 69.2C983.396 73.5 978.596 76.2 972.096 74.8C963.396 73.4 959.296 64.6 958.896 55.3C958.596 49.2 960.196 43 962.696 38.6C964.596 35.3 967.296 33.3 970.196 32.1C974.996 31 979.296 31.7 982.796 34.5C986.596 37.4 989.696 42.1 990.996 47.2ZM983.096 63.2C984.796 59.2 984.596 54.1 982.796 50.2C981.296 46.9 977.896 42.7 974.196 44.2C969.496 46.1 967.696 53.8 967.896 58.3C968.096 62.1 969.196 67.2 973.596 68.4C976.196 69 978.496 68.6 980.196 67.3C981.496 66.3 982.396 64.8 983.096 63.2ZM1024.37 64.5C1025.77 67.9 1024.17 71.6 1020.87 73C1014.37 74.8 1009.07 74.5 1004.77 72.4C999.468 69.8 995.668 65.5 994.468 60.5C993.568 57.5 993.168 54.3 993.268 51.2C993.268 47.7 993.768 44.4 994.868 41.6C996.668 36.9 1000.07 33.5 1004.67 31.7C1011.47 29 1016.97 32 1020.77 36.6C1024.07 40.8 1025.17 47 1024.07 53C1023.07 56.4 1019.47 58.3 1016.07 57.3C1012.57 56.3 1010.67 52.7 1011.67 49.2C1012.67 46.9 1013.17 44.2 1012.07 42.2C1011.17 40.3 1009.47 38.8 1006.97 39.3C1003.47 40.1 1000.97 42.7 999.968 46.3C999.368 48.2 999.268 50.3 999.468 52.3C999.668 54.2 1000.37 56.2 1001.17 58.2C1002.37 60.7 1004.77 62.6 1007.87 63.3C1010.27 63.8 1012.87 62.8 1015.87 61C1019.17 59.7 1022.97 61.2 1024.37 64.5ZM1042.97 23.7C1041.87 22.9 1041.57 21.4 1042.37 20.2C1042.97 19.8 1043.57 19.4 1044.17 18.8C1044.57 18.4 1044.87 18.1 1045.17 17.6C1045.47 17.2 1045.67 16.7 1045.77 16.2C1046.17 14.7 1046.37 13.8 1046.47 13.4C1047.17 12.8 1047.97 12.4 1048.87 12.6C1049.77 12.7 1050.57 13.2 1050.97 14C1051.07 14.7 1050.97 15.5 1051.27 16.4C1051.37 16.9 1051.47 17.4 1051.77 17.8C1051.97 18.3 1052.27 18.7 1052.67 19.1C1053.17 19.7 1053.77 20.2 1054.37 20.9C1054.97 22.2 1054.37 23.6 1053.17 24.2C1051.87 24.8 1050.37 24.3 1049.77 23C1049.67 22.1 1049.67 21.4 1049.47 20.7C1049.37 20.1 1049.27 19.6 1049.07 19.2C1048.87 18.8 1048.67 18.5 1048.47 18.2C1048.37 18.2 1048.37 18.3 1048.37 18.3C1048.07 18.6 1047.97 18.8 1047.77 19.1C1047.57 19.6 1047.37 20.1 1047.17 20.6C1046.97 21.5 1046.77 22.3 1046.47 23.1C1045.67 24.2 1044.17 24.5 1042.97 23.7ZM1066.27 57.9C1069.07 60.1 1069.57 64.2 1067.37 67C1060.37 74.4 1053.17 77.3 1046.87 76.9C1043.17 76.6 1039.77 75.5 1036.97 73.4C1032.97 70.4 1029.97 65.7 1028.97 59.8C1026.77 58.6 1025.47 56.3 1025.67 53.7C1025.77 51.2 1027.37 49 1029.77 48.1C1029.97 47 1030.37 46 1030.77 44.9C1031.67 42.3 1032.77 39.8 1034.67 37.3C1036.17 35.3 1038.17 33.3 1041.07 31.4C1048.87 26.2 1057.17 28.8 1060.87 33.9C1064.37 38.7 1064.37 46.3 1055.67 54.1C1052.27 57.1 1048.37 59.2 1044.07 60.5C1041.87 61.1 1039.57 61.4 1037.27 61.4C1038.27 63.4 1039.77 65 1041.67 66.1C1046.27 68.7 1052.27 66.3 1057.17 59C1059.37 56.2 1063.47 55.7 1066.27 57.9ZM1036.07 48.8C1037.87 49.4 1039.77 49.6 1041.57 49.3C1044.47 48.9 1047.17 47.9 1049.47 46.3C1053.77 43.3 1055.57 40.5 1054.27 38.2C1052.67 35.6 1048.57 34.7 1044.47 37C1042.27 38.3 1040.67 39.6 1039.57 41.1C1038.07 42.9 1037.27 44.9 1036.57 46.9C1036.37 47.5 1036.27 48.2 1036.07 48.8Z" fill="#FFA7FF"/>
</svg>
