<svg width="802" height="649" viewBox="0 0 802 649" fill="none" xmlns="http://www.w3.org/2000/svg">
<g opacity="0.6" clip-path="url(#clip0_744_81)">
<path d="M458.282 649H20.9648L20.8811 647.121L0 189.156H479.244L458.282 649ZM25.8709 645.105H453.375L473.987 193.05H5.25647L25.8709 645.105Z" fill="#3F3D56"/>
<path d="M124.933 272.051H91.7629V589.024H124.933V272.051Z" fill="#29252F"/>
<path d="M255.535 272.051H222.366V589.024H255.535V272.051Z" fill="#29252F"/>
<path d="M386.138 272.051H352.968V589.024H386.138V272.051Z" fill="#29252F"/>
<path d="M755.072 322.869L752.933 321.825L211.911 57.4272L258.841 0L260.98 1.04477L802 265.441L755.072 322.869ZM218.89 56.2105L753.496 317.472L795.02 266.66L260.417 5.39577L218.89 56.2105Z" fill="#3F3D56"/>
<path d="M623.513 34.7146C607.972 26.8688 589.935 22.7443 571.544 22.8304C553.152 22.9165 535.178 27.2097 519.754 35.2005C504.329 43.1912 492.102 54.5441 484.524 67.9119C476.945 81.2797 474.333 96.1012 476.998 110.618L502.492 123.469C496.085 111.603 494.609 98.4111 498.28 85.8268C501.951 73.2424 510.577 61.9261 522.893 53.5348C535.21 45.1436 550.571 40.1182 566.727 39.1945C582.883 38.2709 598.985 41.4974 612.676 48.4018C626.366 55.3061 636.927 65.5255 642.81 77.5636C648.694 89.6018 649.591 102.826 645.371 115.301C641.151 127.775 632.036 138.844 619.359 146.887C606.683 154.93 591.111 159.524 574.925 159.997L600.419 172.849C618.001 168.544 633.665 160.305 645.554 149.11C657.442 137.916 665.054 124.236 667.488 109.693C669.922 95.1509 667.074 80.357 659.284 67.0669C651.493 53.7768 639.086 42.5485 623.536 34.7146H623.513Z" fill="#3F3D56"/>
</g>
<defs>
<clipPath id="clip0_744_81">
<rect width="802" height="649" fill="white"/>
</clipPath>
</defs>
</svg>
